<svg width="124" height="125" viewBox="0 0 124 125" fill="none" xmlns="http://www.w3.org/2000/svg">
<g clip-path="url(#clip0_175_2616)">
<path d="M62 125C96.2417 125 124 97.0178 124 62.5C124 27.9822 96.2417 0 62 0C27.7583 0 0 27.9822 0 62.5C0 97.0178 27.7583 125 62 125Z" fill="#FEFEFE"/>
<path d="M61.9989 14.6829C88.1962 14.6829 109.435 36.0926 109.435 62.4988C109.435 88.9074 88.1962 110.315 61.9989 110.315C35.8039 110.315 14.5654 88.9074 14.5654 62.4988C14.5654 36.0926 35.8039 14.6829 61.9989 14.6829Z" fill="#00913F"/>
<path d="M9.57321 65.3877L4.65454 63.7384L4.44788 60.7639L4.64536 60.75L4.66258 60.9873C4.67751 61.2025 4.72573 61.3727 4.80954 61.4965C4.86695 61.5833 4.95536 61.6493 5.07821 61.6956C5.16547 61.728 5.39051 61.7315 5.74988 61.7072L10.5319 61.3692C10.9016 61.3437 11.1324 61.3067 11.2219 61.2627C11.3138 61.2164 11.3884 61.1285 11.4493 61.0023C11.5113 60.8738 11.5342 60.7083 11.5216 60.5035L11.5044 60.2662L11.703 60.2523L11.9671 64.0718L11.7685 64.0868L11.7535 63.8472C11.7375 63.6319 11.6881 63.463 11.6043 63.338C11.548 63.2523 11.4573 63.184 11.3322 63.14C11.2449 63.1065 11.0199 63.103 10.6536 63.1285L5.27799 63.5081L12.09 65.8449L12.098 65.9745L5.72576 69.2859L10.8362 68.9259C11.1909 68.9016 11.4114 68.8762 11.4918 68.8518C11.6663 68.7928 11.8064 68.6794 11.9062 68.515C12.0084 68.3507 12.0486 68.1018 12.0245 67.7662L12.222 67.7535L12.3954 70.2558L12.1979 70.2697L12.1933 70.1956C12.1864 70.0324 12.1462 69.8831 12.0831 69.7477C12.0188 69.6111 11.9361 69.5092 11.8397 69.4444C11.7421 69.3796 11.6066 69.3345 11.4378 69.3055C11.3976 69.2998 11.2174 69.3102 10.8913 69.3322L6.29984 69.6551C5.93358 69.6829 5.70625 69.7187 5.61899 69.7627C5.52943 69.8102 5.4548 69.897 5.39395 70.0231C5.3331 70.1516 5.30899 70.3171 5.32391 70.522L5.33999 70.7535L5.14136 70.7685L4.93469 67.7801L9.57321 65.3877ZM11.6456 48.787L11.0245 51.2986L11.6376 51.7708C11.8419 51.9259 12.0188 52.0208 12.168 52.0602C12.3655 52.1099 12.532 52.0648 12.664 51.9271C12.7432 51.8484 12.8431 51.6261 12.9637 51.2627L13.1543 51.3102L12.5687 53.6759L12.377 53.6285C12.4011 53.3646 12.3494 53.1262 12.2162 52.9201C12.0877 52.7118 11.7822 52.419 11.3046 52.044L6.30328 48.0833L6.32739 47.9838L12.749 46.8738C13.3575 46.7674 13.7525 46.6528 13.9327 46.5312C14.0717 46.4386 14.175 46.287 14.2462 46.0729L14.4379 46.1215L13.586 49.5637L13.3954 49.515L13.4287 49.3738C13.4976 49.0984 13.5079 48.8924 13.4574 48.7627C13.4218 48.6724 13.3518 48.6123 13.2473 48.5856C13.1853 48.5706 13.1187 48.5648 13.0475 48.5706C13.0142 48.5694 12.8707 48.588 12.6181 48.6285L11.6456 48.787ZM11.2151 48.868L8.5238 49.316L10.6823 51.0185L11.2151 48.868ZM11.7157 35.3252L11.5446 35.2245L13.4758 31.8495L13.6491 31.9502L13.5309 32.1562C13.423 32.3437 13.3701 32.5104 13.3713 32.662C13.3701 32.765 13.4069 32.8715 13.4872 32.978C13.5412 33.0567 13.7261 33.1886 14.0418 33.3727L17.1246 35.1667C17.7285 35.5185 18.1338 35.8345 18.3382 36.1157C18.5425 36.3958 18.647 36.7442 18.6539 37.1643C18.6608 37.581 18.5391 38.0081 18.2888 38.4444C17.9834 38.9792 17.5976 39.3287 17.1292 39.4954C16.6607 39.6632 16.2589 39.6505 15.9213 39.4537C15.7055 39.3264 15.5688 39.1574 15.5103 38.9444C15.4529 38.7326 15.4781 38.5289 15.5895 38.3356C15.6974 38.1458 15.8501 38.0208 16.0442 37.9606C16.2405 37.9016 16.4265 37.9224 16.6022 38.0266C16.6883 38.0764 16.7583 38.1319 16.8111 38.1921C16.8352 38.2211 16.8846 38.3171 16.9615 38.4757C17.0362 38.6343 17.1028 38.728 17.1556 38.7604C17.2348 38.8044 17.3278 38.8055 17.4334 38.7581C17.5884 38.6921 17.7216 38.5613 17.8295 38.3715C17.9065 38.2361 17.9352 38.1065 17.9168 37.9803C17.8984 37.8542 17.8284 37.7292 17.7055 37.6076C17.5827 37.4896 17.1912 37.2396 16.5356 36.8576L13.1681 34.897C12.8466 34.7106 12.6342 34.6099 12.5331 34.5984C12.4321 34.5891 12.3219 34.618 12.2025 34.6875C12.0808 34.7581 11.9705 34.8808 11.8684 35.0567L11.7157 35.3252ZM20.4565 23.3194L22.5852 25.3912L22.6862 25.287C23.0054 24.9537 23.134 24.6099 23.0708 24.2569C23.0054 23.9039 22.7895 23.5081 22.4256 23.0718L22.5657 22.9248L25.304 25.5903L25.1639 25.7361C24.8332 25.4792 24.5278 25.3067 24.2408 25.2199C23.9549 25.1343 23.7161 25.1261 23.5232 25.1944C23.3326 25.2639 23.1156 25.4248 22.8757 25.6748L24.3487 27.1088C24.6369 27.3889 24.8229 27.5486 24.9125 27.5856C24.9986 27.625 25.0962 27.6308 25.2029 27.6018C25.3074 27.5752 25.4326 27.4861 25.5784 27.3356L25.8781 27.0208C26.35 26.5289 26.614 26.0243 26.6726 25.5058C26.7311 24.9896 26.5899 24.441 26.2524 23.8599L26.3901 23.7164L27.8265 25.5718L23.4589 30.1308L23.3165 29.9919L23.4853 29.816C23.63 29.6632 23.7218 29.5139 23.7574 29.368C23.7861 29.265 23.7735 29.1539 23.7195 29.0324C23.6885 28.9433 23.5404 28.772 23.2775 28.515L19.8354 25.1667C19.5988 24.9352 19.4473 24.8021 19.3807 24.7616C19.267 24.6979 19.1511 24.6805 19.0339 24.7014C18.8675 24.7303 18.7033 24.8287 18.5391 25.0011L18.3715 25.1771L18.2279 25.037L22.4566 20.6238L24.0031 22.1296L23.8619 22.2778C23.4118 21.9861 23.0398 21.8264 22.7448 21.8032C22.4508 21.7778 22.1454 21.8518 21.8285 22.0266C21.6437 22.1262 21.3601 22.3761 20.9778 22.7766L20.4565 23.3194ZM38.0806 15.2384L39.0783 17.6238L33.4317 20.7801L33.3341 20.6053L33.5465 20.4873C33.7314 20.3831 33.8623 20.2674 33.9369 20.1389C33.9943 20.0486 34.015 19.9375 34.0001 19.8044C33.9932 19.7118 33.9013 19.5035 33.7245 19.1805L31.4052 14.9641C31.225 14.6354 31.0952 14.4398 31.0149 14.3785C30.9357 14.3148 30.8277 14.2812 30.6888 14.2801C30.551 14.2766 30.3914 14.3252 30.2146 14.4236L30.0022 14.544L29.9069 14.3669L33.2985 12.4722L33.395 12.647L33.1171 12.8009C32.9311 12.9062 32.8037 13.0208 32.7256 13.1505C32.6694 13.2407 32.6464 13.3507 32.659 13.4849C32.6659 13.5799 32.7578 13.7882 32.9346 14.1099L35.1804 18.1944C35.3606 18.5208 35.4961 18.7211 35.5799 18.7882C35.6695 18.8565 35.7762 18.8854 35.9129 18.8669C36.0059 18.8518 36.2022 18.7593 36.5019 18.5926L37.0335 18.2963C37.3699 18.1076 37.619 17.89 37.7798 17.6447C37.9371 17.4005 38.0289 17.103 38.0496 16.7523C38.0725 16.3993 38.0174 15.934 37.8877 15.3449L38.0806 15.2384ZM49.2302 13.5474L49.2819 13.7396L45.609 14.7326L45.5585 14.5382L45.7915 14.4745C45.9948 14.4201 46.1498 14.3391 46.2531 14.2338C46.33 14.1609 46.3783 14.0567 46.3932 13.9259C46.4115 13.8345 46.3714 13.6088 46.2772 13.2535L45.0395 8.5949C44.9431 8.23379 44.8627 8.01273 44.8007 7.93171C44.7387 7.85069 44.6423 7.79166 44.5068 7.75694C44.3747 7.72106 44.2094 7.72916 44.0119 7.78124L43.7788 7.8449L43.7283 7.65161L47.4001 6.65856L47.4518 6.85185L47.2175 6.9155C47.0143 6.9699 46.8593 7.05208 46.7548 7.1574C46.6779 7.23148 46.6297 7.33217 46.6102 7.46643C46.5952 7.56018 46.6331 7.78356 46.7284 8.13888L47.9661 12.7963C48.0626 13.1574 48.1418 13.3796 48.205 13.4583C48.2704 13.5393 48.3691 13.5972 48.5012 13.6331C48.6367 13.6713 48.8008 13.6643 48.9972 13.6099L49.2302 13.5474ZM60.3248 4.51273L60.5533 6.94444L60.3328 6.96064C60.1882 6.35648 59.9011 5.88425 59.4694 5.53819C59.0377 5.19444 58.5877 5.03935 58.1181 5.07175C57.7541 5.09953 57.4717 5.21759 57.2753 5.42823C57.0755 5.63773 56.9848 5.87152 57.0009 6.12962C57.0124 6.28819 57.0618 6.43055 57.1444 6.55208C57.2581 6.7118 57.4372 6.86921 57.6772 7.01736C57.8528 7.12499 58.2535 7.30671 58.8816 7.56597C59.7599 7.92824 60.3581 8.28587 60.6807 8.63772C61.0011 8.99189 61.1767 9.4074 61.21 9.8912C61.2514 10.5012 61.0527 11.044 60.6107 11.5174C60.1675 11.9896 59.582 12.2546 58.8563 12.3055C58.6278 12.3206 58.4085 12.3125 58.203 12.2812C57.9964 12.2465 57.7346 12.1759 57.4188 12.0706C57.2443 12.0093 57.1008 11.9838 56.9906 11.9931C56.8976 12 56.8011 12.0417 56.7035 12.1204C56.606 12.1991 56.5279 12.316 56.4751 12.4664L56.2776 12.4803L56.0858 9.7199L56.2833 9.70717C56.4946 10.4722 56.8356 11.0428 57.3132 11.4201C57.7897 11.7951 58.2868 11.9676 58.8024 11.9294C59.2019 11.9016 59.5119 11.7685 59.7347 11.5324C59.9574 11.2963 60.0573 11.0324 60.0378 10.7419C60.0251 10.5694 59.9689 10.4051 59.8655 10.2477C59.7645 10.0961 59.6153 9.95138 59.4201 9.81712C59.2226 9.68634 58.8827 9.51967 58.3948 9.31944C57.7128 9.03819 57.2191 8.79282 56.916 8.58333C56.6094 8.37384 56.3706 8.13194 56.1949 7.85879C56.0204 7.5868 55.9205 7.27893 55.8975 6.93518C55.8562 6.35416 56.0353 5.84374 56.4303 5.40393C56.8275 4.96411 57.3488 4.72222 57.9929 4.67708C58.2283 4.65972 58.4591 4.67245 58.6829 4.71411C58.8552 4.74536 59.0653 4.81134 59.3121 4.91203C59.5613 5.01041 59.7347 5.05786 59.8299 5.05092C59.923 5.04398 59.9941 5.00925 60.0424 4.94791C60.094 4.88657 60.1342 4.74652 60.1641 4.52314L60.3248 4.51273ZM87.5084 10.7187L90.7909 12.5521L90.6945 12.7268L90.5303 12.6366C90.2834 12.4988 90.0997 12.4305 89.9792 12.4294C89.8586 12.4294 89.753 12.4653 89.6634 12.5336C89.575 12.6042 89.4269 12.8229 89.2271 13.1875L87.5015 16.3264C87.1857 16.9005 87.0204 17.3032 87.0032 17.5393C86.9883 17.7731 87.0445 18.0058 87.1731 18.2384C87.3017 18.4722 87.5175 18.6736 87.8172 18.8414C88.1628 19.0336 88.4981 19.1192 88.8264 19.0972C89.156 19.0775 89.4533 18.9641 89.7254 18.7558C89.9952 18.5486 90.319 18.1053 90.6933 17.4236L92.132 14.8102C92.2893 14.5231 92.3719 14.3009 92.38 14.1447C92.388 13.9884 92.3604 13.8623 92.295 13.765C92.1951 13.6146 92.0171 13.4664 91.7588 13.3218L91.8553 13.147L94.0551 14.3762L93.9587 14.5521L93.8266 14.478C93.6487 14.3796 93.481 14.331 93.3226 14.3391C93.1641 14.3449 93.0172 14.4051 92.8851 14.5197C92.7887 14.5995 92.6681 14.7685 92.5246 15.0289L91.187 17.4653C90.7714 18.2187 90.4224 18.7349 90.1411 19.0139C89.8598 19.2928 89.4499 19.4653 88.9148 19.5336C88.3787 19.603 87.7805 19.4502 87.1203 19.0822C86.5715 18.7743 86.1857 18.463 85.9664 18.1447C85.6679 17.7164 85.5221 17.2963 85.5244 16.8866C85.5312 16.4757 85.6794 16.0069 85.9721 15.4711L87.699 12.3333C87.901 11.9641 88.0078 11.7245 88.017 11.6111C88.025 11.4988 87.994 11.3877 87.9228 11.2789C87.854 11.1678 87.684 11.0417 87.4119 10.8935L87.5084 10.7187ZM102.171 28.2141L100.145 29.8044L95.6591 25.1215L95.8014 24.9826L95.9691 25.1574C96.116 25.3113 96.2607 25.4086 96.4031 25.4491C96.5041 25.4815 96.6166 25.4734 96.7383 25.4248C96.8267 25.3935 97.0012 25.25 97.2665 24.9942L100.706 21.6447C100.974 21.3843 101.128 21.2072 101.168 21.1134C101.207 21.0185 101.21 20.9051 101.177 20.7685C101.143 20.6354 101.057 20.4919 100.914 20.3437L100.748 20.169L100.89 20.0289L103.584 22.8414L103.44 22.9815L103.221 22.7523C103.074 22.5984 102.93 22.5023 102.786 22.4606C102.685 22.4294 102.573 22.4352 102.447 22.4815C102.36 22.5127 102.183 22.6562 101.921 22.912L98.588 26.1562C98.3216 26.4167 98.1643 26.5984 98.123 26.7002C98.0794 26.8032 98.0805 26.9167 98.1333 27.044C98.1724 27.1319 98.3113 27.2986 98.549 27.5474L98.9692 27.9861C99.2378 28.2662 99.5099 28.4514 99.7867 28.544C100.062 28.6354 100.372 28.647 100.712 28.5764C101.055 28.5081 101.488 28.3333 102.019 28.0555L102.171 28.2141ZM108.339 38.4676L107.133 36.1829L106.364 36.2454C106.108 36.2674 105.914 36.3148 105.779 36.3877C105.597 36.4849 105.504 36.6296 105.496 36.8206C105.49 36.934 105.564 37.1667 105.717 37.5174L105.541 37.6099L104.407 35.4583L104.582 35.3634C104.739 35.5764 104.935 35.7176 105.171 35.7824C105.405 35.8484 105.826 35.8611 106.431 35.8171L112.775 35.3866L112.824 35.478L108.788 40.6331C108.407 41.125 108.189 41.4745 108.136 41.6863C108.095 41.8495 108.119 42.0324 108.207 42.2384L108.033 42.3322L106.38 39.2002L106.555 39.1065L106.623 39.2349C106.756 39.4861 106.886 39.6458 107.007 39.7083C107.095 39.7511 107.186 39.7488 107.282 39.6979C107.338 39.6678 107.391 39.6273 107.44 39.5752C107.465 39.5532 107.558 39.4421 107.72 39.2419L108.339 38.4676ZM108.603 38.118L110.308 35.9699L107.572 36.1609L108.603 38.118ZM113.628 53.037L118.712 54.0694L119.274 56.9977L119.08 57.0347L119.034 56.8021C118.995 56.5903 118.925 56.4282 118.826 56.3148C118.76 56.2373 118.663 56.1817 118.537 56.1493C118.445 56.1285 118.224 56.1516 117.87 56.2199L113.163 57.1435C112.799 57.2141 112.575 57.2789 112.491 57.3345C112.405 57.3935 112.342 57.4873 112.296 57.6204C112.251 57.7558 112.246 57.9236 112.285 58.125L112.331 58.3588L112.137 58.3958L111.412 54.6377L111.606 54.5995L111.652 54.8345C111.693 55.0463 111.762 55.2095 111.861 55.3229C111.926 55.4005 112.025 55.456 112.156 55.4861C112.245 55.5069 112.47 55.4826 112.83 55.412L118.12 54.3761L111.075 52.8935L111.051 52.7639L116.976 48.6968L111.948 49.6817C111.598 49.75 111.382 49.8009 111.305 49.8356C111.14 49.9155 111.014 50.0451 110.935 50.2211C110.854 50.397 110.843 50.6481 110.908 50.9768L110.714 51.0162L110.239 48.5521L110.432 48.5127L110.447 48.588C110.474 48.7488 110.53 48.8924 110.609 49.0174C110.691 49.147 110.785 49.2373 110.888 49.2893C110.993 49.3426 111.133 49.3704 111.305 49.3796C111.344 49.3773 111.524 49.3472 111.843 49.2847L116.36 48.3981C116.723 48.3287 116.942 48.265 117.025 48.2095C117.108 48.1516 117.171 48.0567 117.216 47.9236C117.26 47.7893 117.264 47.6215 117.226 47.4201L117.182 47.1921L117.377 47.1528L117.943 50.0926L113.628 53.037ZM113.59 69.7673L113.903 67.1979L113.236 66.8044C113.014 66.6748 112.828 66.6018 112.677 66.5833C112.473 66.5567 112.313 66.6215 112.198 66.7755C112.129 66.8623 112.059 67.0961 111.982 67.4722L111.787 67.4467L112.081 65.0266L112.279 65.0509C112.287 65.316 112.367 65.5463 112.523 65.7349C112.677 65.9248 113.014 66.1782 113.536 66.4919L118.977 69.8079L118.964 69.9097L112.726 71.7998C112.134 71.9815 111.756 72.1435 111.592 72.287C111.467 72.3947 111.382 72.559 111.336 72.7789L111.141 72.7546L111.569 69.2349L111.765 69.2581L111.747 69.4028C111.714 69.6863 111.73 69.89 111.793 70.0127C111.84 70.0984 111.917 70.1493 112.025 70.1632C112.088 70.1701 112.153 70.1678 112.225 70.1539C112.258 70.1505 112.398 70.1146 112.642 70.0417L113.59 69.7673ZM114.008 69.6331L116.623 68.8588L114.275 67.4329L114.008 69.6331Z" fill="#2B2B2A"/>
<path d="M13.26 92.8241L13.0878 92.9248L11.1772 89.5903L11.3495 89.4907L11.4723 89.7026C11.5768 89.8866 11.6962 90.0174 11.8259 90.0914C11.9144 90.147 12.0257 90.1667 12.1566 90.147C12.2519 90.1412 12.4563 90.0451 12.7755 89.8588L16.9364 87.4375C17.259 87.25 17.4519 87.1146 17.5127 87.0313C17.5759 86.9502 17.6057 86.8403 17.6057 86.7002C17.6057 86.5602 17.5541 86.3982 17.4519 86.2211L17.3313 86.0104L17.5047 85.9074L19.4141 89.2419L19.2407 89.3426L19.1201 89.1319C19.0134 88.9468 18.8962 88.8148 18.7665 88.7431C18.6747 88.6863 18.5656 88.6632 18.4324 88.6806C18.3382 88.6898 18.1316 88.7859 17.8158 88.9711L13.6538 91.3912C13.33 91.5799 13.1371 91.7153 13.0786 91.7975C13.0177 91.8819 12.9879 91.9942 12.9867 92.132C12.9856 92.2743 13.0361 92.434 13.1383 92.6134L13.26 92.8241ZM24.9826 96.6331L24.1261 102.405L26.4224 100.245C26.7438 99.9456 26.9172 99.6945 26.9459 99.4965C26.9792 99.2269 26.8575 98.9445 26.5739 98.6505L26.7197 98.5116L28.365 100.289L28.2192 100.428C27.9804 100.227 27.8024 100.111 27.683 100.074C27.5636 100.039 27.4327 100.049 27.2904 100.103C27.1457 100.156 26.9459 100.303 26.6956 100.539L22.2465 104.721L22.1225 104.586L23.2007 96.7639L19.8056 99.956C19.4979 100.244 19.3567 100.51 19.3808 100.752C19.4026 100.997 19.499 101.209 19.6667 101.39L19.7849 101.52L19.6391 101.656L17.8721 99.7465L18.0179 99.6088C18.2946 99.9028 18.5472 100.052 18.7711 100.058C18.9984 100.064 19.2522 99.9317 19.5358 99.6655L23.3074 96.1215L23.3419 95.8715C23.3786 95.625 23.3786 95.4375 23.3419 95.3056C23.3086 95.1782 23.2144 95.0289 23.0686 94.8611L23.2156 94.7234L24.9826 96.6331ZM29.473 110.382L29.5763 110.211L29.783 110.336C29.9655 110.447 30.1228 110.502 30.2526 110.502C30.3858 110.503 30.5029 110.47 30.6074 110.397C30.6762 110.35 30.8071 110.162 31.0012 109.836L33.4754 105.685C33.6672 105.362 33.7705 105.15 33.7831 105.049C33.7992 104.948 33.7728 104.836 33.7051 104.713C33.6373 104.59 33.5156 104.475 33.3411 104.368L33.1333 104.243L33.2366 104.069L36.0392 105.767C36.7878 106.221 37.3275 106.688 37.6604 107.17C38.0669 107.757 38.2655 108.395 38.2494 109.076C38.2345 109.762 38.0347 110.424 37.6524 111.065C37.3883 111.51 37.0726 111.875 36.7086 112.163C36.3424 112.451 35.9761 112.648 35.6087 112.757C35.2367 112.865 34.8612 112.904 34.4778 112.874C34.0966 112.84 33.6695 112.737 33.1976 112.563C32.9875 112.484 32.6798 112.324 32.2768 112.079L29.473 110.382ZM35.4101 105.875L32.4742 110.801C32.3181 111.061 32.2377 111.228 32.2251 111.302C32.2159 111.375 32.2297 111.447 32.271 111.512C32.325 111.61 32.4306 111.705 32.5891 111.801C33.1034 112.111 33.6006 112.172 34.0828 111.981C34.7372 111.727 35.3618 111.1 35.9612 110.093C36.4445 109.284 36.704 108.559 36.7408 107.922C36.7672 107.422 36.6627 107.009 36.4296 106.683C36.2654 106.453 35.9256 106.184 35.4101 105.875ZM49.6092 111.432C50.7401 111.712 51.5542 112.306 52.0571 113.205C52.5542 114.106 52.6564 115.083 52.3567 116.134C52.1007 117.032 51.6173 117.747 50.902 118.278C49.9536 118.985 48.8491 119.154 47.5885 118.791C46.3255 118.427 45.4713 117.711 45.0258 116.648C44.6756 115.808 44.632 114.92 44.8983 113.983C45.198 112.932 45.8019 112.159 46.709 111.664C47.6195 111.167 48.5851 111.089 49.6092 111.432ZM49.5782 111.782C48.9329 111.596 48.352 111.787 47.8296 112.352C47.4025 112.814 47.0442 113.556 46.7549 114.571C46.4116 115.779 46.3668 116.734 46.624 117.432C46.8031 117.92 47.1568 118.242 47.6861 118.394C48.0408 118.497 48.3623 118.495 48.6494 118.391C49.0168 118.256 49.3532 117.968 49.6632 117.527C49.9709 117.088 50.2384 116.475 50.4611 115.689C50.7275 114.751 50.8412 114.025 50.7998 113.514C50.7585 112.998 50.6322 112.608 50.4186 112.336C50.2051 112.068 49.9249 111.883 49.5782 111.782ZM62.0241 113.081L65.7832 117.519L65.6741 114.356C65.658 113.916 65.5857 113.618 65.4548 113.468C65.2757 113.264 64.9829 113.171 64.5765 113.193L64.5696 112.992L66.9807 112.906L66.9876 113.11C66.681 113.16 66.4767 113.218 66.3722 113.285C66.2677 113.352 66.1885 113.458 66.1357 113.604C66.0805 113.747 66.0599 113.995 66.0714 114.341L66.2826 120.469L66.1012 120.476L60.9518 114.522L61.1137 119.2C61.1297 119.624 61.2342 119.905 61.4328 120.046C61.6292 120.19 61.8519 120.257 62.0988 120.248L62.271 120.242L62.2779 120.442L59.6888 120.532L59.6819 120.332C60.0849 120.315 60.3605 120.222 60.512 120.053C60.6647 119.885 60.7348 119.605 60.721 119.214L60.5407 114.021L60.3777 113.83C60.2169 113.64 60.0769 113.519 59.9552 113.458C59.8358 113.402 59.6624 113.374 59.4408 113.375L59.4339 113.172L62.0241 113.081ZM76.1911 111.476L77.0109 114.356L77.1498 114.316C77.5953 114.189 77.8766 113.954 77.9983 113.613C78.1177 113.275 78.1269 112.819 78.0282 112.256L78.2234 112.2L79.2774 115.905L79.081 115.962C78.9249 115.571 78.7435 115.265 78.5379 115.045C78.3301 114.826 78.1269 114.698 77.9248 114.657C77.7251 114.623 77.4552 114.652 77.1211 114.748L77.6895 116.742C77.7997 117.133 77.8835 117.365 77.9421 117.442C77.9983 117.52 78.081 117.575 78.1866 117.603C78.2922 117.634 78.4438 117.62 78.6459 117.561L79.0649 117.441C79.7205 117.251 80.2028 116.946 80.5105 116.524C80.8193 116.108 80.9697 115.557 80.9651 114.88L81.1557 114.824L81.4818 117.167L75.4115 118.92L75.3564 118.728L75.5895 118.66C75.7927 118.602 75.9466 118.516 76.0499 118.409C76.1257 118.334 76.1705 118.23 76.1842 118.097C76.2015 118.005 76.1578 117.779 76.0545 117.422L74.7318 112.767C74.6411 112.447 74.5757 112.253 74.5367 112.185C74.4689 112.074 74.3771 111.998 74.2668 111.957C74.1061 111.898 73.9132 111.903 73.6859 111.969L73.4516 112.036L73.3977 111.84L79.2739 110.142L79.8698 112.236L79.6735 112.293C79.4278 111.811 79.1821 111.485 78.9375 111.314C78.6941 111.144 78.391 111.052 78.0293 111.046C77.8181 111.038 77.4472 111.112 76.9156 111.266L76.1911 111.476ZM89.6509 104.483L91.0275 106.507L90.8415 106.628C90.4224 106.169 89.9402 105.895 89.3948 105.803C88.8506 105.714 88.3799 105.797 87.9826 106.059C87.6749 106.26 87.4843 106.501 87.4131 106.786C87.3385 107.067 87.3718 107.317 87.5107 107.534C87.5991 107.669 87.7105 107.771 87.8414 107.836C88.0205 107.921 88.2524 107.971 88.5326 107.983C88.7404 107.991 89.1813 107.954 89.8587 107.874C90.8036 107.76 91.504 107.78 91.9564 107.933C92.4076 108.086 92.7635 108.365 93.0264 108.773C93.3582 109.288 93.4444 109.866 93.2859 110.497C93.1252 111.131 92.7382 111.648 92.1251 112.05C91.9334 112.177 91.7359 112.277 91.5384 112.35C91.3421 112.421 91.0792 112.488 90.7496 112.549C90.5648 112.583 90.4282 112.631 90.3352 112.691C90.2559 112.743 90.1928 112.828 90.1457 112.944C90.0964 113.063 90.0849 113.203 90.1113 113.362L89.9448 113.472L88.4419 111.139L88.6095 111.031C89.1641 111.598 89.7404 111.932 90.3409 112.029C90.9414 112.126 91.4604 112.034 91.8967 111.748C92.2342 111.525 92.4432 111.257 92.5235 110.94C92.6062 110.623 92.566 110.343 92.4076 110.096C92.3134 109.95 92.1848 109.834 92.0195 109.748C91.8553 109.662 91.6544 109.609 91.4179 109.589C91.1825 109.568 90.8025 109.589 90.2778 109.652C89.5429 109.74 88.9907 109.769 88.621 109.734C88.2513 109.699 87.9252 109.604 87.6393 109.45C87.3546 109.296 87.1181 109.076 86.9321 108.786C86.614 108.295 86.5256 107.757 86.6588 107.177C86.7954 106.597 87.1376 106.128 87.6806 105.772C87.8804 105.642 88.0882 105.537 88.3064 105.464C88.4717 105.409 88.6876 105.362 88.9539 105.33C89.2215 105.294 89.396 105.25 89.4752 105.198C89.5544 105.147 89.6003 105.081 89.6141 105.003C89.6302 104.926 89.5946 104.782 89.5154 104.572L89.6509 104.483ZM103.439 102.329L103.577 102.473L100.83 105.147L100.691 105.002L100.867 104.833C101.019 104.685 101.115 104.537 101.156 104.392C101.189 104.292 101.179 104.178 101.13 104.054C101.101 103.964 100.957 103.786 100.702 103.52L97.3641 100.036C97.1058 99.7639 96.929 99.6088 96.8337 99.5695C96.7418 99.5278 96.6293 99.5255 96.4927 99.5602C96.3584 99.5938 96.2148 99.6829 96.069 99.8252L95.8945 99.9954L95.7556 99.8495L98.5031 97.1759L98.642 97.3206L98.4663 97.4907C98.3159 97.6389 98.2184 97.7847 98.177 97.9294C98.146 98.0336 98.1506 98.1458 98.2 98.272C98.231 98.3611 98.3734 98.5405 98.6282 98.8056L101.966 102.289C102.225 102.561 102.401 102.716 102.495 102.756C102.59 102.793 102.705 102.795 102.841 102.763C102.977 102.73 103.119 102.642 103.264 102.499L103.439 102.329ZM109.471 91.2593L108.104 93.4641L108.546 94.1065C108.693 94.3206 108.832 94.4664 108.963 94.5498C109.137 94.6597 109.309 94.669 109.479 94.5787C109.579 94.5289 109.742 94.3472 109.968 94.037L110.136 94.1435L108.85 96.2199L108.681 96.1134C108.785 95.8681 108.808 95.6262 108.746 95.3877C108.685 95.1482 108.484 94.772 108.143 94.2639L104.584 88.9167L104.639 88.8287L111.116 89.7778C111.731 89.8657 112.142 89.8808 112.352 89.8218C112.513 89.7755 112.659 89.662 112.792 89.4826L112.961 89.588L111.088 92.61L110.919 92.5023L110.996 92.3785C111.146 92.1366 111.218 91.9444 111.212 91.8032C111.205 91.7037 111.157 91.6262 111.064 91.5694C111.01 91.5336 110.949 91.5081 110.879 91.4931C110.846 91.4792 110.704 91.4537 110.451 91.4132L109.471 91.2593ZM109.036 91.2025L106.327 90.7882L107.865 93.0914L109.036 91.2025Z" fill="#2B2B2A"/>
<path d="M61.9989 0C27.7645 0 0 27.9884 0 62.4988C0 97.0116 27.7645 125 61.9989 125C96.2355 125 124 97.0116 124 62.4988C124 27.9884 96.2355 0 61.9989 0ZM61.9989 123.734C28.4523 123.734 1.25607 96.3183 1.25607 62.4988C1.25607 28.6806 28.4523 1.2662 61.9989 1.2662C95.5466 1.2662 122.744 28.6806 122.744 62.4988C122.744 96.3183 95.5466 123.734 61.9989 123.734Z" fill="#00913F"/>
<path d="M51.2878 73.6134V69.0532H50.3497V70.7523H48.484V69.0532H47.5471V73.6134H48.484V71.5926H50.3497V73.6134H51.2878Z" fill="white"/>
<path d="M57.4326 73.6134H58.4097L56.7782 69.0532H55.7024L54.0927 73.6134H55.0732L55.3705 72.6759H57.1249L57.4326 73.6134ZM55.6162 71.9086L56.2431 69.9653L56.8735 71.9086H55.6162Z" fill="white"/>
<path d="M61.2124 69.0532V73.6134H64.3526V72.772H62.1447V69.0532H61.2124Z" fill="white"/>
<path d="M69.417 69.0532H68.3424L66.7327 73.6134H67.7132L68.0106 72.6759H69.7649L70.0726 73.6134H71.0486L69.417 69.0532ZM68.2574 71.9086L68.8832 69.9653L69.5123 71.9086H68.2574Z" fill="white"/>
<path d="M73.8523 69.0532V73.6134H76.9925V72.772H74.7846V69.0532H73.8523Z" fill="white"/>
<path d="M95.5305 74.8009C95.5305 74.434 95.6694 74.0139 95.8772 73.7176C95.8772 73.4201 95.9473 73.1759 96.1195 72.9479C96.2584 72.2315 96.3457 71.4815 96.658 70.8345C96.6224 70.7824 96.6063 70.7292 96.5879 70.6771C96.8313 69.8044 97.0036 68.9294 97.0392 68.0208C97.3331 67.2176 97.1264 66.2211 97.3331 65.3646C97.0208 64.0718 97.6109 62.7095 97.317 61.4688C96.658 61.662 95.9289 61.5567 95.2366 61.5567V61.3981C94.318 61.3981 89.9849 61.0845 89.8632 60.8218C89.7243 60.8218 89.4981 60.9618 89.4132 60.8403C88.6669 60.7882 88.6496 61.1192 88.3201 60.3333C88.164 60.1238 87.6622 59.6343 87.6622 59.3553C87.4016 59.2674 87.211 59.0405 87.0376 58.7951H86.9343C86.8987 58.9352 86.3097 59.4769 86.1536 59.4769C86.1536 59.5637 86.1708 59.6516 86.188 59.7396C85.8596 59.9838 85.374 60.2639 85.2167 60.6817C84.2121 61.0498 84.7322 61.853 84.9744 62.5706C85.1133 62.5868 85.235 62.5347 85.3212 62.6042C85.5646 62.36 87.7483 62.7269 88.164 62.691C88.1984 62.7095 88.234 62.7268 88.2857 62.7616C88.5119 62.6574 88.6152 62.7616 88.823 62.831C90.2961 62.8669 91.8048 63.0937 93.1906 63.0937C93.2078 63.1296 93.2262 63.1632 93.2434 63.2153C93.5718 63.2697 93.9013 63.338 94.248 63.4074C94.2825 63.4954 94.3353 63.5833 94.3869 63.6875C95.1665 63.8796 94.8554 64.9803 94.6992 65.5046C94.248 65.8368 93.9885 66.169 93.3984 66.2384C93.3651 66.2743 93.3295 66.309 93.3111 66.3611C92.8783 66.3611 91.5269 66.5347 91.1802 66.309C90.7806 66.3611 90.435 66.2569 90.0366 66.1863C90.0699 65.6447 89.9493 65.1724 89.8632 64.6319C89.6554 64.6319 89.5337 64.684 89.3592 64.6319C89.3431 64.684 89.3259 64.7361 89.3259 64.8056C88.4591 65.0683 87.6783 65.8542 86.777 65.9595C86.7954 66.397 86.9343 66.8333 86.9343 67.2349C87.1582 67.287 87.4533 67.375 87.6439 67.287C87.7139 67.3055 87.7828 67.3229 87.8528 67.3576C87.8689 67.3229 87.9045 67.3055 87.9389 67.287C88.6841 67.3391 89.6038 67.3391 90.3133 67.5312C91.2663 67.5845 91.9953 67.7234 92.8266 68.1956V68.3183C93.1389 68.5637 93.1906 68.7558 93.2262 69.14C93.9541 69.6285 93.5017 72.2153 92.9483 72.7731C92.9311 72.8611 92.9311 72.9479 92.9311 73.0359C92.8266 73.0706 92.7233 73.1065 92.636 73.1586C92.6188 73.228 92.6188 73.2975 92.6188 73.3681C92.5488 73.3854 92.4982 73.4028 92.4454 73.4201C92.4282 73.4722 92.4098 73.5243 92.3938 73.5775C92.3065 73.5949 92.2376 73.6123 92.1676 73.6296C92.0987 73.8403 91.4396 74.1725 91.4396 73.8738C91.0412 74.1539 90.2272 74.0845 89.7588 74.0498C89.7427 73.9965 89.7427 73.9618 89.7427 73.9271C88.978 74.1724 88.5808 73.5243 87.9217 73.3322C87.4533 72.8611 87.4016 72.669 87.281 72.5637C87.2282 72.0914 87.2282 72.0914 87.1582 72.0393C87.281 70.765 87.0204 70.9213 86.2408 70.1007C85.6518 70.1007 85.1317 69.5764 84.4727 69.5764C84.3682 69.75 84.2465 69.9259 84.0559 70.0127C83.8136 70.9051 82.7045 71.8125 81.8032 71.8993C81.6815 71.9525 81.5598 72.0046 81.4565 72.0752C81.4393 72.4074 81.3348 72.5637 81.4037 72.8958C81.9938 72.7558 83.9353 73.1759 84.3338 73.2118C84.6116 73.4201 85.0789 73.5949 85.4073 73.7176C85.8424 74.1018 86.7081 74.2593 87.0032 74.7488C87.2811 74.7488 87.6094 74.993 87.6955 75.2373C87.8012 75.1852 88.7025 75.831 88.8747 75.919C89.187 76.4433 90.3478 76.8102 90.4522 77.4039C90.4867 77.4039 90.5383 77.4039 90.59 77.4213C90.7473 78.0683 90.3661 79.6412 89.5521 79.6412C89.4981 79.6933 89.4465 79.7454 89.3948 79.8148H89.0836C89.0653 79.8333 89.048 79.868 89.032 79.9028C88.5279 79.868 88.0434 79.8507 87.5578 79.8333C87.366 79.6586 87.1938 79.5012 87.0204 79.3437C86.6381 79.4306 86.413 78.9062 86.0502 78.9062C86.0146 78.8368 85.9813 78.7662 85.963 78.7141C85.5462 78.522 84.506 77.9641 84.3338 77.4919C83.9353 77.3345 83.6586 76.9838 83.3969 76.6354C83.4497 76.5833 83.5197 75.3773 83.5197 75.3599C83.8492 74.9745 83.3808 74.9583 83.3808 74.6782C83.1385 74.7303 82.9296 74.5741 82.7562 74.4167C82.0283 74.3113 81.6471 74.4167 81.2315 75.0104C80.7446 74.9583 80.2773 74.9931 79.7917 74.9224C79.6011 75.1331 79.3772 75.1505 79.3772 75.4988C79.5322 75.5509 79.7745 75.6389 79.9306 75.5174C80.6069 75.831 81.6126 76.4433 81.9422 77.1238C82.0111 77.1238 82.0811 77.1238 82.1672 77.1424C82.2189 77.2292 82.2705 77.316 82.3233 77.4213C82.4095 77.4398 82.5128 77.456 82.6184 77.4734C82.6184 77.544 82.6184 77.6134 82.6345 77.7014C82.7562 77.7361 82.8779 77.7882 83.0157 77.8403C83.4325 78.522 84.421 78.8542 84.6805 79.6412C85.235 79.7454 85.4945 80.375 85.9458 80.6713C86.3097 81.1262 86.6737 81.5799 87.0549 82.0347H87.211C87.3844 82.4537 87.4877 82.5243 87.3327 82.9248C87.3327 83.2049 87.1582 83.2928 87.0549 83.5544C86.9159 83.4849 86.552 83.9213 86.4475 84.0093C86.2408 84.0093 85.8596 84.1308 85.4601 84.1308C85.1317 83.9213 84.8022 83.6586 84.421 83.5891C83.9354 83.2049 83.9353 83.2049 83.0341 82.6805C82.8607 82.4537 82.2189 82.0868 81.9422 82.0162C81.6815 81.6852 81.5254 81.6157 81.3348 81.4051C80.6597 81.1609 80.554 80.4097 80.554 79.8333C80.8503 79.3437 80.9892 79.2917 81.0925 79.0995C80.6597 78.4873 80.554 78.1898 79.7584 78.3646C78.7698 78.2963 77.6952 78.522 76.7411 78.6262C76.7066 78.9768 76.6561 79.0116 76.6894 79.3264C76.9316 79.4143 77.1222 79.4826 77.2968 79.6586C77.539 79.6586 77.8685 80.0255 78.0419 80.1829C78.8915 80.6713 80.0362 81.5451 80.5208 82.4363C80.554 82.4537 80.6069 82.4711 80.6597 82.4884C80.6597 82.5579 80.6758 82.6458 80.693 82.7326C81.1614 82.9606 82.1144 84.1667 82.2016 84.7072C82.2533 84.7257 82.3233 84.743 82.3922 84.7604C82.4095 84.8831 82.4278 85.022 82.4623 85.162C82.5128 85.162 82.5656 85.162 82.6184 85.1794C82.7045 85.4757 83.0157 86.3322 83.2591 86.4028C83.2763 86.6296 83.2935 86.8738 83.3108 87.1192C83.2591 87.1366 83.2063 87.1539 83.1546 87.1886C83.1902 87.2407 83.2235 87.294 83.2591 87.3646C83.1202 87.6609 83.1202 87.6609 82.9996 87.7488C83.0157 87.7824 83.034 87.8183 83.0685 87.8704C82.5828 88.7963 82.2361 89.5474 81.0742 89.6516C80.8319 89.8275 79.6367 89.8623 79.5161 89.5995C79.2543 89.5833 78.6309 89.5474 78.5436 89.2674C77.6423 88.9352 76.6722 88.4109 75.9454 87.8009C74.9913 87.4861 74.315 86.7164 73.3092 86.5243C73.2748 86.5775 73.2403 86.647 73.2231 86.7164C72.928 86.9444 72.9464 87.2072 72.6686 87.4502C72.3907 88.5174 71.9406 89.566 71.6812 90.6655C71.5767 90.7708 71.5066 91.0162 71.2299 91.3819C71.1255 92.0127 72.1312 93.9514 72.5469 94.3704C73.1186 94.3877 73.881 94.4919 74.3495 94.8426C74.9385 94.9294 75.5458 95.1748 75.9787 95.6111C76.0303 95.5937 76.0832 95.5937 76.1521 95.5937V95.9086C76.1876 95.8553 76.2393 95.8206 76.291 95.7847C76.3955 95.9768 76.4643 96.2407 76.6722 96.3449C76.6021 97.6898 76.3082 98.2674 75.4413 99.2801C75.1474 100.032 74.3495 99.368 73.8133 99.7338C72.8075 99.4722 71.7845 99 71.2127 98.0579H71.1082C70.8832 97.7951 70.6754 97.5498 70.4664 97.3067H70.3275C69.6007 98.1099 70.8143 98.9479 70.8143 99.7523C71.0393 99.8565 71.1255 99.9271 71.1599 100.206C71.2988 100.259 71.2988 100.259 71.6283 100.661C72.0796 100.853 72.2874 101.062 72.8592 101.203C73.5171 101.657 74.385 101.429 75.0085 101.814C75.0441 101.779 75.0774 101.743 75.1302 101.726C75.8398 101.954 77.5046 100.975 77.748 100.346C78.996 99.4548 78.9604 97.0961 78.2669 95.8727C78.2853 95.8032 78.3014 95.7511 78.337 95.6979C78.2669 95.6111 78.2669 95.6111 78.0419 95.5231C77.7813 95.14 77.0545 93.9514 76.6021 93.9514C76.5688 93.8808 76.5505 93.8113 76.5332 93.7419H76.3955C76.3266 93.6354 76.2738 93.5312 76.2209 93.4433C75.9454 93.4433 75.4769 93.2697 75.3713 93.0428C75.3024 93.0255 75.2508 93.0069 75.1991 93.0069C75.1819 92.9375 75.1646 92.8669 75.1474 92.8148C75.0774 92.8148 75.0085 92.8148 74.9385 92.8333C74.9052 92.7627 74.8696 92.6933 74.8523 92.6412C74.6273 92.6053 74.4367 92.4305 74.2278 92.4305C73.8293 91.8889 74.315 90.3866 74.5056 89.8275C74.6089 89.8437 74.7146 89.8623 74.8351 89.8981C75.0441 90.2465 75.4942 90.2292 75.7881 90.5255C76.4643 90.7535 77.0706 91.3125 77.7652 91.4525C77.7652 91.5046 77.7652 91.5567 77.7813 91.6262C77.9902 91.662 78.2325 91.6099 78.3014 91.8542C78.3886 91.8368 78.4759 91.8194 78.5792 91.8194C79.6195 92.0463 80.538 92.1863 81.6126 92.2211C82.0983 91.4873 83.2419 91.243 83.7103 90.456C84.4026 90.1944 84.8022 89.3217 85.5462 89.0231C85.6162 88.691 86.1536 88.4109 86.413 88.1493C86.6036 87.3287 88.0434 86.9965 88.3029 86.2106C88.389 86.14 88.4763 86.0706 88.5635 86.0185C88.5119 85.8264 90.4867 83.7812 90.7129 83.3275C91.0068 82.978 91.3535 82.7326 91.5097 82.2963C91.8048 82.0868 91.7875 81.9641 91.9437 81.6678C92.2376 81.5972 92.9483 80.2535 93.0516 79.9201C93.4856 79.7268 93.3295 79.1343 93.6946 78.8889C93.9541 78.2257 94.3697 77.7014 94.5603 77.0023C94.9932 76.4259 94.9932 75.3426 95.5305 74.8009Z" fill="white"/>
<path d="M50.0134 99.4028C49.2166 98.5984 48.8009 98.8264 47.9697 99.316C47.9513 99.4722 47.9341 99.5775 47.8124 99.7002C47.8124 100.381 48.0902 100.678 48.4898 101.167C48.8182 101.149 49.1477 101.133 49.476 101.133C49.7022 100.94 50.344 100.137 50.0662 99.8565C50.049 99.7002 50.0317 99.5417 50.0134 99.4028Z" fill="white"/>
<path d="M67.1047 98.3021C67.1047 98.3541 67.1047 98.4062 67.1219 98.4757C66.7407 98.8079 67.0703 99.5775 67.5031 99.7164V99.8391C67.5731 99.8565 67.642 99.8738 67.7293 99.8923C68.6467 99.8044 68.7339 99.3322 68.7339 98.4236C68.2494 97.8125 67.7293 97.8819 67.1047 98.3021Z" fill="white"/>
<path d="M57.7278 99.1401H57.7967V99.0706H57.7278V99.1401Z" fill="white"/>
<path d="M44.6228 97.0266C44.5895 96.9734 44.5539 96.9213 44.5378 96.8866C44.3116 96.8333 44.1038 96.7986 43.896 96.765C43.4103 96.4664 41.5032 95.9433 40.9315 96.0833C40.7753 95.9768 40.6192 95.89 40.4802 95.8032C39.874 95.7164 38.7833 94.2662 38.3665 95.1042C38.2976 95.1042 38.2276 95.1215 38.1759 95.14C38.1759 96.0486 39.9601 96.765 40.6708 96.9386C40.9487 97.3588 42.5446 97.044 43.0808 97.5856H43.3931C43.4275 97.6377 43.462 97.6898 43.4976 97.7593C43.9304 97.8657 44.7801 98.0741 45.0223 98.441C45.3335 98.3889 45.3335 98.3889 45.4552 98.4236C45.8375 98.2315 46.0453 97.7593 45.8536 97.3588C45.4391 97.2014 45.0912 97.0266 44.6228 97.0266Z" fill="white"/>
<path d="M57.7278 98.3716H57.7967V98.3194H57.7278V98.3716Z" fill="white"/>
<path d="M64.6258 93.059H64.4881C64.418 92.9734 64.3652 92.8854 64.3135 92.7975C64.2619 92.7975 64.2102 92.8148 64.1585 92.8333C64.1413 92.7627 64.123 92.6933 64.1057 92.6412C63.6729 92.5012 63.7418 92.3264 63.534 91.9942C63.4122 91.9769 63.2917 91.9583 63.17 91.9583C63.0311 91.522 62.1814 91.2778 61.9736 90.8403C61.922 90.8056 61.8703 90.7882 61.8347 90.7708C61.5224 91.191 61.1424 91.522 60.7084 91.7662C60.6911 91.8368 60.6751 91.9063 60.6751 91.9942C59.9288 92.5347 59.3926 93.287 58.6624 93.8461C58.3512 93.8634 57.5027 93.6713 57.381 93.794C57.0687 93.7419 56.5325 93.8113 56.2891 93.6713C55.2145 93.8461 53.9837 93.3218 52.9595 93.566C52.8918 93.5139 52.8918 93.5139 51.6254 93.4433C51.5737 93.4792 51.5404 93.5312 51.5048 93.5833C51.8515 93.9676 52.2155 94.4572 52.6139 94.7546C52.7689 95.0868 53.0996 95.2083 53.2729 95.5579C53.134 95.5231 52.9951 95.5058 52.8562 95.4884C52.8401 95.5058 52.8229 95.5231 52.8045 95.5579C51.9732 95.4537 50.7241 95.7326 50.0134 95.2616C49.4071 95.1748 48.8009 94.9815 48.2119 94.8079C48.2291 94.6146 48.2464 94.4225 48.2808 94.2315C48.4542 94.1262 48.9743 92.5532 48.9743 92.2731C49.4427 91.522 49.3911 90.3681 49.91 89.6701C49.7194 89.059 51.0019 86.7002 51.2798 85.7384C51.6437 85.4942 51.6609 84.603 52.0938 84.2361C52.7012 84.4271 53.2557 84.7257 53.8608 84.8125C53.7758 84.4271 53.4635 84.1308 53.4991 83.6586C53.1857 83.1354 53.2557 82.1748 52.8562 81.772C52.8562 81.4398 52.6323 81.0035 52.5622 80.6539C52.5094 80.6539 52.475 80.6539 52.4417 80.6713C52.2155 81.0035 52.1282 81.3183 51.8159 81.6331C51.7999 81.772 51.8159 81.912 51.677 81.9815C51.7482 82.1215 51.3142 82.4537 51.3142 82.7326C50.7585 83.2928 50.4646 84.2361 49.9628 84.8993C49.8572 85.162 49.7378 85.6516 49.4944 85.7731C49.4427 86.0185 49.321 86.1238 49.2521 86.368C48.8181 86.8044 48.6976 87.5208 48.2808 87.9745C48.1602 88.6389 47.3451 89.3218 47.2406 90.0382C46.5482 90.5602 46.3048 91.8021 45.7331 92.5012C45.802 92.6412 45.4035 92.9028 45.4552 93.1655C45.2129 93.6713 44.2255 93.2697 43.8088 93.1655C43.6182 92.8669 43.0636 93.1123 42.8902 92.7627C41.9545 92.2569 41.1565 91.7662 40.4114 90.8924C40.3425 90.8762 40.2897 90.8588 40.238 90.8403V90.7535H40.4642C40.4642 90.6655 40.4642 90.5787 40.4803 90.5081C40.6031 90.4213 40.6031 90.4213 40.8098 90.4039C40.9843 89.6516 42.1095 89.5127 42.2829 88.7616C42.439 88.6215 42.5963 88.4109 42.8202 88.4109C42.8902 88.0104 43.3931 87.7824 43.7054 87.5023C44.1727 86.5417 44.6928 87.2766 45.2818 87.5208C45.7147 87.0845 45.0568 84.2014 45.0224 83.2928C44.8662 83.4664 44.6056 83.8171 44.3633 83.8171C43.9477 84.4271 43.462 84.8831 42.8558 85.3021C42.8558 85.4942 42.7169 85.6169 42.5963 85.7558C42.0245 86.0359 41.7467 86.8924 41.1221 87.1007C40.7754 87.8009 39.9085 88.2373 39.4757 88.9016C38.9555 89.1111 38.8867 89.6875 38.3838 89.8623C38.3838 89.8796 38.3838 89.8981 38.4021 89.9317C38.2977 89.9502 38.2092 89.8437 38.037 89.7755C38.0026 89.6701 37.967 89.5833 37.9337 89.4954H37.7764C37.4297 89.0058 36.8579 88.6042 36.425 88.1667C36.8062 87.9745 37.378 87.1366 37.7948 87.1366C37.8108 87.0671 37.8292 86.9965 37.8464 86.9271C38.7133 86.4028 39.2851 85.4062 40.2208 85.0393C40.3081 84.5856 40.8098 84.2893 41.2438 84.184C41.5033 84.4977 42.2151 84.8472 42.5779 85.0579C42.5963 85.0394 42.6308 85.022 42.6652 85.0058C42.6124 84.7778 42.6824 84.5856 42.6124 84.3588C42.648 83.9572 42.9419 80.8287 42.7352 80.6192C42.4057 80.8993 42.1451 81.1956 41.7295 81.3183C41.6594 81.5625 41.4172 81.7025 41.2094 81.86C41.1749 81.8241 41.1393 81.8079 41.1221 81.7893C40.7754 82.1921 40.238 82.5764 39.7696 82.838C39.2495 83.537 37.6914 84.0972 37.448 84.8299C37.1702 84.9699 36.8935 85.11 36.6156 85.2674C36.5467 85.4942 36.1655 85.7037 35.9922 85.9479C35.6627 86.0185 35.4365 86.316 35.1942 86.5417C34.9347 86.3843 34.813 86.088 34.5352 85.9306C34.5352 85.8785 34.5535 85.8264 34.5708 85.7917C34.1896 85.6516 34.0334 85.3542 33.7039 85.25C33.6167 85.0393 33.5822 84.9873 33.4261 84.8299C33.7556 84.3935 34.5352 84.2708 34.9864 83.8866C35.1253 83.9213 35.4548 83.6065 35.7327 83.6065C35.7499 83.537 35.766 83.4664 35.8016 83.4143H36.0082C36.0438 83.3449 36.0783 83.2928 36.1311 83.2407C36.9451 82.9954 37.7764 82.419 38.5227 81.9815C38.9383 82.0521 39.2162 82.5937 39.7007 82.5937C39.8741 82.0162 39.9269 81.4051 40.1864 80.8634C40.2736 80.287 40.5503 79.1169 41.0004 78.7662C41.0004 78.2604 41.3299 77.8935 41.4688 77.4039C41.5389 77.3692 41.5389 77.3692 41.8328 77.4919C41.8156 77.544 41.8156 77.5961 41.8156 77.6667H41.9717C42.2829 78.1898 43.237 78.522 43.7215 78.941C44.0694 78.9768 44.2956 79.0995 44.5539 79.309C44.6056 79.2731 44.6584 79.2569 44.7273 79.2384C44.8134 79.3264 44.8134 79.3264 44.849 79.5012C44.9362 79.4826 45.0224 79.4664 45.1268 79.4664C45.1268 79.5012 45.1429 79.5347 45.1613 79.588C45.7331 79.4664 46.2187 79.3438 46.5827 78.8368C47.6045 78.4699 47.1889 76.2674 46.7205 75.691C45.2302 75.7616 44.4839 76.2674 43.8777 77.7014C43.5493 77.8056 43.1497 77.4039 42.9419 77.2118C42.0762 76.8623 41.4172 76.2153 41.5205 75.2546C41.989 74.9051 42.2829 74.0671 42.7869 73.6481C42.7352 72.8785 42.6997 72.162 42.7169 71.375H41.9373C41.7295 71.6551 41.9545 71.8993 41.989 72.25C41.9189 72.8252 41.7811 74.4167 40.966 74.5741C40.7581 74.3113 40.6192 74.0498 40.3597 73.787C40.3953 73.7002 40.4286 73.6123 40.4803 73.5417C40.447 73.4722 40.4286 73.4028 40.4114 73.3507C40.4286 72.8437 40.3081 70.8692 40.7065 70.6065C40.8615 70.2407 40.8971 70.1528 41.2438 69.978C41.261 69.6458 41.2955 69.3322 41.3299 69.0174C41.1221 69.0347 40.827 69.1748 40.6892 69.0347C40.3597 69.4363 39.6846 69.5579 39.1978 69.8565C39.1645 69.838 39.1289 69.8206 39.0945 69.8044C39.0589 69.8565 39.0428 69.9259 39.0256 69.9965C38.9555 69.978 38.8867 69.978 38.8166 69.978C38.7994 70.0127 38.7833 70.0648 38.765 70.1181L28.6899 73.9595L28.6704 74.1493L25.373 75.191C25.497 76.0174 25.7197 76.64 26.3374 77.2639C26.8219 76.9155 27.4809 76.7049 28.0367 76.4954L37.7948 71.6725C38.1759 71.5336 38.176 71.5336 38.4021 71.5509C38.5055 71.9525 38.5055 71.9525 38.9739 72.9132C39.0072 72.9132 39.0428 72.9317 39.0945 72.9479V73.1759C39.3884 73.2639 39.7696 74.4514 40.0819 74.765C40.0991 74.8356 40.1175 74.9225 40.1347 75.0104C40.6548 75.3947 40.827 76.5648 41.3483 76.7396C41.3655 76.897 41.3816 77.0718 41.4 77.2477C41.2266 77.3518 41.0532 77.456 40.8971 77.5787C40.8798 77.6493 40.8615 77.7361 40.8615 77.8241C40.4286 77.8241 40.3081 78.5046 39.9085 78.5741C39.788 78.9768 39.2334 79.3438 38.8522 79.4664C38.7833 79.6748 37.7948 80.4792 37.587 80.5139C37.5686 80.5671 37.5686 80.6192 37.5686 80.6713C37.0657 80.7419 36.8751 81.0556 36.4422 81.1956C36.425 81.2477 36.4078 81.2998 36.4078 81.3704C36.3033 81.3704 36.2172 81.3704 36.1311 81.3877C36.0783 81.5625 34.4835 82.3137 34.2412 82.3137C34.0151 82.4884 33.8589 82.5937 33.5822 82.6285C32.3514 83.2049 30.1332 84.0613 28.729 83.9039C28.6945 83.9572 28.6945 83.9572 27.7416 83.9907C27.6715 83.9213 25.7656 83.4664 25.6095 83.5185C25.5911 83.4664 25.575 83.4143 25.575 83.3808C25.4878 83.3981 25.4189 83.4143 25.3488 83.4329C25.071 83.1528 24.6381 83.0127 24.2914 82.9421C24.2041 82.6806 23.0962 82.2268 22.8367 82.0868C22.1949 82.0868 21.9871 81.022 21.4153 80.8113C21.4153 80.5139 20.7379 79.3785 20.5301 79.4491C20.514 79.3437 20.514 79.2569 20.514 79.169C20.4623 79.1505 20.4084 79.1343 20.3751 79.1169C20.3395 79.0463 20.3234 78.9942 20.305 78.941H20.2017C20.1328 78.8021 19.8194 78.2083 19.8722 78.0324C19.8033 77.9977 19.7332 77.9641 19.6804 77.9456C19.6804 77.684 19.3004 76.7234 19.1087 76.5301C18.9881 75.831 18.9881 75.831 18.8664 75.4653C18.8319 74.4167 18.5725 72.8958 19.057 71.8993C19.0053 71.0972 19.5082 70.1366 19.7677 69.4016C19.9422 69.3148 20.1489 68.7199 20.2017 68.5278C20.5657 67.9861 21.1374 67.4097 21.4153 66.8333C21.9526 66.5706 22.4555 66.0463 22.8011 65.5741C23.0445 65.3831 23.0445 65.3831 23.3384 65.2778C23.3384 65.2257 23.3384 65.1725 23.3557 65.1204H23.4774C23.4774 66.9028 23.8941 68.6319 24.0664 70.4329C24.2397 70.6065 24.3086 70.9745 24.3442 71.2188C24.6599 71.4363 24.9286 71.4942 25.2857 71.4988L25.3362 71.4907C25.3707 71.4236 25.42 71.3738 25.4705 71.3229C25.6026 71.3414 25.7128 71.3738 25.8104 71.4213L26.8793 71.265C27.4454 71.118 28.4867 70.9907 28.799 70.6771C29.7003 70.8345 30.7405 69.978 31.6235 70.1528C31.6579 70.0822 31.7107 70.0301 31.7624 69.978C32.2481 70.0486 33.0965 69.6643 33.5822 69.5764C34.0151 69.2442 34.6741 69.3843 35.1253 69.0868C35.3331 69.1921 35.5065 69.0174 35.7327 68.9294C35.766 68.9479 35.8016 68.9641 35.8532 69C36.2517 68.8079 36.5467 68.7373 36.9968 68.7025C37.1702 68.5278 37.4825 68.493 37.7075 68.4583C37.7592 68.5104 37.8108 68.5799 37.882 68.6493C37.8464 68.7025 37.8292 68.7558 37.8108 68.8241C38.0026 69.0868 38.0542 69.5764 38.1059 69.89C38.5055 70.0822 40.4114 67.934 40.4114 67.6192C40.5859 67.5312 40.7409 67.3229 40.6892 67.1308C39.9958 67.0613 39.0589 67.0613 38.4182 66.8854C37.967 67.3391 36.7189 66.8854 36.1472 67.2697L35.7327 67.3229C35.5582 67.0069 35.2298 66.8333 35.1586 66.4664C35.2642 66.309 35.3848 66.1505 35.5065 66.0127C35.6271 65.6447 35.7327 64.4398 35.5065 64.2118C35.0909 64.2118 34.4502 64.3171 34.0851 64.1424C33.9462 64.2118 33.8245 64.1944 33.7039 64.1076V63.2512C34.2929 62.5174 34.2929 62.5174 34.2929 62.4132C33.635 62.0289 33.7039 60.456 33.7039 59.7731C32.9415 60.3519 33.2527 61.5382 33.1838 62.4294C32.5248 63.2859 32.3858 64.9456 32.7509 65.9595C32.7154 66.0984 32.6993 66.2569 32.6809 66.4132C32.8899 66.4826 32.8899 66.4826 33.0965 66.6586C33.4433 66.7106 34.0851 66.7454 34.0851 67.2523C33.9634 67.3056 33.9634 67.3055 33.7556 67.5312C32.8026 67.5312 31.364 67.934 30.4799 68.3542C30.3238 68.3356 30.0815 68.2315 29.9942 68.4062C29.6303 68.4583 29.2835 68.5104 28.9379 68.5799C28.365 68.9641 27.3248 68.9479 26.6497 69.0347C25.784 68.7199 26.3018 67.7593 25.9206 67.1829C25.939 66.8854 25.939 66.8854 25.73 64.1771C25.8357 64.037 25.8357 63.7234 25.6967 63.5833C25.7484 63.5139 25.7484 62.8495 25.8173 62.7616C25.5578 62.4294 25.7128 60.1759 25.8173 60.0718C25.784 59.4769 25.8517 57.3808 26.0951 57.0486C26.1112 56.7685 26.0768 56.4537 26.1812 56.228H26.3546C26.3718 56.2801 26.3891 56.3322 26.4235 56.3843C27.117 56.4537 27.9138 57.2766 28.4867 57.2766C28.5212 57.3287 28.5556 57.3981 28.5912 57.4676C28.6245 57.4329 28.6601 57.4155 28.6945 57.3981C29.6487 57.625 30.6705 58.7072 31.6751 58.8657C31.7268 58.9178 31.7808 58.9711 31.8324 59.0405C32.108 58.7604 31.8841 58.0093 32.0563 57.6424C32.023 56.1574 32.2125 54.6887 32.2125 53.2222C32.2997 53.0463 32.2308 52.8727 32.2125 52.6806C32.3698 52.3137 32.5075 50.5139 32.3342 50.1632C32.2125 50.2859 31.953 50.1817 31.7808 50.1817C31.2767 50.4606 30.7738 50.7396 30.2893 51.037C29.3191 51.125 28.0699 52.3299 27.117 52.1204C27.1354 51.8414 27.0998 51.7199 27.2548 51.4919C27.1698 51.2998 27.2215 51.1076 27.2387 50.9155C27.2731 50.897 27.3076 50.8808 27.3592 50.8634C27.4293 50.6192 27.4293 50.6192 27.4121 50.4086C27.7416 49.831 27.706 48.8704 28.1744 48.4005C28.14 48.3461 28.1228 48.294 28.1044 48.2419C28.3478 47.7882 28.3478 47.7882 28.5728 47.1933C29.0585 47.316 29.5442 47.3519 29.907 47.7176C29.9598 47.7002 30.0298 47.6817 30.0987 47.6655C31.0689 47.9444 32.1264 48.434 33.1666 48.6088C33.3055 48.7488 34.2757 49.081 34.5019 49.081C35.177 49.4653 36.6156 49.4132 37.1357 49.9363C37.3952 49.9363 37.3952 49.9549 37.587 50.0764C38.3321 50.1991 39.0772 50.3553 39.788 50.6192C39.9441 52.4525 39.9441 52.4525 40.0118 52.522C41.0188 51.9456 42.2668 52.0509 43.2887 51.5799C43.6882 51.5093 43.8088 51.4039 43.9305 51.4039C43.9661 51.125 43.601 51.0556 43.4104 51.0035V50.8449C43.1681 50.8102 42.5263 50.5312 42.4746 50.3553C42.2151 50.4086 41.9373 50.2859 41.7984 50.059C41.7111 50.0417 41.6434 50.0243 41.5722 50.0243C41.5561 49.9711 41.5389 49.919 41.5205 49.8843C41.261 49.7975 40.9315 49.7627 40.7754 49.5174C40.6548 49.5 40.5342 49.5 40.4114 49.5C40.3953 49.4306 40.3769 49.36 40.3597 49.3079C39.7696 49.3079 39.3367 48.7836 38.7133 48.7141C38.4182 48.5567 37.4997 47.9803 37.2046 47.9803C37.1702 47.9271 37.1357 47.875 37.1013 47.8403C37.0657 47.8576 37.0324 47.875 37.014 47.9097C36.564 47.7176 36.5639 47.7176 36.3561 47.544C35.9566 47.5775 34.4318 46.8275 34.2412 46.6343C33.4433 46.6343 32.767 45.8125 31.9886 45.8125C31.9702 45.7604 31.9702 45.7083 31.9702 45.6736C31.6062 45.5868 31.4157 45.5868 31.2251 45.2546C31.1734 45.2894 31.1217 45.3241 31.0861 45.3588C31.0517 45.3067 31.0172 45.2708 31 45.2361C30.8611 45.2187 30.7405 45.2014 30.6188 45.184C30.3927 44.8866 30.0631 44.9745 29.907 44.6424C29.8392 44.6424 29.7692 44.6424 29.7003 44.6597C29.6131 43.4375 30.6533 42.6331 30.8967 41.5324C31.2767 41.6551 32.8026 41.0428 33.2527 41.0255C33.2711 40.9734 33.2883 40.9387 33.3055 40.9028C33.5822 40.9387 34.0334 40.728 34.3274 40.6586C34.4318 39.9595 34.4663 39.0683 34.4663 38.3692C34.7441 37.897 34.224 36.8148 35.0909 36.8148C35.0909 36.7442 35.0909 36.6921 35.1069 36.64C35.6098 36.2211 36.0783 35.2419 36.719 35.0324C37.3952 34.3519 37.2391 34.2813 38.0726 34.6655C38.0726 34.7361 38.0887 34.8056 38.1059 34.8935C38.3321 34.9618 38.4021 35.1898 38.6444 35.2604C38.8683 35.9757 40.0118 36.4826 40.3081 37.1817C40.6892 37.375 40.9315 37.8449 41.3138 38.1076C41.4516 38.8414 42.3357 39.2083 42.5091 39.9062C42.8386 40.3785 43.3403 41.0428 43.5137 41.5845C43.5849 41.5845 43.6538 41.5845 43.7399 41.603C43.8444 41.9167 44.051 42.5116 44.3633 42.6516C44.3461 42.7037 44.3461 42.7558 44.3461 42.8079C44.3805 42.8252 44.4334 42.8426 44.4839 42.8773C44.5378 43.2442 44.5378 43.2442 44.6056 43.3322C44.3289 43.4375 43.6182 43.7338 43.307 43.7338C43.307 44.2928 42.9419 44.8519 42.9075 45.4468C42.6652 46.39 42.6308 46.9132 42.7685 47.875H42.8902C42.9258 47.6817 42.9258 47.6817 43.0808 47.5255C43.0808 47.1933 43.7915 46.4954 44.0694 46.2847C44.051 46.25 44.051 46.2153 44.051 46.1794C44.4678 45.9711 44.7273 45.5868 45.2302 45.3935C45.6814 45.4815 46.1487 45.5683 46.6171 45.6736C46.6355 45.7083 46.6516 45.7431 46.6688 45.7951C46.9811 45.9005 47.4139 46.0046 47.6734 46.2153C47.6918 46.1632 47.7251 46.1111 47.7607 46.0752C47.9869 46.0926 47.9869 46.0926 48.2636 46.1979C47.7951 44.6597 46.9627 44.066 45.5941 43.4722C45.3174 42.9479 45.1785 42.0741 44.7617 41.7072C44.4334 40.5706 43.7743 39.6285 43.1853 38.5961C43.1164 38.5278 43.0464 38.4572 42.9775 38.3877C42.6997 37.8113 41.9373 37.059 41.7984 36.5012C41.7467 36.4826 41.7111 36.4653 41.6767 36.4479C41.625 36.1678 41.5205 36.0984 41.3138 35.9225C41.0704 35.3646 40.3597 34.8935 40.238 34.2812C39.5618 33.5995 38.7305 32.4815 38.4021 31.6076C38.3321 31.5903 38.2632 31.5729 38.2092 31.5556C38.1587 31.4329 38.1059 31.3102 38.0542 31.1887C37.9153 31.1539 37.4136 31.5903 37.1702 31.6262C37.1529 31.6944 37.1357 31.765 37.1185 31.8345C37.0841 31.7998 37.0485 31.7824 37.0324 31.765C36.9451 31.8519 36.9451 31.8519 36.6673 31.8866C36.3906 32.2546 36.1127 32.5509 35.6971 32.7604C35.5938 32.919 35.5065 33.1632 35.2987 33.1632C34.952 33.5475 34.5019 33.7396 34.2585 34.1759C33.6695 34.5255 33.2883 35.0139 32.8899 35.61C32.7337 35.6968 30.7566 35.941 30.6533 35.8356C30.566 35.9062 29.7003 35.9062 29.1618 35.9757C29.1285 36.6921 29.1102 37.4086 29.0929 38.1435C29.2491 38.3519 29.1802 39.7326 29.0413 40.0127C29.0757 40.0475 29.1285 40.0822 29.1802 40.1169C29.1446 40.1863 29.1285 40.2569 29.1102 40.3264C29.1285 40.3438 29.1446 40.3785 29.1802 40.4144C29.1285 40.5185 29.0929 40.6412 29.0585 40.7627C29.0057 40.7627 28.9712 40.7812 28.9379 40.7986C28.9024 40.9201 28.8679 41.0428 28.8335 41.1655C28.7818 41.1655 28.729 41.1655 28.6773 41.1829C28.6429 41.4456 28.5212 41.7245 28.2789 41.8808C28.3306 42.0046 27.8977 42.441 27.8461 42.6852C27.7232 42.7211 27.6543 42.9294 27.551 42.9815V43.1574C26.7014 44.4329 26.2674 45.9005 25.6267 47.2812C25.5911 47.5081 25.5578 48.0324 25.3488 48.1377C25.3488 48.6782 24.9677 49.3426 24.8815 49.919C24.482 50.3218 24.7598 51.2998 24.3086 51.7535C24.2753 52.2604 24.1536 52.5926 24.0147 53.0822C23.8069 54.9688 23.3901 56.6296 23.3901 58.463C23.3384 58.4815 23.304 58.4988 23.2695 58.515C23.3557 58.831 23.3212 59.4248 23.2695 59.7569C23.2512 61.2766 23.2512 62.8495 23.4085 64.3877C23.2351 64.456 23.2351 64.456 22.7667 64.9109C22.7311 64.8935 22.6978 64.8935 22.6794 64.8935C22.4199 65.2257 21.5703 65.9942 21.2235 65.9942C21.0674 66.309 20.4784 66.728 20.1489 66.868C20.1144 66.9907 20.08 67.1123 20.0455 67.2523C19.9939 67.2523 19.9422 67.2523 19.8894 67.2697C20.0099 67.8993 18.7791 68.5451 18.7791 69.0347C18.5725 69.3843 18.3635 69.7338 18.1557 70.0822C18.1212 70.5544 18.0868 71.3067 17.7745 71.6204C17.8262 71.9525 17.6356 72.3194 17.7745 72.5995C17.6872 72.7731 17.7412 72.8611 17.7745 73.0359C17.5839 73.456 17.6356 74.5741 17.8445 75.0104C17.7929 75.0451 17.7412 75.081 17.6872 75.1146C17.9318 75.2731 17.8445 75.4653 17.8262 75.691C18.0684 76.1817 18.1396 76.897 18.1396 77.4398C18.1557 77.4398 18.1913 77.4398 18.2257 77.456C18.2429 77.6134 18.259 77.772 18.2946 77.9456C18.3291 77.9641 18.3819 77.9803 18.4335 77.9977C18.4508 78.2083 18.4852 78.4178 18.5197 78.6262C18.5725 78.662 18.6241 78.6968 18.693 78.75C18.7275 79.0995 19.0053 79.4491 18.9364 79.7627C19.0409 79.8507 19.0409 79.8507 19.5082 80.7234C19.4738 80.7419 19.4554 80.7766 19.4382 80.8113C20.0616 81.5104 20.4267 82.3669 21.2063 82.9606C21.2063 82.9954 21.2235 83.0301 21.2419 83.0822C21.7609 83.6944 22.6105 84.1134 23.2695 84.5336C24.0319 84.7431 24.8643 85.1458 25.5578 85.5289C25.575 85.4942 25.5911 85.4757 25.6267 85.4595C26.3374 85.5289 26.9608 85.8264 27.6899 85.7558C28.4695 85.9664 29.3008 85.5995 30.0815 85.6678C30.8094 85.2836 31.3468 85.3194 31.5902 86.228C31.9013 86.4201 32.7154 87.1725 32.7154 87.4861C32.9748 87.5382 33.201 87.6944 33.201 87.9745C33.3916 88.0625 33.5305 88.1146 33.5822 88.3067C33.8428 88.3067 34.7085 89.1458 34.7085 89.4259C34.7786 89.4433 34.8647 89.4595 34.952 89.4954C35.2298 89.8796 35.8693 90.0903 36.0438 90.544C36.6673 90.7882 37.1357 91.6262 37.8464 91.8194C37.8981 92.0648 37.967 92.081 38.2448 92.1169C38.4871 92.5012 38.9199 92.7812 39.3551 92.8669C39.8052 93.375 40.6548 93.5312 41.036 94.0382C41.0704 94.0208 41.1049 94.0208 41.1393 94.0208C41.1565 94.0741 41.1749 94.1262 41.2094 94.1782C41.5722 94.0903 41.7811 94.3357 42.0062 94.5625C42.0578 94.544 42.1095 94.544 42.1795 94.544C42.3357 94.7905 44.3633 95.5579 44.7801 95.7164C44.7801 95.7512 44.7973 95.7847 44.8134 95.838C44.9007 95.8206 44.9879 95.8032 45.0912 95.7847C45.6297 96.1354 46.7549 96.1528 47.1372 96.537C47.9341 96.537 48.7837 97.1134 49.5817 97.1134C49.8928 97.2361 50.5162 97.2188 50.7068 97.4109C51.0536 97.4109 51.3842 97.4456 51.7482 97.6551C51.7827 97.6192 51.8343 97.5856 51.886 97.5671C52.1282 97.7257 55.0239 98.1435 55.1272 98.0394C55.3695 98.2315 55.9941 98.0058 56.1674 98.3194C56.2375 98.3021 56.3236 98.2836 56.4097 98.2674C56.2375 97.8472 56.0457 97.5671 55.699 97.2361C55.5084 96.6586 54.7632 96.3623 54.7632 95.6979C54.8677 95.6632 55.1789 95.7326 55.2145 95.7847C55.4567 95.6458 57.3982 95.8206 57.6933 96.0127C58.3168 96.0486 58.9402 96.0833 59.5648 96.1169C60.38 96.5544 61.0207 97.375 61.8347 97.8299C61.9575 97.603 62.1814 97.3229 62.4765 97.3229C62.5626 96.9213 63.17 96.6586 63.17 96.3449C63.4122 96.4144 63.7245 95.7685 64.0541 95.6632C64.0713 95.5938 64.0885 95.5231 64.1057 95.4711C64.6603 95.2442 64.7636 94.6319 65.3193 94.4919C65.3894 94.2998 65.3894 94.2998 65.5616 94.0741C65.5099 93.8634 65.441 93.8287 65.4227 93.6539C65.1115 93.6192 64.7303 93.375 64.6258 93.059ZM46.4093 76.478C46.4438 77.2292 46.7905 77.9109 46.097 78.4352C45.872 78.522 45.647 78.61 45.4208 78.6968C45.3002 78.4699 45.074 78.3831 44.9362 78.1898C44.7457 77.0903 45.1096 76.2512 46.4093 76.478ZM28.4178 53.5185C28.4339 53.485 28.4523 53.4491 28.4695 53.4144C28.9712 53.4144 29.3364 52.9062 29.8392 52.9769C29.8392 53.5706 29.8392 54.1655 29.8553 54.7593C29.6131 55.1262 30.1148 55.1262 29.5442 55.213V55.1088C29.4225 55.0729 29.3008 55.0567 29.1974 55.0394V54.934C28.9896 54.8113 28.938 54.7407 28.6773 54.7407C28.365 54.2697 27.4465 54.4456 27.342 53.8148C27.6899 53.9907 28.0527 53.6412 28.4178 53.5185ZM30.7566 38.2998C30.9311 38.3519 31.1906 38.2998 31.3123 38.1771C32.5764 37.9514 32.5764 37.9514 33.0621 37.9155C33.0277 38.4398 33.0277 38.4398 32.906 38.772C32.9232 38.7894 32.9415 38.8241 32.9748 38.8588C32.767 39.191 32.8543 39.61 32.8543 39.978C32.4214 40.4144 31.3468 40.0995 30.6889 40.309C30.6349 40.2743 30.5832 40.2396 30.5499 40.2049C30.5316 39.662 30.4627 38.7014 30.7566 38.2998ZM27.1698 53.8148H26.9964C26.9792 53.7801 26.9608 53.7465 26.9436 53.728C26.8575 53.7106 26.7702 53.7106 26.7014 53.7106C26.683 53.5891 26.683 53.485 26.683 53.3785C26.8403 53.537 27.0998 53.6065 27.1698 53.8148ZM26.4235 53.4144C26.4407 53.4144 26.4763 53.4306 26.5108 53.4491C26.4763 53.4664 26.4407 53.5012 26.4235 53.537V53.4144ZM26.2501 53.1863H26.3546V53.2917H26.2501V53.1863ZM54.6771 95.7512H54.5554V95.6458H54.6771V95.7512ZM61.628 95.6979C61.6097 95.7685 61.6097 95.838 61.6097 95.9248H61.4891C61.1079 95.419 60.4317 94.9815 59.9288 94.6146V94.4919C60.31 94.1597 60.6751 93.4433 61.1251 93.3576C61.1424 93.2523 61.1952 92.9375 61.3858 92.9896C61.5764 93.6019 62.6671 93.8461 62.8405 94.544C62.4237 94.7199 62.1298 95.4884 61.628 95.6979Z" fill="white"/>
<path d="M76.0487 97.8472V97.9179H76.1004V97.8472H76.0487Z" fill="white"/>
<path d="M80.7803 97.3229C80.9892 97.3067 81.1971 97.3067 81.4221 97.3067C82.2706 96.625 81.9238 96.485 81.5943 95.5764C80.4863 95.1401 80.0696 96.6065 80.7803 97.3229Z" fill="white"/>
<path d="M54.5554 95.7512H54.6772V95.6458H54.5554V95.7512Z" fill="white"/>
<path d="M83.4141 93.4977C82.4956 93.794 82.4795 94.3183 82.7562 95.1748C82.8251 95.1748 82.8951 95.1921 82.964 95.2083C82.9468 95.2442 82.9295 95.2963 82.9295 95.3484C82.9996 95.2963 83.0857 95.2442 83.1718 95.1921C83.2418 95.2269 83.3291 95.2616 83.4141 95.3137C83.5197 95.2083 83.553 95.1921 83.7447 95.1921C83.9881 94.8947 83.9881 94.8947 84.212 94.4919C84.1087 93.9676 83.9526 93.6713 83.4141 93.4977Z" fill="white"/>
<path d="M57.9 92.6053V92.6748H57.9701V92.6053H57.9Z" fill="white"/>
<path d="M75.3025 90.5082V90.456H75.2347V90.5082H75.3025Z" fill="white"/>
<path d="M54.3131 85.581C54.2603 85.5637 54.2258 85.5463 54.1914 85.5289C53.2729 86.0185 52.4933 86.6817 52.4933 87.8704C52.4416 87.9225 52.406 87.9745 52.3716 88.0266H52.4577C52.5966 88.2546 52.6494 88.6215 52.7688 88.8831C52.8228 88.8831 52.8745 88.8831 52.9261 88.9016C53.1523 89.2859 53.5151 89.4433 53.8607 89.7049C55.3017 89.5995 55.6989 89.2859 56.5325 88.2546C56.653 87.3113 56.653 87.3113 56.7208 87.1725C56.5485 86.8565 56.3935 85.8438 55.9067 85.8438C55.3361 85.4595 55.0238 85.3542 54.3131 85.581ZM55.56 88.2025C55.3533 88.4109 54.9721 88.6042 54.6943 88.7431C54.6587 88.7095 54.6242 88.691 54.607 88.6736C54.5381 88.691 54.4865 88.7269 54.4348 88.7616C53.5507 88.5174 53.5335 88.3426 53.4818 87.4167C53.7413 86.5417 54.8677 85.9838 55.5083 86.787C55.5956 86.8218 55.6828 86.8565 55.769 86.9097C55.769 87.3461 55.6989 87.765 55.56 88.2025Z" fill="white"/>
<path d="M65.0598 85.5289C64.6786 85.6343 63.5339 85.9306 63.1527 85.8079C62.7015 86.2627 61.3674 85.7384 60.969 86.3322C60.7083 86.3681 59.4442 86.5417 59.2364 86.3322C58.9758 86.316 58.2122 86.3322 58.1089 86.1065C57.8483 86.2986 57.761 86.6296 57.5704 86.9097C57.606 86.9444 57.6405 86.9965 57.6933 87.0486C57.7277 87.0139 57.761 86.9965 57.8138 86.9792C58.0389 87.1192 58.3512 87.1539 58.6623 87.3113C58.8885 87.3646 59.3214 87.3461 59.4603 87.4861C60.0677 87.4687 61.4891 87.5208 61.8875 86.9965C62.8577 86.6817 64.3652 86.8044 65.441 86.8218C65.8038 86.6123 65.8555 86.1759 65.7866 85.7731C65.5799 85.5637 65.3021 85.6863 65.0598 85.5289Z" fill="white"/>
<path d="M73.9683 81.4583C74.1072 81.1262 74.2634 80.9676 74.609 80.9676C74.6273 80.794 74.6273 80.794 74.8524 80.2708H75.0602C75.0602 80.1991 75.0774 80.1296 75.0958 80.0775C75.7192 79.6053 75.5286 78.6261 76.3955 78.2604C76.5172 77.7176 77.4001 77.0718 77.7997 76.6875C77.7813 76.4433 77.7652 76.2153 77.748 75.9896C77.5735 75.8669 77.4001 75.7442 77.2451 75.6215C77.0706 75.7963 76.95 75.9711 76.6722 75.9711C76.4816 76.2338 76.1521 76.5833 76.1521 76.9317C76.066 76.9317 75.9971 76.9317 75.927 76.9502C75.9098 77.037 75.9098 77.1238 75.9098 77.2118C75.6676 77.3518 75.6675 77.3692 75.5619 77.6319C75.1474 77.772 75.1302 78.5579 74.6962 78.6968C74.6962 79.2049 73.8994 80.1134 73.6227 80.4618C72.9108 80.7593 72.408 81.1435 72.408 81.9468H72.5297V82.1215C73.0326 82.0521 73.4838 81.4583 73.9683 81.4583Z" fill="white"/>
<path d="M106.416 65.6447C106.382 65.5926 106.364 65.5405 106.346 65.4884C106.399 64.9641 106.243 62.6042 106.174 62.5521C105.932 61.4861 105.826 61.294 105.826 61.066C105.446 60.1238 104.821 59.3032 104.387 58.4109C103.99 57.9572 103.175 57.5023 103.001 56.9444C102.394 56.6458 101.926 56.1736 101.424 55.7199C101.077 55.7199 100.713 55.493 100.454 55.3009C100.245 55.3009 99.3618 55.2315 99.2918 55.1262C98.7717 55.0729 96.2768 54.515 95.7394 54.9167C95.7038 54.8808 95.6694 54.8646 95.6522 54.8472C94.1791 54.9873 92.6188 55.6678 91.3363 56.3495C91.3191 56.6296 91.3363 56.7859 91.5785 56.8565C91.6302 57.1701 91.7347 57.4849 92.0987 57.5729C92.0814 57.6424 92.0814 57.7118 92.0814 57.7986C92.6015 58.0093 92.9483 58.3588 93.295 58.7951C93.659 58.9352 93.7979 59.1979 94.1791 59.3032C94.2308 59.5116 94.5086 59.7037 94.7348 59.7037C94.7509 59.7569 94.7681 59.809 94.8025 59.8796C95.6522 60.2986 96.4674 61.1366 97.3859 61.2419C97.3687 61.1898 97.3503 61.1366 97.3331 61.1018C97.3331 59.5637 97.2814 57.9919 97.2114 56.4537C97.3503 56.4722 97.3503 56.4722 97.5237 56.3495C98.3032 56.4884 99.4307 56.1736 100.054 56.8044C100.106 56.7859 100.159 56.7685 100.229 56.7512C100.818 57.118 101.527 57.3102 101.91 57.9039C102.412 58.1493 103.036 58.9352 103.244 59.4421C103.262 59.4248 103.279 59.4248 103.314 59.4248C103.434 59.7917 103.834 60.1759 103.834 60.6296C103.886 60.6296 103.937 60.6296 103.99 60.6481C104.006 60.7882 104.042 60.9259 104.076 61.066C104.44 61.522 104.44 62.2025 104.735 62.7269C104.907 63.6007 105.705 66.4491 105.359 66.7986C105.55 67.3229 105.307 69.89 104.891 70.3102C105.064 70.765 104.632 71.2187 104.578 71.691C104.526 71.7072 104.475 71.7245 104.44 71.7431C104.44 72.9653 102.863 74.5382 102.342 75.5868C102.239 75.6389 102.135 75.691 102.049 75.7442C101.977 76.0231 101.58 76.3218 101.389 76.6354C101.112 76.897 100.696 77.0903 100.523 77.4398C100.454 77.4213 100.402 77.4039 100.349 77.3866C100.245 77.4919 100.159 77.5961 100.073 77.7176H99.9508C100.02 77.9641 99.5857 78.1204 99.4135 78.1898C99.3951 78.2257 99.3791 78.2778 99.3791 78.3299C99.3274 78.3299 99.2746 78.3299 99.2229 78.3484C99.1529 78.5741 97.9404 79.309 97.6281 79.309C97.6109 79.3611 97.5937 79.4143 97.5765 79.4826C97.317 79.5532 97.1264 79.7106 96.8485 79.7454C96.3801 80.2176 95.0104 80.3229 94.3869 80.4271C94.3869 80.8113 94.3352 81.1794 94.7164 81.3704C95.0976 81.1262 95.7038 81.0741 96.1539 80.8113C96.5879 80.8113 97.9921 80.2176 98.131 79.9201C99.3618 79.6586 100.28 78.2963 101.389 77.772C101.615 77.316 102.116 77.0544 102.394 76.6181H102.516C102.655 76.2512 103.07 75.8669 103.401 75.6215C103.764 74.8889 104.545 74.2593 104.77 73.456C104.821 73.4375 104.873 73.4201 104.943 73.4201C104.943 73.3322 104.943 73.2465 104.96 73.1586C105.29 73.0012 105.566 72.0914 105.705 71.7245C105.862 70.625 106.087 69.5579 106.277 68.4583C106.294 68.2477 106.243 66.8507 106.416 66.6748C106.382 66.6586 106.346 66.6412 106.329 66.6227C106.329 66.2905 106.277 65.9248 106.416 65.6447ZM95.1665 57.8345C95.0459 57.8518 94.9242 57.8692 94.8198 57.9039C94.6808 57.3287 93.8496 57.3102 93.7279 56.9086C94.2124 56.8218 94.6992 56.7338 95.1849 56.6458C95.2193 56.8738 95.1321 57.066 95.1665 57.8345Z" fill="white"/>
<path d="M104.475 74.3288H104.526V74.2592H104.475V74.3288Z" fill="white"/>
<path d="M99.1185 72.8079C99.2574 72.8252 99.4136 72.8611 99.5697 72.8958C99.5858 72.9317 99.6041 72.9838 99.6214 73.0359C100.523 72.8958 101.372 72.0579 100.801 71.0972C100.783 71.0266 100.783 70.9572 100.783 70.8866C100.662 70.8507 100.54 70.8345 100.435 70.8171C100.402 70.7465 100.384 70.6771 100.368 70.6065C100.176 70.6424 99.9853 70.5729 99.8476 70.4329C98.6684 70.9572 98.5467 71.7604 99.1185 72.8079Z" fill="white"/>
<path d="M99.8636 68.7893C100.124 68.8079 100.124 68.8079 100.263 68.912C100.368 68.8241 100.368 68.8241 100.732 68.7558C100.888 68.6157 101.043 68.4757 101.199 68.3356C101.511 67.2176 101.077 66.6227 100.003 66.5347C99.6041 66.728 99.3791 66.8507 99.1185 67.2176C99.1357 67.2523 99.1713 67.287 99.2046 67.3229C98.7545 67.7766 99.5525 68.5637 99.8636 68.7893Z" fill="white"/>
<path d="M89.101 67.5671V67.6193H89.1688V67.5671H89.101Z" fill="white"/>
<path d="M82.0811 64.3345V64.6482C81.6299 65.7662 82.0455 66.4132 82.9124 67.1308C82.9296 67.0949 82.964 67.0776 82.9996 67.0614C83.0685 67.1123 83.0685 67.1123 83.8493 67.1308C83.8653 67.147 83.8837 67.1829 83.9009 67.2176C85.0445 66.9028 85.5462 66.397 85.963 65.2431C85.8241 63.8796 85.4773 63.4607 84.1248 63.0938C82.9124 63.1806 82.8251 63.7755 82.0811 64.3345ZM82.809 64.8241C82.8435 64.8056 82.8952 64.7882 82.9468 64.7882V64.632C83.0857 64.5799 83.1202 64.456 83.5197 64.125C84.56 63.9502 84.8711 64.5799 84.7322 65.61C84.506 65.75 84.2304 66.0463 84.0215 66.257C83.9526 66.2384 83.8837 66.2211 83.8137 66.2049C83.7448 66.3611 83.4497 66.3264 83.2763 66.3449C83.1386 66.169 82.9124 66.0463 82.7735 65.8368C82.7735 65.4884 82.7918 65.1563 82.809 64.8241Z" fill="white"/>
<path d="M53.3073 49.5532C53.3073 49.8843 53.6024 50.897 53.4106 51.0903C53.7057 51.4919 53.4462 52.0509 53.6541 52.4699C53.429 52.9248 53.8607 53.5012 53.7057 53.9907C53.8274 54.1134 53.8091 54.6192 53.8091 54.7766C54.0869 55.1262 53.7413 55.7037 53.9664 55.9294C53.9319 56.2095 53.948 57.2928 54.1053 57.3623C54.2086 59.3715 54.9021 63.4606 52.1282 64.0197C51.6609 64.3345 48.0212 64.9456 47.8123 64.456C46.8421 64.2477 46.0097 63.5833 45.3001 62.919C45.2818 62.831 45.2818 62.7442 45.2818 62.6574C45.2301 62.6227 45.1956 62.5868 45.1612 62.5521C45.1612 62.3785 45.1784 62.2731 45.0567 62.1505C45.0223 61.6088 45.0051 61.0845 44.9878 60.5602C45.524 58.8657 46.0625 57.1887 46.6171 55.5116C46.5482 55.441 46.4965 55.3715 46.4437 55.3009H46.322C46.1142 55.7558 45.7502 56.1574 45.6813 56.6643C45.6296 56.6979 45.5941 56.7338 45.5596 56.7685C45.6113 57.0139 45.1268 57.9572 44.9878 58.0972C44.7272 59.5289 44.2955 60.8403 44.2415 62.3252C44.0693 63.0069 44.2955 63.8449 44.2415 64.544C44.4333 64.6319 44.5894 64.8576 44.5894 65.0683C44.7272 65.1562 44.78 65.243 44.8133 65.4363C45.0223 65.5405 45.369 65.7847 45.369 66.0463C45.4207 66.0463 45.4724 66.0463 45.524 66.0648C45.524 66.1169 45.524 66.169 45.5424 66.2211C45.6469 66.2384 45.7502 66.2569 45.8719 66.2905C45.8891 66.3449 45.9052 66.397 45.9236 66.4664C46.0097 66.4826 46.1142 66.5012 46.2186 66.5347C46.6687 66.8854 47.1544 66.7627 47.57 66.9734C47.6561 66.9375 47.7434 66.9213 47.8479 66.9028C47.8639 66.9375 47.8823 66.9907 47.9168 67.0428C48.7319 67.0255 50.3256 67.1829 51.0202 66.8333C51.592 66.8333 53.0823 66.309 53.3429 65.9062C54.1569 65.5046 54.9193 64.2824 55.2144 63.4259C55.2661 63.059 55.2661 63.059 55.3177 59.0926C55.2661 59.0752 55.2316 59.0579 55.1972 59.0405C55.1788 58.3229 55.1627 57.6065 55.1627 56.89C55.0755 56.228 54.9882 55.5636 55.041 54.8993C54.8849 54.794 54.5726 50.4433 54.5726 50.3032C54.5209 50.2685 54.5209 49.8484 54.4004 49.2384C54.452 48.7141 54.6587 48.4861 55.1099 48.2245C55.56 47.7697 55.3878 46.5474 55.2661 45.9352C55.1271 45.7604 54.9021 45.691 54.6242 45.4641C54.1053 45.3414 53.7413 44.6597 53.1339 44.6597C53.1339 45.0104 52.84 46.3021 52.9778 46.4433C52.9594 46.5995 52.9594 46.5995 52.8917 46.6875C52.9078 46.7211 52.9261 46.7558 52.9594 46.7917C52.7355 47.2639 52.995 49.2384 53.3073 49.5532Z" fill="white"/>
<path d="M66.9658 60.5255C66.8441 61.0324 67.3998 61.9225 67.1564 62.4132C67.2608 62.5174 67.2953 63.147 67.2953 63.338C68.3872 63.478 69.7041 63.4607 70.8144 63.4607C71.2989 63.6702 72.8764 63.5313 73.3265 63.5139C73.6044 63.9317 75.6848 63.3553 76.1877 63.757C76.3955 63.5475 77.2268 63.757 77.4874 63.8102C78.337 63.7234 79.3772 63.7408 80.2085 63.8449C80.1212 63.0764 80.3474 62.2211 80.4163 61.4526C80.243 61.1725 79.8101 60.6817 79.4622 60.6817C79.4461 60.6123 79.4289 60.5428 79.4105 60.4908C79.3589 60.4734 79.3233 60.456 79.29 60.4387V60.2801C79.0121 60.228 78.9961 60.1759 78.8215 59.9491C78.2854 59.4769 78.0419 59.3195 77.678 58.7431C77.2612 58.5336 77.0706 58.0787 76.6561 57.8345C76.43 57.3808 75.4242 56.2616 74.9213 56.0695C74.2806 55.1956 72.2358 55.3195 71.3345 55.3009C71.0738 55.9479 70.6926 56.9086 70.207 57.3982C70.3815 57.4329 70.641 57.3808 70.7271 57.5729C70.7443 57.5382 70.7627 57.5208 70.796 57.5023C71.0394 57.5208 71.2828 57.5382 71.5239 57.5544C71.5423 57.5729 71.5584 57.6065 71.5767 57.6424C72.4264 57.6424 75.3553 59.1632 75.5619 59.8252C76.0488 59.9653 76.8284 60.6123 76.2566 61.1192C76.0304 60.9618 74.4012 60.9618 73.8994 61.0324C73.8133 60.9618 73.8133 60.9618 72.8764 60.8924C72.4952 61.0498 70.8477 60.8403 70.3631 60.7697H68.595C68.5778 60.6817 68.5605 60.5961 68.5605 60.5081C68.1265 59.1794 68.0416 57.7651 67.7454 56.4201C67.7454 55.8958 67.1736 52.9063 67.4158 52.662L67.2953 52.5405C67.1736 50.5486 67.1736 50.5486 67.1219 50.3739C67.1403 50.3391 67.1564 50.3032 67.1919 50.2859C67.0702 50.1285 67.0346 49.2732 67.1219 49.081C66.983 48.6262 67.0014 48.1539 67.0014 47.6817C66.9313 47.2813 66.8624 46.8796 66.8108 46.4954C66.6718 46.7558 66.6718 46.7558 66.4812 46.897C66.4812 46.9132 66.1001 47.7697 66.0817 47.9097C66.2034 48.7836 66.5846 50.4954 66.3067 51.3519C66.6202 52.1563 66.2206 53.3785 66.2551 54.287C66.0128 55.1262 65.7866 55.9826 65.5616 56.838C65.3894 57.0301 65.3894 57.0301 65.146 57.5382C64.9554 57.7651 64.573 58.0787 64.573 58.4109C64.3836 58.5336 64.2963 58.5683 64.2446 58.8125C63.8807 58.9873 63.7073 59.4248 63.3089 59.4954C63.2044 59.9317 62.4765 60.1053 62.217 60.5081C61.6969 60.6123 61.1424 61.0324 60.7084 61.3646C60.6567 61.3287 60.6211 61.3125 60.5878 61.294C60.2939 61.5046 60.2066 61.6968 59.7738 61.6968C59.7382 61.7303 59.7037 61.7662 59.6865 61.8183C58.6807 62.3067 57.6061 62.691 56.6014 63.1111C56.5658 63.3739 56.5325 63.6354 56.4969 63.9155C57.0687 63.9155 57.0687 63.9155 57.2077 63.985C57.6405 63.985 58.2123 63.7928 58.5429 64.125C58.5429 64.0556 58.559 64.0023 58.5762 63.9502C58.6463 63.9502 59.7738 63.9502 59.8943 63.8276C60.7784 63.7049 61.4891 63.4259 62.3204 63.1111C62.4765 62.919 62.4765 62.919 63.3606 62.3426C63.4306 62.2026 63.8807 61.7662 64.2619 61.4861C64.3652 61.3125 64.3491 61.206 64.573 61.1366C64.6431 60.8218 64.3135 61.0139 64.852 60.7176C64.9726 60.316 65.441 59.9132 65.441 59.5475C65.9095 58.831 66.239 57.9039 66.7235 57.1702C66.7752 57.2222 66.7752 57.2222 66.7051 58.3588C66.7051 58.4815 66.8624 60.4202 66.9658 60.5255Z" fill="white"/>
<path d="M40.0119 58.7951C39.4757 58.5509 39.4757 58.5509 39.4068 58.4468C38.9739 58.4294 38.0543 58.3414 37.8465 58.7604C36.789 59.2847 36.0266 61.5382 37.5169 62.0289C37.587 62.2373 37.8292 62.3252 38.037 62.3785C38.4355 62.36 39.4757 62.3067 39.6663 61.9225C40.4987 61.7141 40.5676 60.3519 40.6032 59.6343C40.4642 59.5475 40.447 59.3901 40.4286 59.2153L40.0119 58.7951ZM38.8522 61.2419C38.5927 61.2593 38.3321 61.294 38.0887 61.3287C36.8751 60.8738 37.4136 60.0359 37.882 59.2674C38.3321 59.1273 38.765 58.9352 39.2162 59.2153C39.424 59.5116 39.424 59.5116 39.5273 59.5637C39.5273 59.8611 39.5273 60.1586 39.5457 60.4734C39.3195 60.6482 38.9739 60.9965 38.8522 61.2419Z" fill="white"/>
<path d="M58.6624 61.9225V61.853H58.5946V61.9225H58.6624Z" fill="white"/>
<path d="M81.7689 61.9225V61.853H81.7172V61.9225H81.7689Z" fill="white"/>
<path d="M84.8539 59.4595C84.715 59.2674 84.2121 58.5151 84.4027 58.2708C84.0732 57.8519 84.3338 57.2766 84.2121 56.8738C84.2121 55.7373 84.2821 53.6065 83.4141 52.7326C83.3453 52.522 83.2764 52.3137 83.2235 52.1042C83.1719 52.0857 83.1386 52.0683 83.103 52.0509C83.1547 51.8576 82.9997 51.7014 82.878 51.5961C82.9296 51.4213 82.6701 50.8276 82.6701 50.5486C82.2189 49.9884 82.4095 48.294 82.8952 47.8056C82.878 47.735 82.8607 47.6817 82.8435 47.6296C83.6231 46.8438 82.7563 46.3021 81.9755 46.7211C81.7516 46.9664 81.5254 47.2118 81.3176 47.4734C80.7987 47.5776 80.2085 48.382 79.8273 48.7303C79.7917 48.9757 79.7917 48.9757 79.7068 49.0278C79.7068 49.3947 79.5162 50.2512 79.3589 50.5833C79.3773 50.6192 79.3933 50.6528 79.4289 50.7049C79.3072 51.5093 79.5162 51.772 79.6884 52.4884C79.879 52.4363 80.2774 53.1343 80.7114 53.257C81.2487 53.7986 81.9755 53.2222 82.444 52.9248C83.5014 52.8542 83.7448 54.8646 83.6231 55.632H83.7793C83.7793 55.8252 83.692 56.6644 83.6231 56.6979C83.6587 56.7338 83.7104 56.7685 83.762 56.8044C83.7104 56.8738 83.7104 56.8738 83.6059 57.9919C83.1386 58.3773 83.2764 58.7431 83.0686 59.2847C83.0341 59.7211 83.1202 60.1412 83.0686 60.5428C83.103 60.5776 83.1386 60.6123 83.1903 60.6482C83.1547 60.9803 83.3292 61.522 83.6748 61.6262C84.6289 61.1539 85.1318 60.4734 84.8539 59.4595ZM80.9537 52.3137C80.6069 52.0509 80.2246 51.9282 80.1396 51.4398C80.088 51.4213 80.0363 51.4039 80.0007 51.3877C79.8101 50.3032 80.3474 49.5347 81.4221 49.7442C81.4221 49.7789 81.4393 49.831 81.4566 49.8843H81.6127C82.3406 50.7049 82.1144 51.9815 80.9537 52.3137Z" fill="white"/>
<path d="M91.7003 60.9803V61.0498H91.7693V60.9803H91.7003Z" fill="white"/>
<path d="M60.2411 50.8634C60.5878 50.5139 61.5408 50.3738 61.5408 51.0903H61.7669C61.7669 51.1597 61.783 51.2303 61.8002 51.3171C61.8519 51.3518 61.9047 51.3877 61.9736 51.4213C62.0609 51.8241 62.4949 52.1204 62.4949 52.5046C63.24 52.9421 63.4823 54.515 64.2263 55.0729C64.2263 55.3009 64.4525 55.4236 64.5558 55.6319H64.9025C64.9025 55.4062 64.9025 55.1794 64.9209 54.9687C64.8853 54.3576 64.573 53.8333 64.573 53.2743C64.1229 52.9421 64.0196 51.5093 63.5868 51.2998C63.534 51.037 63.2917 50.9502 63.24 50.6528C62.8577 50.5312 62.9277 49.9884 62.581 49.8842C62.4765 49.4653 61.713 48.9757 61.7486 48.5567C60.899 47.8576 60.0493 47.1412 59.0619 46.6169C59.0275 46.5648 58.993 46.5116 58.9758 46.4768C58.5429 46.4433 57.5188 45.8831 57.2249 46.25C57.3982 46.9491 56.947 47.6481 57.3982 48.3299C57.4499 48.8356 57.6233 48.9224 57.8139 49.4132C58.4201 49.6574 59.0102 50.4792 59.4442 50.9849C59.8071 50.9849 59.8071 50.9849 60.2411 50.8634Z" fill="white"/>
<path d="M84.5416 39.2257C84.351 39.4537 84.2465 39.5405 84.1765 39.8195C84.0915 39.838 84.0043 39.8542 83.9354 39.8727C83.8493 40.0301 83.762 40.2049 83.6748 40.3785C83.1202 40.7465 82.0811 42.0567 81.4221 42.0567V41.8287C80.9892 41.5671 80.7447 41.0787 80.3635 40.728C80.243 41.1829 80.1213 41.6378 80.0007 42.1088C80.1213 42.441 79.7584 44.8519 80.1913 45.0625C80.4335 44.956 80.9364 44.6597 81.0225 44.3982C81.2832 44.3449 81.9422 43.7697 82.0455 43.5417C82.0984 43.5602 82.15 43.5764 82.2189 43.5938C82.3923 43.4537 82.3923 43.0359 82.7735 43.088C82.9468 42.9479 82.9468 42.9479 83.0157 42.7558H83.2764C83.2764 42.6678 83.2764 42.5984 83.2936 42.5278C83.3625 42.4931 83.4325 42.4757 83.5014 42.4595C83.5014 42.4063 83.5014 42.353 83.5198 42.3009C83.6748 42.1956 83.8493 42.1088 84.0215 42.0209C85.0789 40.7465 86.6037 39.8021 87.939 38.8588C88.2157 39.1377 88.4063 39.4005 88.8058 39.4537C89.1354 39.9248 89.1354 39.9248 89.2559 39.978C89.2387 40.1343 89.2387 40.1343 89.3076 40.2743C89.3592 40.2917 89.4293 40.309 89.4982 40.3264C89.4821 40.397 89.4821 40.485 89.4821 40.5706C89.5338 40.6065 89.6038 40.6412 89.6727 40.6945C89.6038 40.8507 90.5223 42.5116 90.6957 42.7732C90.3306 43.1574 90.0183 43.6979 89.5338 43.9433C89.3948 44.3982 88.8931 44.4144 88.6841 44.8345C88.6152 44.8519 88.5452 44.8704 88.4935 44.8866C88.4763 44.9225 88.4591 44.956 88.4591 45.0104C88.1824 45.0452 87.9562 45.1493 87.8873 45.3935C86.916 45.8125 85.9458 46.3021 84.9056 46.5116C84.5416 46.0232 84.3682 45.3935 84.4383 44.7651C84.3855 44.6945 84.3855 44.5382 84.0399 43.7697H83.8837C83.7264 43.978 83.3452 44.8519 83.5358 45.0452C83.4325 45.2188 83.6059 45.4815 83.3969 45.5868C83.4141 46.6343 83.3452 46.7558 83.3625 47.0533C83.2235 47.2639 83.2063 47.9097 83.2936 48.1725C83.1386 48.4005 83.2936 48.7141 83.3108 48.9757C83.2764 48.9757 83.2419 48.9931 83.2063 49.0104C83.4141 49.1505 83.4325 50.3391 83.4669 50.5834C83.5198 50.6007 83.5714 50.6192 83.6231 50.6354C83.8654 50.5139 83.8654 50.5139 84.0215 50.3033C84.8711 50.0243 84.9412 49.5 85.7908 49.9884C85.8758 50.7755 85.6519 52.0336 85.5991 52.75C85.8597 53.169 85.9975 53.5185 86.3442 53.8681C86.5865 54.4977 87.0721 54.6366 87.6623 54.8646V54.9873C87.7656 54.8993 87.8689 54.8287 87.9734 54.7593C87.9218 54.4456 87.8012 54.2176 87.6784 53.728C87.5234 53.4665 87.3328 53.2384 87.3328 52.9248C86.7254 52.1042 87.5061 51.8935 87.5061 51.1597C87.5406 51.125 87.575 51.1077 87.6267 51.0903C87.6095 51.0197 87.6095 50.9676 87.6095 50.9155C87.8345 50.9155 88.7542 51.0035 88.8931 50.8634C89.3948 50.9329 90.0699 50.8634 90.5568 50.8102C91.0068 50.8449 92.4638 51.0035 92.8783 50.7581C93.7107 50.8102 96.6064 50.4271 96.5191 51.0729C96.6925 51.2813 96.7441 51.3877 96.7441 51.6493C96.9003 51.8056 96.9003 51.8056 97.0564 52.1377C97.386 52.1898 97.7143 52.2604 98.0611 52.3299C98.0967 52.2604 98.1311 52.1898 98.1667 52.1377C98.0438 51.9456 97.5409 51.0729 97.3171 51.0729C97.1081 50.6875 97.0036 50.3033 96.6224 50.0764C96.6064 49.9711 96.588 49.8669 96.588 49.779C96.2252 49.4827 95.4272 47.1586 95.5305 46.809C95.3399 46.6169 95.3055 46.4595 95.3055 46.1794C95.0621 45.8658 94.8715 45.3773 94.7865 44.9919C94.7349 44.9746 94.6993 44.956 94.6648 44.956C94.5604 44.6424 94.2997 44.2755 94.387 43.978C94.2997 43.8901 94.2308 43.8033 94.1608 43.7338C93.8497 43.0521 92.7934 40.4665 92.2193 40.2743C92.2032 40.1702 92.186 40.0648 92.186 39.978C91.5614 39.5405 91.4397 38.7373 90.9196 38.2836C90.4523 38.2836 89.8461 36.9549 89.4132 36.6748C89.3432 36.3426 88.5119 35.5046 88.2513 35.4526C88.2341 35.3646 88.2157 35.2778 88.1985 35.2072C88.1468 35.1898 88.0951 35.1898 88.0595 35.1898C87.8689 35.5567 87.575 35.8878 87.5234 36.0463C86.8815 36.2905 86.691 37.1285 86.118 37.5139C85.5818 38.1771 85.4073 38.2836 84.6449 39.2431C84.6117 39.2257 84.5761 39.2257 84.5416 39.2257ZM91.7692 45.6736C91.7531 45.7084 91.7348 45.7431 91.7348 45.7952C92.1343 46.0926 92.4799 46.3901 92.4799 46.9665C92.5327 46.9838 92.5844 47.0012 92.6544 47.0359C92.6361 47.088 92.6188 47.1412 92.6016 47.1933C92.9139 47.404 93.3112 48.9931 93.2779 49.4132C93.1562 49.4132 93.0356 49.4306 92.9139 49.4468C92.8967 49.3947 92.8783 49.3426 92.8783 49.3079C92.7578 49.3426 92.6361 49.3947 92.5155 49.4468C92.2732 49.3252 91.9437 49.4132 91.7531 49.2905C91.6487 49.3947 89.2904 49.2211 89.117 49.1158C89.0837 49.1331 89.0481 49.1505 89.032 49.1852C88.6152 48.9063 87.9734 49.2384 87.4717 48.9931C87.2811 49.0625 87.2811 49.0625 86.916 49.0463C87.0032 48.4688 87.8689 47.5602 88.4063 47.3681C88.3891 47.2986 88.3891 47.228 88.3891 47.1759C88.6841 46.9838 88.7358 46.8611 88.9264 46.7917C89.3776 46.1111 90.9896 45.5162 91.7692 45.6736Z" fill="white"/>
<path d="M93.5018 54.7593V54.6887H93.4329V54.7593H93.5018Z" fill="white"/>
<path d="M26.9436 53.728C26.9608 53.7465 26.9792 53.7801 26.9964 53.8148H27.1698C27.0998 53.6065 26.8403 53.537 26.683 53.3785C26.683 53.485 26.683 53.5891 26.7014 53.7107C26.7702 53.7107 26.8575 53.7107 26.9436 53.728Z" fill="white"/>
<path d="M26.5108 53.4491C26.4763 53.4306 26.4407 53.4143 26.4235 53.4143V53.5371C26.4407 53.5012 26.4763 53.4665 26.5108 53.4491Z" fill="white"/>
<path d="M26.3547 53.1864H26.2501V53.2918H26.3547V53.1864Z" fill="white"/>
<path d="M96.4319 44.5729C96.4491 44.6597 96.4674 44.765 96.4835 44.8704C96.952 45.3414 97.1265 45.9884 97.4204 46.5995C97.6799 46.7558 97.9221 47.1053 97.8889 47.4201C98.1127 47.6123 98.27 47.8218 98.3561 48.1204C98.9624 48.3125 99.0496 50.4086 99.2574 50.9676C99.5008 50.985 99.5008 50.985 99.7948 51.0903C99.812 51.0729 99.8476 51.0556 99.882 51.037C99.9854 50.4086 100.073 49.5706 99.812 48.9757C99.8292 48.9063 99.8476 48.8356 99.8637 48.7836C99.6731 48.5046 99.6042 48.3299 99.5697 47.9977C99.5008 47.9803 99.4492 47.9803 99.3952 47.9803C99.3791 47.8218 99.3436 47.7535 99.2402 47.6481V47.3333C99.1713 47.316 99.1013 47.2986 99.0496 47.2813C98.9451 46.8275 98.5123 46.4769 98.2 46.1111C98.3033 45.9711 97.8188 44.8519 97.6799 44.6782C97.6799 44.1007 97.2114 43.5938 96.9175 43.14C96.6064 43.1053 96.3974 43.1748 96.1196 43.2442C96.0679 43.6285 96.0507 44.3808 96.4319 44.5729Z" fill="white"/>
<path d="M41.261 45.2014C41.261 45.0961 41.261 45.0104 41.2782 44.9225C41.5205 44.8519 42.1279 44.1887 42.1279 43.9259C42.0062 43.9433 42.0062 43.9433 41.3655 43.6458C41.261 43.7697 41.261 43.7697 41.2266 44.0301C41.0532 44.206 40.7065 44.7824 40.7065 45.0266C40.3425 45.184 39.9785 45.184 39.5801 45.184C39.4757 44.7998 38.7477 43.7697 38.3838 43.5602C38.3665 43.4537 37.8464 42.5463 37.7592 42.5116C37.6202 41.7766 36.4767 41.7245 35.8877 41.7072C36.0438 42.0567 36.6512 43 37.014 43.1748C37.1874 43.5417 37.7431 43.7338 37.7431 44.1539C37.8108 44.1539 37.882 44.1539 37.9509 44.1701C38.1587 44.4688 39.0773 45.3773 38.5744 45.7604C38.626 45.8657 38.626 45.8657 38.5744 46.6169H38.92C39.0589 46.4248 39.2162 46.2326 39.3712 46.0405C39.8568 46.2847 39.5457 46.7732 39.6846 47.228C39.5618 47.4039 39.4584 47.5961 39.3551 47.7882C39.1289 47.7882 39.0589 47.6655 38.92 47.5255V47.3333C38.765 47.2639 38.6961 47.088 38.5227 47.088C38.5227 47.7176 39.0256 48.1898 39.5273 48.5741C39.7179 48.4167 39.9602 47.9271 40.0474 47.8576C40.3425 47.8576 40.4803 48.2245 40.6893 48.3819C40.8098 48.294 40.9315 48.2072 41.0532 48.1377C41.1049 47.8056 40.9487 46.7211 41.0532 46.6169C41.0004 46.1447 41.0704 45.691 41.1049 45.2188C41.1565 45.2014 41.2094 45.2014 41.261 45.2014Z" fill="white"/>
<path d="M78.2498 47.5961H78.3015V47.5255H78.2498V47.5961Z" fill="white"/>
<path d="M78.492 41.3924C78.337 41.3229 78.337 41.3229 77.8513 40.8681C75.7008 40.5023 76.066 43.3137 76.3599 44.5544C75.6676 45.0799 76.0304 46.0926 76.136 46.7731C76.4988 47.0012 76.5861 47.2118 77.0189 47.316C77.0373 47.3854 77.0545 47.456 77.089 47.5255C77.1751 47.4907 77.2784 47.456 77.3829 47.4375C78.9604 48.0324 78.996 45.1146 78.6826 44.3102C78.6998 44.206 78.7182 44.1181 78.7354 44.0301C79.2716 43.2975 78.8387 42.1088 78.492 41.3924ZM78.0936 46.3194C77.8513 46.4433 77.6596 46.4595 77.4357 46.5475C77.2968 46.4433 77.2968 46.4433 77.1223 46.4433C77.1062 46.3553 77.089 46.2674 77.0706 46.1979C76.4471 45.7789 76.9317 44.5023 77.7997 44.8171C77.9903 45.0799 77.9903 45.0799 78.1981 45.2361C78.2153 45.5868 78.2153 45.5868 78.0936 46.3194ZM78.267 43.6458C78.0419 43.8032 77.9386 43.9259 77.6596 43.978C77.1578 43.6817 76.8111 43.3843 76.6561 42.8079C76.7066 42.0914 76.7939 41.4456 77.6596 41.4456C77.8169 41.5324 77.9719 41.6192 78.128 41.7072C78.128 41.7593 78.128 41.8125 78.1464 41.8646C78.1981 41.8808 78.2497 41.8993 78.3186 41.9167C78.4403 42.5116 78.4403 42.5116 78.4403 42.9479C78.267 43.1215 78.2853 43.3843 78.267 43.6458Z" fill="white"/>
<path d="M59.0103 46.1979H58.9402V46.25H59.0103V46.1979Z" fill="white"/>
<path d="M65.8394 39.0162C65.2331 38.1956 64.6602 37.897 63.5867 38.0035C63.395 38.2998 62.8576 38.265 62.7015 38.5799C61.5763 39.3657 62.0091 39.9248 61.9047 41.0602C61.9736 41.1482 62.0447 41.235 62.1125 41.3229C62.1997 41.8472 62.6854 41.8808 63.101 42.1794C63.3605 42.0046 64.1413 42.0741 64.4007 42.0741C65.666 41.4456 66.0644 40.4317 65.8394 39.0162ZM65.1287 39.9063C65.0942 39.9063 65.0598 39.9248 65.0242 39.9421C65.0242 40.0127 65.0242 40.0995 65.0414 40.1863C64.6086 40.6586 64.6086 40.6586 64.488 40.7107V40.8333H64.3835V40.956C64.1585 40.956 64.0712 40.9387 63.8634 41.0602C63.3249 40.9907 63.1883 40.9028 62.8048 40.5706V40.1701C62.7715 40.1516 62.7371 40.1343 62.7015 40.1343C62.7015 39.61 62.8921 39.5405 63.0138 39.1736C63.1699 39.1042 63.2044 38.9977 63.2572 38.8414C63.62 38.6678 63.984 38.4919 64.4007 38.544C64.6086 38.7014 64.6086 38.7014 64.9025 38.7894C64.9025 39.2083 65.1631 39.4005 65.1287 39.9063Z" fill="white"/>
<path d="M59.3398 38.0035C59.3742 38.3357 59.6348 39.0683 59.946 39.2778C60.1033 39.2604 60.2583 39.2431 60.4133 39.2257C60.5005 39.0683 60.605 38.8414 60.8301 38.8762C61.2285 38.6146 61.5224 37.7407 61.9047 37.3565C62.0781 36.7789 62.2871 36.3773 62.6671 35.9583C62.6499 35.9225 62.6327 35.8877 62.6143 35.8542C62.9438 35.3461 63.2733 34.7535 63.4995 34.2118C64.1057 33.2847 64.7992 32.2894 65.3538 31.3461H65.4743C65.58 31.0139 65.8739 30.4722 66.2907 30.4722C66.3595 30.7859 66.4973 31.0486 66.6018 31.3461C66.8108 32.7431 66.8441 34.1574 67.0875 35.5382C67.053 35.5382 67.0174 35.5567 66.983 35.5741L67.0347 35.941H67.1564C67.053 36.5706 67.2953 37.147 67.2253 37.7407C67.4859 38.0035 67.642 40.4317 67.6248 41.0787C67.8498 41.2176 67.8671 41.287 67.9027 41.5324C68.0232 41.5671 68.1621 41.603 68.3011 41.6551C68.8728 41.5671 69.0979 41.5845 69.5319 41.1482C69.7741 40.4491 70.4665 39.3831 70.4665 38.6493C70.2587 38.6319 70.052 38.6319 69.843 38.6319C69.8258 38.6493 69.8086 38.684 69.7914 38.7199C69.618 38.7014 69.4446 38.684 69.2885 38.684C69.0807 38.2292 69.0807 38.2292 68.9073 38.037C68.7684 37.4607 67.3998 33.5475 67.8843 33.0567C67.8326 32.9884 67.781 32.9352 67.7454 32.8831C67.8671 32.7083 67.8326 32.4468 67.6937 32.3067C67.8154 32.0625 67.7454 30.6644 67.7454 30.316C67.8671 30.0521 67.8671 30.0521 67.8671 29.7731C68.4561 28.8993 69.2713 28.1308 70.2242 27.6944C70.4493 27.3623 70.6754 27.1701 71.005 26.978C70.9177 26.8021 71.2989 26.6285 71.3861 26.5764C71.5584 26.191 71.8879 25.8773 71.9579 25.4225C71.6973 25.3692 71.5423 25.3519 71.3345 25.1956C70.2587 25.1956 69.1507 24.5671 68.0232 24.4965C67.8671 24.3391 64.782 23.7269 64.4008 23.9201C64.4008 24.0764 64.4008 24.0764 64.3319 24.1991C64.3491 24.2164 64.3652 24.2512 64.4008 24.287C64.4008 25.125 64.782 25.912 64.9898 26.7153C65.2677 27.1516 66.0128 28.7766 65.3894 29.0914C65.1632 29.7199 64.5397 30.1053 64.3319 30.7523C63.968 31.066 63.7418 31.8183 63.395 31.9919C63.3778 32.044 63.3778 32.0972 63.3778 32.1493C63.17 32.2894 62.9794 32.4294 62.7888 32.5868C62.6855 32.9005 61.8875 34.0718 61.5408 34.0718C61.4374 34.6482 60.5522 34.7535 60.5522 35.2245C60.4661 35.2245 60.3972 35.2245 60.3272 35.2419C60.31 35.294 60.2939 35.3461 60.2939 35.4005C59.7738 35.6262 59.2881 36.0278 58.7668 36.1678C58.8541 36.8148 59.0275 37.375 59.1664 38.0035H59.3398ZM70.207 25.7535C70.2242 25.7535 70.2587 25.772 70.2943 25.7894C70.2587 25.8067 70.2242 25.8241 70.207 25.8588V25.7535ZM67.1403 25.772C67.8498 25.8588 68.5605 26.0856 69.254 26.191V26.4005C68.6639 26.9074 68.2322 27.537 67.5904 28.0266C67.5731 28.0787 67.5548 28.1308 67.5548 28.2002H67.3826C67.2253 27.9722 66.9141 25.9988 67.1403 25.772Z" fill="white"/>
<path d="M55.2145 26.7685C55.3018 26.89 55.3362 27.2222 55.4407 27.4491C55.3178 28.3044 55.7346 29.2315 55.7863 30.1053C55.9252 30.8565 56.133 31.8519 56.0113 32.6215C56.0986 33.1111 56.3581 36.1678 56.0113 36.5185C56.0285 36.5347 56.0641 36.5532 56.0986 36.5868C56.0986 37.1644 55.5773 37.4792 55.1456 37.8113C55.249 38.3692 56.0285 38.9294 56.0285 39.4005C56.4614 39.5058 56.8265 40.537 57.1732 40.8866C57.1732 41.1655 57.45 41.4456 57.6761 41.5845C58.2295 41.4271 57.5889 36.2732 57.745 35.3819C57.7094 35.3461 57.6405 33.1968 57.7611 33.0752C57.4672 31.4155 57.5705 29.581 57.4672 27.9028C57.4855 27.8681 57.5028 27.8333 57.5372 27.816C57.3811 27.6065 57.5544 27.309 57.3466 27.0995C57.2594 25.7894 57.1732 24.4792 57.1044 23.1863C56.9138 23.1505 56.9138 23.1505 56.2031 23.2037C56.2031 23.1505 56.2191 23.0984 56.2375 23.0637C55.9068 23.1505 55.2317 23.1505 54.7977 23.2384C54.8161 23.2558 54.8505 23.2732 54.885 23.3079C54.9367 24.3218 55.3695 25.9294 55.2145 26.7685ZM57.5544 40.7813H57.6233V40.8333H57.5544V40.7813Z" fill="white"/>
<path d="M57.6233 40.7812H57.5543V40.8334H57.6233V40.7812Z" fill="white"/>
<path d="M59.0619 40.3623V40.4318H59.1148V40.3623H59.0619Z" fill="white"/>
<path d="M71.0565 33.5301C70.9876 34.2998 71.8717 34.9977 72.5124 35.3125C72.6502 35.8183 73.5698 36.2211 74.0383 36.3252C74.0555 36.3611 74.0727 36.4132 74.0899 36.4653C74.2277 36.4306 74.2277 36.4306 74.54 36.5185V36.6401C74.7478 36.6053 74.7478 36.6053 75.0601 36.6921C75.8914 36.5532 77.3312 36.7442 77.9202 35.9757C77.9902 34.7176 77.9902 34.7176 78.0591 34.6296C77.9029 34.2454 77.8857 33.809 77.8513 33.39C77.8857 33.3727 77.9202 33.3553 77.9557 33.3368C77.9202 33.3194 77.8857 33.3032 77.8513 33.3032C77.7996 32.9352 77.5734 32.5509 77.5734 32.1493C78.0935 31.7824 79.446 33.2674 80.0178 33.4595C80.0362 33.5475 80.0523 33.6354 80.0879 33.7211C80.554 33.8796 80.5896 33.8275 80.9708 34.2292C81.058 34.2454 81.1442 34.2639 81.2314 34.2813C81.2486 34.3519 81.2647 34.4213 81.3003 34.4907C81.3703 34.4907 81.4392 34.4907 81.5253 34.5081C81.647 34.7535 82.1672 34.9456 82.4278 35.0324C82.964 34.6296 84.9055 34.8218 85.2006 34.2292C85.01 34.1053 84.9055 33.9132 84.6805 33.7743C84.6632 33.6875 84.6632 33.6169 84.6632 33.5475C84.212 33.4595 83.5886 32.8831 83.3291 32.5162C83.1718 32.5868 82.0983 31.5023 81.7848 31.5023C81.7171 31.294 81.5782 31.2407 81.3703 31.206C81.1442 30.8565 80.9191 30.7523 80.554 30.5417C79.9133 29.7905 78.8042 29.3889 78.0419 28.6898C77.7296 28.6898 76.6205 29.0394 76.3954 29.2651H76.0659C75.6158 29.7199 74.7995 29.5463 74.9212 30.2975C74.9568 30.316 74.9912 30.3322 75.0257 30.3495C75.1474 30.7523 75.1474 30.7523 75.1474 31.0139C75.6675 31.4688 75.4069 33.1273 75.3713 33.5995C74.5917 34.544 73.5526 34.456 72.4263 34.1238C72.4079 34.0718 72.3907 34.0197 72.3735 33.9838C71.8545 33.8275 71.6639 33.7743 71.2827 33.39C71.1955 33.4248 71.1254 33.4769 71.0565 33.5301Z" fill="white"/>
<path d="M48.593 27.1343C48.438 27.0995 48.438 27.0995 48.3508 27.1875C48.1935 27.1701 48.1935 27.1701 47.934 27.2396C47.709 27.4664 45.7674 28.1655 45.3518 28.1655C44.5894 28.515 44.346 28.7072 43.8087 28.9687C43.3402 29.0208 42.8902 29.2488 42.5607 29.581C42.4057 30.2095 41.9717 31.1539 42.3528 31.7824H42.6479C43.2886 31.3102 44.6227 31.3981 45.369 31.4329C45.5596 31.5023 45.7502 31.5729 45.9408 31.6609C46.1831 31.9572 46.4265 32.2546 46.6871 32.5694C46.6515 32.7604 46.6687 32.8125 46.7721 32.9711C46.7721 34.1759 45.3001 34.3681 44.5378 34.9803C44.4505 34.9618 44.4505 34.9618 44.2415 35.0671C44.2415 35.434 44.2955 35.5926 44.3805 35.8877C45.2473 35.7141 46.2187 35.6099 47.0155 35.2072C47.8123 35.294 48.9558 34.7176 49.4599 34.1053C49.9272 33.8796 50.3612 33.0405 50.4829 32.4988C50.4829 31.4329 49.1648 31.1007 48.3841 30.7859C48.3152 30.7859 48.2463 30.7859 48.1935 30.8044C48.1602 30.7338 48.1246 30.6643 48.0901 30.6123H47.6734C47.6401 30.5602 47.6045 30.5243 47.5884 30.4896C47.2061 30.4722 46.9627 30.3843 46.6354 30.2974C46.7548 30.088 48.4713 29.581 48.8008 29.581C49.771 29.0914 51.158 29.1273 52.0937 28.5671C52.4933 27.8681 52.5266 26.6458 52.6839 25.8414C52.6839 25.8414 48.7652 26.7685 48.593 27.1343Z" fill="white"/>
<path d="M42.5963 27.1181C42.6124 27.1343 42.6308 27.1701 42.648 27.2037C42.9075 27.0822 43.8444 27.0463 43.9121 26.9421C44.4506 26.8021 44.9879 26.2083 45.4908 26.2083V26.0509C46.1143 25.9294 46.6172 24.9502 47.3451 24.8276C47.484 24.4086 48.8526 24.0764 49.1477 24.2164C49.1649 24.1817 49.2005 24.1644 49.2338 24.147C49.615 24.1644 49.9962 24.1817 50.3957 24.1991C50.5863 23.9549 50.6552 23.7627 50.6908 23.4132C50.2924 23.3958 47.7952 23.0463 47.6218 23.3264C46.2532 23.6227 45.7675 24.8449 44.5379 25.3692C43.9121 25.9989 41.3299 25.6678 42.0406 27.0995C42.2152 27.0995 42.4058 27.0995 42.5963 27.1181ZM50.1018 23.7627H50.2223V23.8322H50.1018V23.7627Z" fill="white"/>
<path d="M70.2943 25.7894C70.2586 25.772 70.2241 25.7535 70.2069 25.7535V25.8589C70.2241 25.8241 70.2586 25.8068 70.2943 25.7894Z" fill="white"/>
<path d="M50.2225 23.7627H50.1018V23.8322H50.2225V23.7627Z" fill="white"/>
</g>
<defs>
<clipPath id="clip0_175_2616">
<rect width="124" height="125" fill="white"/>
</clipPath>
</defs>
</svg>
