<svg width="270" height="125" viewBox="0 0 270 125" fill="none" xmlns="http://www.w3.org/2000/svg">
<g clip-path="url(#clip0_175_2608)">
<path fill-rule="evenodd" clip-rule="evenodd" d="M80.2532 105.556V105.961C80.2532 116.435 71.7511 125 61.3532 125C51.0128 125 42.5106 116.435 42.5106 105.961V67.5347L80.2532 105.556ZM61.3532 0C71.7511 0 80.2532 8.56481 80.2532 19.0394V19.4444L42.5106 57.4653V19.0394C42.5106 8.56481 51.0128 0 61.3532 0ZM0 62.5C0 52.0255 8.50213 43.4606 18.9 43.4606H38.6042V81.5394H18.9C8.50213 81.5394 0 72.9745 0 62.5Z" fill="#18B3AB"/>
<path fill-rule="evenodd" clip-rule="evenodd" d="M80.2532 24.9421V60.5324H44.9234L80.2532 24.9421ZM84.1021 21.0648C91.1681 14.5833 102.198 14.7569 109.034 21.6435C116.043 28.6458 116.043 40.2199 109.034 47.2801L95.8213 60.5324H84.1021V21.0648ZM95.8213 64.4676L109.034 77.7778C116.043 84.7801 116.043 96.3542 109.034 103.414C102.198 110.243 91.1681 110.417 84.1021 103.935V64.4676H95.8213ZM80.2532 64.4676V100.058L44.9234 64.4676H80.2532Z" fill="#D1DC05"/>
<path fill-rule="evenodd" clip-rule="evenodd" d="M137.7 22.3958V27.3727L142.928 21.4699C143.215 21.1806 143.387 20.9491 143.56 20.8333C143.789 20.7176 144.019 20.6597 144.306 20.6597C144.651 20.6597 144.996 20.7755 145.226 21.007C145.455 21.2384 145.57 21.5278 145.57 21.875C145.57 22.338 145.398 22.7431 144.996 23.1482L141.721 26.4468L145.455 32.2338C145.743 32.6389 145.915 32.9861 146.087 33.2755C146.202 33.6227 146.26 33.912 146.26 34.2014C146.26 34.4907 146.145 34.7801 145.915 35.0116C145.685 35.2431 145.398 35.3588 144.996 35.3588C144.594 35.3588 144.306 35.2431 144.077 35.0694C143.847 34.8958 143.617 34.6644 143.502 34.4329C143.33 34.1435 143.157 33.8542 143.043 33.6227L139.883 28.4144L137.7 30.6713V33.5648C137.7 34.2014 137.585 34.6065 137.298 34.8958C137.068 35.1852 136.723 35.3588 136.321 35.3588C136.091 35.3588 135.862 35.3009 135.689 35.1273C135.46 35.0116 135.287 34.838 135.172 34.6065C135.115 34.4329 135.057 34.2593 135.057 34.0278C135 33.7384 135 33.3912 135 32.9861V22.3958C135 21.8171 135.115 21.3542 135.345 21.0648C135.632 20.7755 135.919 20.6597 136.321 20.6597C136.723 20.6597 137.068 20.7755 137.298 21.0648C137.585 21.3542 137.7 21.8171 137.7 22.3958ZM157.347 23.0903H151.315V26.6204H156.887C157.289 26.6204 157.634 26.6782 157.806 26.9097C158.036 27.0833 158.094 27.3727 158.094 27.662C158.094 28.0093 158.036 28.2407 157.806 28.4722C157.634 28.6458 157.289 28.7616 156.887 28.7616H151.315V32.8125H157.577C157.979 32.8125 158.323 32.9282 158.553 33.1597C158.726 33.3333 158.84 33.6227 158.84 33.9699C158.84 34.3171 158.726 34.6065 158.553 34.7801C158.323 35.0116 157.979 35.1273 157.577 35.1273H150.281C149.706 35.1273 149.304 34.9537 149.017 34.6644C148.787 34.4329 148.672 33.9699 148.672 33.3333V22.6273C148.672 22.2222 148.73 21.875 148.845 21.6435C148.96 21.3542 149.132 21.1806 149.362 21.0648C149.591 20.9491 149.936 20.8912 150.281 20.8912H157.347C157.806 20.8912 158.094 20.9491 158.323 21.1806C158.553 21.412 158.611 21.6435 158.611 21.9907C158.611 22.338 158.553 22.5695 158.323 22.8009C158.094 22.9745 157.806 23.0903 157.347 23.0903ZM165.447 32.9861L163.321 23.9005V33.7384C163.321 34.2593 163.206 34.6644 162.977 34.9537C162.747 35.1852 162.46 35.3588 162.115 35.3588C161.713 35.3588 161.426 35.1852 161.196 34.9537C160.966 34.6644 160.851 34.2593 160.851 33.7384V22.4537C160.851 21.8171 161.023 21.412 161.311 21.1806C161.598 21.007 162 20.8912 162.517 20.8912H163.379C163.838 20.8912 164.24 20.9491 164.47 21.007C164.643 21.1227 164.815 21.2963 164.93 21.5278C165.045 21.8171 165.16 22.2222 165.332 22.8009L167.228 30.5556L169.181 22.8009C169.296 22.2222 169.411 21.8171 169.526 21.5278C169.64 21.2963 169.813 21.1227 170.043 21.007C170.272 20.9491 170.617 20.8912 171.134 20.8912H171.938C172.455 20.8912 172.857 21.007 173.145 21.1806C173.432 21.412 173.604 21.8171 173.604 22.4537V33.7384C173.604 34.2593 173.489 34.6644 173.26 34.9537C173.03 35.1852 172.743 35.3588 172.34 35.3588C171.996 35.3588 171.709 35.1852 171.479 34.9537C171.249 34.6644 171.134 34.2593 171.134 33.7384V23.9005L169.009 32.9861C168.894 33.5648 168.779 33.9699 168.664 34.2593C168.606 34.5486 168.434 34.7801 168.204 35.0116C167.974 35.2431 167.63 35.3588 167.228 35.3588C166.94 35.3588 166.653 35.3009 166.423 35.1273C166.251 35.0116 166.079 34.7801 165.964 34.5486C165.791 34.3171 165.734 34.0857 165.677 33.7963C165.562 33.5648 165.504 33.2755 165.447 32.9861ZM185.094 23.0903H179.062V26.6204H184.577C184.979 26.6204 185.323 26.6782 185.496 26.9097C185.726 27.0833 185.783 27.3727 185.783 27.662C185.783 28.0093 185.726 28.2407 185.496 28.4722C185.323 28.6458 184.979 28.7616 184.577 28.7616H179.062V32.8125H185.266C185.668 32.8125 186.013 32.9282 186.243 33.1597C186.415 33.3333 186.53 33.6227 186.53 33.9699C186.53 34.3171 186.415 34.6065 186.243 34.7801C186.013 35.0116 185.668 35.1273 185.266 35.1273H177.97C177.396 35.1273 176.994 34.9537 176.764 34.6644C176.477 34.4329 176.362 33.9699 176.362 33.3333V22.6273C176.362 22.2222 176.419 21.875 176.534 21.6435C176.649 21.3542 176.821 21.1806 177.051 21.0648C177.281 20.9491 177.626 20.8912 177.97 20.8912H185.094C185.496 20.8912 185.84 20.9491 186.013 21.1806C186.243 21.412 186.357 21.6435 186.357 21.9907C186.357 22.338 186.243 22.5695 186.013 22.8009C185.84 22.9745 185.496 23.0903 185.094 23.0903ZM192.16 22.338L197.33 30.7292V22.2801C197.33 21.7593 197.445 21.3542 197.617 21.0648C197.847 20.7755 198.134 20.6597 198.536 20.6597C198.938 20.6597 199.226 20.7755 199.455 21.0648C199.685 21.2963 199.8 21.7593 199.8 22.2801V33.4491C199.8 34.7222 199.283 35.3588 198.306 35.3588C198.077 35.3588 197.904 35.3009 197.674 35.2431C197.502 35.1852 197.33 35.0694 197.157 34.8958C196.985 34.7222 196.813 34.5486 196.698 34.3171C196.526 34.0857 196.411 33.8542 196.238 33.6227L191.24 25.3472V33.6806C191.24 34.2593 191.126 34.6644 190.896 34.9537C190.609 35.1852 190.321 35.3588 189.977 35.3588C189.574 35.3588 189.287 35.1852 189.057 34.9537C188.828 34.6644 188.713 34.2593 188.713 33.6806V22.7431C188.713 22.2801 188.77 21.875 188.828 21.6435C188.943 21.3542 189.172 21.1227 189.402 20.8912C189.689 20.7176 189.977 20.6597 190.264 20.6597C190.551 20.6597 190.723 20.6597 190.896 20.7755C191.068 20.8333 191.24 20.9491 191.355 21.1227C191.47 21.2384 191.585 21.412 191.757 21.6435C191.872 21.875 192.045 22.1065 192.16 22.338ZM211.289 23.2639H208.36V33.5648C208.36 34.2014 208.245 34.6065 208.015 34.8958C207.728 35.1852 207.44 35.3588 207.038 35.3588C206.636 35.3588 206.349 35.1852 206.062 34.8958C205.832 34.6065 205.717 34.2014 205.717 33.5648V23.2639H202.787C202.328 23.2639 201.983 23.1482 201.753 22.9167C201.523 22.7431 201.409 22.4537 201.409 22.0486C201.409 21.7014 201.523 21.412 201.753 21.1806C201.983 21.007 202.328 20.8912 202.787 20.8912H211.289C211.749 20.8912 212.094 21.007 212.323 21.1806C212.553 21.412 212.668 21.7014 212.668 22.0486C212.668 22.4537 212.553 22.7431 212.323 22.9167C212.094 23.1482 211.749 23.2639 211.289 23.2639ZM222.951 23.0903H216.919V26.6204H222.491C222.894 26.6204 223.181 26.6782 223.411 26.9097C223.583 27.0833 223.698 27.3727 223.698 27.662C223.698 28.0093 223.583 28.2407 223.411 28.4722C223.181 28.6458 222.894 28.7616 222.491 28.7616H216.919V32.8125H223.181C223.583 32.8125 223.928 32.9282 224.1 33.1597C224.33 33.3333 224.445 33.6227 224.445 33.9699C224.445 34.3171 224.33 34.6065 224.1 34.7801C223.928 35.0116 223.583 35.1273 223.181 35.1273H215.885C215.311 35.1273 214.909 34.9537 214.621 34.6644C214.391 34.4329 214.219 33.9699 214.219 33.3333V22.6273C214.219 22.2222 214.277 21.875 214.391 21.6435C214.506 21.3542 214.736 21.1806 214.966 21.0648C215.196 20.9491 215.483 20.8912 215.885 20.8912H222.951C223.411 20.8912 223.698 20.9491 223.928 21.1806C224.1 21.412 224.215 21.6435 224.215 21.9907C224.215 22.338 224.1 22.5695 223.928 22.8009C223.698 22.9745 223.411 23.0903 222.951 23.0903ZM230.132 29.0509H229.213V33.5648C229.213 34.2014 229.098 34.6644 228.868 34.8958C228.581 35.1852 228.294 35.3588 227.891 35.3588C227.489 35.3588 227.145 35.1852 226.915 34.8958C226.685 34.6065 226.57 34.1435 226.57 33.5648V22.6273C226.57 22.0486 226.685 21.5857 226.915 21.2963C227.202 21.007 227.604 20.8912 228.179 20.8912H232.545C233.119 20.8912 233.636 20.8912 234.096 20.9491C234.498 21.007 234.9 21.1227 235.245 21.2963C235.647 21.4699 235.991 21.7593 236.336 22.1065C236.681 22.4537 236.911 22.8588 237.083 23.3218C237.198 23.7847 237.313 24.2477 237.313 24.7685C237.313 25.8681 237.026 26.6782 236.451 27.3148C235.934 27.9514 235.072 28.4144 233.923 28.7037C234.44 28.9352 234.9 29.3403 235.302 29.8611C235.762 30.4398 236.106 30.9607 236.451 31.5972C236.796 32.1759 237.083 32.6968 237.255 33.2176C237.428 33.6806 237.543 34.0278 237.543 34.2014C237.543 34.375 237.485 34.5486 237.37 34.7801C237.255 34.9537 237.14 35.0694 236.911 35.1852C236.738 35.3009 236.509 35.3588 236.279 35.3588C235.934 35.3588 235.704 35.2431 235.474 35.1273C235.302 34.9537 235.13 34.7801 234.957 34.5486C234.843 34.3171 234.613 33.9699 234.383 33.5069L233.291 31.5972C232.889 30.9028 232.545 30.3819 232.257 29.9769C231.97 29.6296 231.626 29.3403 231.338 29.2245C231.051 29.1088 230.649 29.0509 230.132 29.0509ZM231.683 23.0324H229.213V26.9676H231.626C232.257 26.9676 232.832 26.9097 233.234 26.794C233.694 26.6782 234.038 26.4468 234.268 26.1574C234.498 25.8681 234.613 25.463 234.613 25C234.613 24.5949 234.498 24.2477 234.326 23.9583C234.153 23.6111 233.866 23.3796 233.521 23.2639C233.234 23.0903 232.602 23.0324 231.683 23.0324ZM239.955 33.5648V22.3958C239.955 21.8171 240.07 21.3542 240.3 21.0648C240.587 20.7755 240.874 20.6597 241.277 20.6597C241.679 20.6597 242.023 20.7755 242.253 21.0648C242.483 21.3542 242.655 21.8171 242.655 22.3958V33.5648C242.655 34.2014 242.483 34.6065 242.253 34.8958C242.023 35.1852 241.679 35.3588 241.277 35.3588C240.874 35.3588 240.587 35.1852 240.3 34.8958C240.07 34.6065 239.955 34.2014 239.955 33.5648ZM254.087 33.5069L253.455 31.713H248.055L247.423 33.5069C247.194 34.2593 246.964 34.7222 246.791 34.9537C246.619 35.2431 246.332 35.3588 245.987 35.3588C245.643 35.3588 245.298 35.2431 245.068 34.9537C244.838 34.6644 244.666 34.375 244.666 34.0278C244.666 33.8542 244.723 33.6227 244.781 33.4491C244.838 33.2176 244.953 32.9282 245.068 32.581L248.457 23.3218C248.572 23.0903 248.687 22.7431 248.802 22.3958C248.917 21.9907 249.089 21.7014 249.204 21.4699C249.377 21.2384 249.606 21.007 249.836 20.8912C250.066 20.7176 250.411 20.6597 250.755 20.6597C251.157 20.6597 251.445 20.7176 251.674 20.8912C251.962 21.007 252.134 21.2384 252.306 21.4699C252.421 21.7014 252.594 21.9329 252.709 22.2222C252.766 22.5116 252.938 22.8588 253.111 23.3218L256.557 32.5232C256.787 33.2176 256.96 33.7384 256.96 34.0278C256.96 34.375 256.787 34.6644 256.557 34.9537C256.328 35.1852 255.983 35.3588 255.638 35.3588C255.409 35.3588 255.236 35.3009 255.064 35.2431C254.949 35.1273 254.834 35.0116 254.719 34.8958C254.604 34.7801 254.489 34.5486 254.374 34.2593C254.26 33.9699 254.145 33.7384 254.087 33.5069ZM248.802 29.5718H252.709L250.755 23.669L248.802 29.5718ZM262.417 22.338L267.53 30.7292V22.2801C267.53 21.7593 267.645 21.3542 267.874 21.0648C268.104 20.7755 268.391 20.6597 268.736 20.6597C269.138 20.6597 269.426 20.7755 269.655 21.0648C269.885 21.2963 270 21.7593 270 22.2801V33.4491C270 34.7222 269.54 35.3588 268.564 35.3588C268.334 35.3588 268.104 35.3009 267.932 35.2431C267.702 35.1852 267.53 35.0694 267.357 34.8958C267.185 34.7222 267.07 34.5486 266.898 34.3171C266.783 34.0857 266.611 33.8542 266.496 33.6227L261.44 25.3472V33.6806C261.44 34.2593 261.326 34.6644 261.096 34.9537C260.866 35.1852 260.579 35.3588 260.177 35.3588C259.832 35.3588 259.487 35.1852 259.257 34.9537C259.028 34.6644 258.913 34.2593 258.913 33.6806V22.7431C258.913 22.2801 258.97 21.875 259.085 21.6435C259.2 21.3542 259.372 21.1227 259.66 20.8912C259.889 20.7176 260.177 20.6597 260.521 20.6597C260.751 20.6597 260.981 20.6597 261.153 20.7755C261.326 20.8333 261.44 20.9491 261.555 21.1227C261.728 21.2384 261.843 21.412 261.957 21.6435C262.13 21.875 262.245 22.1065 262.417 22.338ZM137.7 45.3704V50.4051L142.928 44.5023C143.215 44.213 143.387 43.9815 143.56 43.8657C143.789 43.6921 144.019 43.6343 144.306 43.6343C144.651 43.6343 144.996 43.75 145.226 43.9815C145.455 44.2708 145.57 44.5602 145.57 44.9074C145.57 45.3125 145.398 45.7176 144.996 46.1227L141.721 49.4792L145.455 55.2662C145.743 55.6713 145.915 56.0185 146.087 56.3079C146.202 56.5972 146.26 56.8866 146.26 57.1759C146.26 57.5231 146.145 57.7546 145.915 57.9861C145.685 58.2176 145.398 58.3333 144.996 58.3333C144.594 58.3333 144.306 58.2755 144.077 58.1019C143.847 57.9282 143.617 57.6968 143.502 57.4074C143.33 57.1181 143.157 56.8866 143.043 56.6551L139.883 51.3889L137.7 53.6458V56.5972C137.7 57.1759 137.585 57.6389 137.298 57.9282C137.068 58.2176 136.723 58.3333 136.321 58.3333C136.091 58.3333 135.862 58.2755 135.689 58.1597C135.46 58.044 135.287 57.8704 135.172 57.6389C135.115 57.4653 135.057 57.2338 135.057 57.0023C135 56.7708 135 56.4236 135 55.9606V45.3704C135 44.7917 135.115 44.3866 135.345 44.0972C135.632 43.8079 135.919 43.6343 136.321 43.6343C136.723 43.6343 137.068 43.8079 137.298 44.0972C137.585 44.3866 137.7 44.7917 137.7 45.3704ZM157.347 46.1227H151.315V49.5949H156.887C157.289 49.5949 157.634 49.7106 157.806 49.8843C158.036 50.1157 158.094 50.3472 158.094 50.6944C158.094 50.9838 158.036 51.2731 157.806 51.4468C157.634 51.6782 157.289 51.794 156.887 51.794H151.315V55.8449H157.577C157.979 55.8449 158.323 55.9606 158.553 56.1343C158.726 56.3657 158.84 56.6551 158.84 57.0023C158.84 57.2917 158.726 57.581 158.553 57.8125C158.323 57.9861 157.979 58.1019 157.577 58.1019H150.281C149.706 58.1019 149.304 57.9861 149.017 57.6968C148.787 57.4074 148.672 56.9444 148.672 56.3657V45.6597C148.672 45.2546 148.73 44.9074 148.845 44.6181C148.96 44.3866 149.132 44.1551 149.362 44.0394C149.591 43.9236 149.936 43.8657 150.281 43.8657H157.347C157.806 43.8657 158.094 43.9815 158.323 44.213C158.553 44.3866 158.611 44.6759 158.611 44.9653C158.611 45.3125 158.553 45.6019 158.323 45.8333C158.094 46.0069 157.806 46.1227 157.347 46.1227ZM171.019 53.8773C171.019 54.6875 170.789 55.4977 170.387 56.1921C169.985 56.8287 169.411 57.4074 168.606 57.7546C167.802 58.1597 166.883 58.3333 165.791 58.3333C164.47 58.3333 163.379 58.1018 162.517 57.581C161.943 57.1759 161.483 56.6551 161.081 56.0185C160.736 55.3819 160.506 54.8032 160.506 54.1667C160.506 53.8194 160.621 53.5301 160.851 53.2986C161.081 53.0093 161.368 52.8935 161.713 52.8935C162 52.8935 162.23 53.0093 162.46 53.1829C162.632 53.4143 162.804 53.7037 162.919 54.0509C163.091 54.5139 163.264 54.919 163.494 55.2083C163.666 55.4977 163.953 55.7292 164.298 55.9606C164.643 56.1343 165.102 56.25 165.677 56.25C166.481 56.25 167.113 56.0764 167.63 55.6713C168.147 55.2662 168.377 54.7454 168.377 54.1667C168.377 53.7037 168.262 53.2986 167.974 53.0093C167.687 52.7199 167.343 52.4884 166.94 52.3148C166.538 52.1991 165.964 52.0255 165.217 51.8519C164.298 51.6204 163.494 51.331 162.862 50.9838C162.23 50.6944 161.713 50.2315 161.311 49.7106C160.966 49.1319 160.794 48.4375 160.794 47.6273C160.794 46.8171 160.966 46.1227 161.368 45.544C161.77 44.9074 162.345 44.4444 163.091 44.1551C163.838 43.8079 164.7 43.6343 165.734 43.6343C166.538 43.6343 167.228 43.75 167.86 43.9815C168.434 44.213 168.951 44.5023 169.296 44.8495C169.698 45.1968 169.985 45.544 170.157 45.9491C170.33 46.3542 170.445 46.7593 170.445 47.1065C170.445 47.4537 170.33 47.8009 170.1 48.0324C169.87 48.3218 169.583 48.4375 169.238 48.4375C168.951 48.4375 168.721 48.3796 168.549 48.206C168.377 48.0324 168.204 47.8009 168.032 47.3958C167.802 46.875 167.515 46.4699 167.17 46.1227C166.826 45.8333 166.309 45.7176 165.562 45.7176C164.872 45.7176 164.298 45.8333 163.896 46.1806C163.436 46.5278 163.264 46.875 163.264 47.338C163.264 47.6273 163.321 47.9167 163.436 48.0903C163.609 48.3218 163.781 48.4954 164.068 48.6111C164.298 48.7847 164.585 48.9005 164.815 48.9583C165.102 49.0741 165.504 49.1898 166.079 49.3634C166.826 49.537 167.515 49.7685 168.147 50C168.721 50.1736 169.238 50.463 169.698 50.8102C170.1 51.0995 170.445 51.5625 170.674 52.0255C170.904 52.5463 171.019 53.125 171.019 53.8773ZM181.991 46.1227H175.96V49.5949H181.532C181.934 49.5949 182.221 49.7106 182.451 49.8843C182.623 50.1157 182.738 50.3472 182.738 50.6944C182.738 50.9838 182.623 51.2731 182.451 51.4468C182.221 51.6782 181.934 51.794 181.532 51.794H175.96V55.8449H182.221C182.623 55.8449 182.968 55.9606 183.14 56.1343C183.37 56.3657 183.485 56.6551 183.485 57.0023C183.485 57.2917 183.37 57.581 183.14 57.8125C182.968 57.9861 182.623 58.1019 182.221 58.1019H174.926C174.351 58.1019 173.949 57.9861 173.662 57.6968C173.432 57.4074 173.317 56.9444 173.317 56.3657V45.6597C173.317 45.2546 173.374 44.9074 173.489 44.6181C173.604 44.3866 173.777 44.1551 174.006 44.0394C174.236 43.9236 174.581 43.8657 174.926 43.8657H181.991C182.451 43.8657 182.738 43.9815 182.968 44.213C183.14 44.3866 183.255 44.6759 183.255 44.9653C183.255 45.3125 183.14 45.6019 182.968 45.8333C182.738 46.0069 182.451 46.1227 181.991 46.1227ZM188.311 45.3704V49.4792H194.113V45.3704C194.113 44.7917 194.228 44.3866 194.457 44.0972C194.687 43.8079 195.032 43.6343 195.434 43.6343C195.836 43.6343 196.123 43.8079 196.411 44.0972C196.64 44.3866 196.755 44.7917 196.755 45.3704V56.5972C196.755 57.1759 196.64 57.6389 196.411 57.9282C196.123 58.2176 195.779 58.3333 195.434 58.3333C195.032 58.3333 194.687 58.2176 194.457 57.9282C194.228 57.6389 194.113 57.1759 194.113 56.5972V51.794H188.311V56.5972C188.311 57.1759 188.196 57.6389 187.909 57.9282C187.679 58.2176 187.334 58.3333 186.932 58.3333C186.53 58.3333 186.243 58.2176 186.013 57.9282C185.726 57.6389 185.611 57.1759 185.611 56.5972V45.3704C185.611 44.7917 185.726 44.3866 186.013 44.0972C186.243 43.8079 186.53 43.6343 186.932 43.6343C187.334 43.6343 187.679 43.8079 187.909 44.0972C188.196 44.3866 188.311 44.7917 188.311 45.3704ZM208.072 56.4815L207.44 54.7454H202.098L201.466 56.5394C201.236 57.2338 201.006 57.7546 200.834 57.9861C200.662 58.2176 200.374 58.3333 199.972 58.3333C199.628 58.3333 199.34 58.2176 199.111 57.9861C198.823 57.6968 198.709 57.4074 198.709 57.0602C198.709 56.8866 198.709 56.6551 198.766 56.4815C198.823 56.25 198.938 55.9606 199.111 55.6134L202.443 46.3542C202.557 46.0648 202.672 45.7755 202.787 45.3704C202.96 45.0232 203.074 44.7338 203.247 44.4444C203.419 44.213 203.591 44.0394 203.821 43.8657C204.109 43.6921 204.396 43.6343 204.798 43.6343C205.143 43.6343 205.487 43.6921 205.717 43.8657C205.947 44.0394 206.177 44.213 206.291 44.4444C206.464 44.6759 206.579 44.9653 206.694 45.2546C206.809 45.4861 206.923 45.8912 207.096 46.3542L210.543 55.4977C210.83 56.1921 210.945 56.713 210.945 57.0602C210.945 57.3495 210.83 57.6968 210.6 57.9282C210.313 58.2176 210.026 58.3333 209.623 58.3333C209.451 58.3333 209.279 58.3333 209.106 58.2176C208.934 58.1597 208.819 58.044 208.704 57.9282C208.647 57.7546 208.532 57.5231 208.417 57.2917C208.302 57.0023 208.187 56.713 208.072 56.4815ZM202.787 52.5463H206.751L204.74 46.7014L202.787 52.5463ZM219.906 46.2963H216.977V56.5972C216.977 57.1759 216.862 57.6389 216.574 57.9282C216.345 58.2176 216 58.3333 215.655 58.3333C215.253 58.3333 214.909 58.2176 214.679 57.9282C214.391 57.6389 214.277 57.1759 214.277 56.5972V46.2963H211.347C210.887 46.2963 210.543 46.1806 210.37 45.9491C210.14 45.7176 210.026 45.4282 210.026 45.081C210.026 44.7338 210.14 44.4444 210.37 44.213C210.6 43.9815 210.945 43.8657 211.347 43.8657H219.906C220.366 43.8657 220.711 43.9815 220.94 44.213C221.17 44.4444 221.285 44.7338 221.285 45.081C221.285 45.4282 221.17 45.7176 220.94 45.9491C220.711 46.1806 220.366 46.2963 219.906 46.2963ZM230.132 56.4815L229.5 54.7454H224.157L223.526 56.5394C223.238 57.2338 223.066 57.7546 222.894 57.9861C222.721 58.2176 222.434 58.3333 222.032 58.3333C221.687 58.3333 221.4 58.2176 221.113 57.9861C220.883 57.6968 220.711 57.4074 220.711 57.0602C220.711 56.8866 220.768 56.6551 220.826 56.4815C220.883 56.25 220.998 55.9606 221.113 55.6134L224.502 46.3542C224.617 46.0648 224.732 45.7755 224.847 45.3704C224.962 45.0232 225.134 44.7338 225.306 44.4444C225.421 44.213 225.651 44.0394 225.881 43.8657C226.111 43.6921 226.455 43.6343 226.8 43.6343C227.202 43.6343 227.489 43.6921 227.719 43.8657C228.006 44.0394 228.179 44.213 228.351 44.4444C228.523 44.6759 228.638 44.9653 228.753 45.2546C228.868 45.4861 228.983 45.8912 229.155 46.3542L232.602 55.4977C232.832 56.1921 233.004 56.713 233.004 57.0602C233.004 57.3495 232.889 57.6968 232.602 57.9282C232.372 58.2176 232.028 58.3333 231.683 58.3333C231.453 58.3333 231.281 58.3333 231.166 58.2176C230.994 58.1597 230.879 58.044 230.764 57.9282C230.649 57.7546 230.534 57.5231 230.419 57.2917C230.304 57.0023 230.247 56.713 230.132 56.4815ZM224.847 52.5463H228.811L226.8 46.7014L224.847 52.5463ZM238.462 45.3704L243.574 53.7616V45.3125C243.574 44.7338 243.689 44.3287 243.919 44.0394C244.149 43.8079 244.436 43.6343 244.838 43.6343C245.183 43.6343 245.47 43.8079 245.7 44.0394C245.93 44.3287 246.045 44.7338 246.045 45.3125V56.4815C246.045 57.7546 245.585 58.3333 244.609 58.3333C244.379 58.3333 244.149 58.3333 243.977 58.2176C243.747 58.1597 243.574 58.044 243.402 57.8704C243.23 57.7546 243.115 57.5231 242.943 57.3495C242.828 57.1181 242.655 56.8866 242.54 56.6551L237.485 48.3796V56.713C237.485 57.2338 237.37 57.6389 237.14 57.9282C236.911 58.2176 236.623 58.3333 236.221 58.3333C235.877 58.3333 235.589 58.2176 235.36 57.9282C235.13 57.6389 235.015 57.2338 235.015 56.713V45.7176C235.015 45.2546 235.015 44.9074 235.13 44.6181C235.245 44.3287 235.417 44.0972 235.704 43.9236C235.991 43.75 236.279 43.6343 236.566 43.6343C236.796 43.6343 237.026 43.6921 237.198 43.75C237.37 43.8657 237.485 43.9815 237.657 44.0972C237.772 44.2708 237.887 44.4444 238.002 44.6759C238.174 44.9074 238.289 45.1389 238.462 45.3704ZM138.562 75.0579H137.643V79.6296C137.643 80.2083 137.528 80.6713 137.298 80.9606C137.011 81.25 136.723 81.3657 136.321 81.3657C135.862 81.3657 135.574 81.1921 135.345 80.9028C135.115 80.6134 135 80.2083 135 79.6296V68.6343C135 68.0555 135.115 67.5926 135.345 67.3032C135.632 67.0139 136.034 66.8981 136.609 66.8981H140.974C141.549 66.8981 142.066 66.8981 142.526 66.956C142.928 67.0139 143.33 67.1296 143.674 67.3032C144.077 67.4768 144.421 67.7662 144.766 68.1134C145.111 68.4606 145.34 68.8657 145.513 69.3287C145.628 69.7917 145.743 70.3125 145.743 70.8333C145.743 71.875 145.455 72.7431 144.881 73.3796C144.364 73.9583 143.502 74.4213 142.353 74.7106C142.87 75 143.33 75.3472 143.732 75.9259C144.191 76.4468 144.536 77.0255 144.881 77.6042C145.226 78.1829 145.513 78.7616 145.685 79.2245C145.857 79.6875 145.972 80.0347 145.972 80.2083C145.972 80.3819 145.915 80.5556 145.8 80.787C145.685 80.9606 145.57 81.0764 145.34 81.1921C145.168 81.3079 144.938 81.3657 144.709 81.3657C144.364 81.3657 144.134 81.3079 143.904 81.1343C143.732 80.9606 143.56 80.787 143.387 80.5555C143.272 80.3241 143.043 79.9768 142.813 79.5139L141.721 77.6042C141.319 76.9097 140.974 76.3889 140.687 75.9838C140.4 75.6366 140.055 75.4051 139.768 75.2315C139.481 75.1157 139.079 75.0579 138.562 75.0579ZM140.113 69.0393H137.643V72.9745H140.055C140.687 72.9745 141.204 72.9167 141.664 72.8009C142.123 72.6852 142.468 72.4537 142.698 72.1643C142.928 71.875 143.043 71.4699 143.043 71.0069C143.043 70.6018 142.928 70.2546 142.755 69.9653C142.583 69.6181 142.296 69.4444 141.951 69.2708C141.664 69.1551 141.032 69.0393 140.113 69.0393ZM157.002 69.0972H150.97V72.6273H156.485C156.887 72.6273 157.232 72.7431 157.404 72.9167C157.634 73.0903 157.691 73.3796 157.691 73.669C157.691 74.0162 157.634 74.3055 157.404 74.4792C157.232 74.6528 156.945 74.7685 156.485 74.7685H150.97V78.8194H157.174C157.634 78.8194 157.921 78.9352 158.151 79.1667C158.381 79.3403 158.438 79.6296 158.438 79.9768C158.438 80.3241 158.381 80.6134 158.151 80.787C157.921 81.0185 157.634 81.1343 157.174 81.1343H149.936C149.304 81.1343 148.902 80.9606 148.672 80.7292C148.385 80.4398 148.27 79.9768 148.27 79.3403V68.6343C148.27 68.2292 148.328 67.8819 148.443 67.6505C148.557 67.3611 148.73 67.1875 148.96 67.0718C149.247 66.956 149.534 66.8981 149.936 66.8981H157.002C157.404 66.8981 157.749 67.0139 157.921 67.1875C158.151 67.419 158.266 67.6505 158.266 67.9977C158.266 68.3449 158.151 68.6343 157.921 68.8079C157.749 69.0393 157.404 69.0972 157.002 69.0972ZM165.734 75.5787H163.264V79.6296C163.264 80.2083 163.149 80.6134 162.862 80.9028C162.632 81.1921 162.287 81.3657 161.943 81.3657C161.54 81.3657 161.196 81.1921 160.966 80.9028C160.736 80.6134 160.564 80.2083 160.564 79.6296V68.6343C160.564 67.9977 160.736 67.5926 160.966 67.3032C161.253 67.0139 161.713 66.8981 162.287 66.8981H165.734C166.711 66.8981 167.515 66.956 168.089 67.1296C168.606 67.3032 169.066 67.5926 169.468 67.9398C169.87 68.3449 170.157 68.8079 170.387 69.3287C170.56 69.8495 170.674 70.4861 170.674 71.1806C170.674 72.6273 170.272 73.7268 169.411 74.4792C168.606 75.2315 167.343 75.5787 165.734 75.5787ZM165.045 69.0393H163.264V73.4375H165.045C165.677 73.4375 166.251 73.3218 166.653 73.206C167.055 73.0324 167.4 72.8009 167.63 72.5116C167.86 72.1643 167.974 71.7593 167.974 71.2384C167.974 70.6018 167.802 70.081 167.457 69.6759C167.055 69.2708 166.251 69.0393 165.045 69.0393ZM172.915 75.2315V68.4028C172.915 67.8241 173.03 67.3611 173.317 67.0718C173.547 66.7824 173.834 66.6667 174.236 66.6667C174.638 66.6667 174.983 66.7824 175.213 67.0718C175.5 67.3611 175.615 67.8241 175.615 68.4028V75.4051C175.615 76.2153 175.672 76.8518 175.845 77.3727C176.017 77.9514 176.304 78.3565 176.706 78.6458C177.166 78.9352 177.74 79.0509 178.487 79.0509C179.521 79.0509 180.268 78.7616 180.728 78.1829C181.13 77.6042 181.36 76.6782 181.36 75.463V68.4028C181.36 67.8241 181.474 67.3611 181.704 67.0718C181.934 66.7824 182.279 66.6667 182.681 66.6667C183.083 66.6667 183.428 66.7824 183.657 67.0718C183.887 67.3611 184.06 67.8241 184.06 68.4028V75.2315C184.06 76.331 183.945 77.2569 183.715 78.0093C183.543 78.7616 183.14 79.3981 182.623 79.9768C182.106 80.4398 181.532 80.787 180.9 81.0185C180.268 81.25 179.521 81.3657 178.66 81.3657C177.683 81.3657 176.821 81.25 176.074 81.0185C175.328 80.787 174.753 80.3819 174.294 79.919C173.777 79.3981 173.489 78.7616 173.26 78.0093C173.03 77.2569 172.915 76.331 172.915 75.2315Z" fill="white"/>
<path fill-rule="evenodd" clip-rule="evenodd" d="M192.562 81.1343H188.54C187.966 81.1343 187.564 80.9607 187.277 80.7292C187.047 80.4398 186.932 79.9769 186.932 79.3403V68.6343C186.932 68.0556 187.047 67.5926 187.277 67.3033C187.564 67.0139 187.966 66.8982 188.54 66.8982H192.849C193.481 66.8982 193.998 66.956 194.457 67.0139C194.917 67.1297 195.319 67.2454 195.721 67.4769C196.008 67.7084 196.296 67.9398 196.526 68.2871C196.755 68.5764 196.985 68.9236 197.1 69.2709C197.215 69.6759 197.272 70.0232 197.272 70.4861C197.272 71.875 196.64 72.9167 195.319 73.6111C197.043 74.1898 197.904 75.3472 197.904 77.0834C197.904 77.8357 197.732 78.588 197.33 79.2246C196.928 79.8611 196.468 80.3241 195.779 80.6135C195.377 80.7871 194.917 80.9607 194.4 81.0185C193.883 81.0764 193.251 81.1343 192.562 81.1343ZM192.389 74.8264H189.574V78.9352H192.447C194.285 78.9352 195.204 78.2408 195.204 76.8519C195.204 76.1574 194.974 75.6366 194.457 75.2894C193.998 74.9422 193.308 74.8264 192.389 74.8264ZM189.574 69.0394V72.7431H192.045C192.734 72.7431 193.251 72.6852 193.596 72.5116C193.94 72.3959 194.228 72.1644 194.457 71.7593C194.572 71.4699 194.63 71.1806 194.63 70.8334C194.63 70.1389 194.4 69.6759 193.94 69.3866C193.481 69.1551 192.734 69.0394 191.757 69.0394H189.574ZM202.845 68.4028V78.7616H208.245C208.704 78.7616 209.049 78.8773 209.279 79.1088C209.508 79.3403 209.623 79.6297 209.623 79.9769C209.623 80.3241 209.508 80.6135 209.279 80.7871C209.049 81.0185 208.704 81.1343 208.245 81.1343H201.811C201.236 81.1343 200.777 80.9607 200.547 80.7292C200.317 80.4398 200.145 79.9769 200.145 79.3403V68.4028C200.145 67.8241 200.26 67.3611 200.547 67.0718C200.777 66.7824 201.064 66.6667 201.466 66.6667C201.868 66.6667 202.213 66.7824 202.443 67.0718C202.73 67.3611 202.845 67.8241 202.845 68.4028ZM211.462 79.6297V68.4028C211.462 67.8241 211.577 67.3611 211.864 67.0718C212.094 66.7824 212.438 66.6667 212.783 66.6667C213.185 66.6667 213.53 66.7824 213.76 67.0718C214.047 67.3611 214.162 67.8241 214.162 68.4028V79.6297C214.162 80.2084 214.047 80.6135 213.76 80.9028C213.53 81.1922 213.185 81.3658 212.783 81.3658C212.438 81.3658 212.094 81.1922 211.864 80.9028C211.634 80.6135 211.462 80.2084 211.462 79.6297ZM219.849 68.4028V73.3797L225.077 67.4769C225.364 67.1875 225.594 67.0139 225.766 66.8403C225.938 66.7246 226.168 66.6667 226.455 66.6667C226.857 66.6667 227.145 66.7824 227.374 67.0139C227.604 67.2454 227.719 67.5347 227.719 67.882C227.719 68.3449 227.547 68.75 227.145 69.1551L223.87 72.4537L227.662 78.2408C227.891 78.6459 228.121 78.9931 228.236 79.3403C228.351 79.6297 228.408 79.919 228.408 80.2084C228.408 80.4977 228.294 80.7871 228.064 81.0185C227.834 81.25 227.547 81.3658 227.145 81.3658C226.743 81.3658 226.455 81.25 226.226 81.1343C225.996 80.9607 225.823 80.7292 225.651 80.4398C225.479 80.1505 225.306 79.8611 225.191 79.6297L222.032 74.4213L219.849 76.6783V79.6297C219.849 80.2084 219.734 80.6713 219.447 80.9607C219.217 81.25 218.872 81.3658 218.47 81.3658C218.24 81.3658 218.068 81.3079 217.838 81.1922C217.608 81.0185 217.436 80.8449 217.321 80.6713C217.264 80.4398 217.206 80.2662 217.206 80.0347C217.149 79.8033 217.149 79.456 217.149 78.9931V68.4028C217.149 67.8241 217.264 67.3611 217.551 67.0718C217.781 66.7824 218.068 66.6667 218.47 66.6667C218.872 66.6667 219.217 66.7824 219.447 67.0718C219.734 67.3611 219.849 67.8241 219.849 68.4028ZM135.115 102.604V91.4352C135.115 90.7986 135.23 90.3935 135.46 90.1042C135.689 89.8148 136.034 89.6412 136.436 89.6412C136.838 89.6412 137.183 89.8148 137.413 90.1042C137.643 90.3935 137.757 90.7986 137.757 91.4352V102.604C137.757 103.183 137.643 103.646 137.413 103.935C137.183 104.225 136.838 104.398 136.436 104.398C136.034 104.398 135.747 104.225 135.46 103.935C135.23 103.646 135.115 103.183 135.115 102.604ZM144.249 91.3773L149.419 99.7686V91.3195C149.419 90.7408 149.534 90.3357 149.764 90.0463C149.936 89.8148 150.281 89.6412 150.626 89.6412C151.028 89.6412 151.315 89.8148 151.545 90.0463C151.774 90.3357 151.889 90.7408 151.889 91.3195V102.488C151.889 103.762 151.372 104.398 150.453 104.398C150.166 104.398 149.994 104.34 149.764 104.282C149.591 104.167 149.419 104.051 149.247 103.935C149.074 103.762 148.902 103.53 148.787 103.357C148.615 103.125 148.5 102.894 148.328 102.662L143.33 94.3866V102.72C143.33 103.241 143.215 103.704 142.985 103.935C142.755 104.225 142.411 104.398 142.066 104.398C141.664 104.398 141.377 104.225 141.147 103.935C140.917 103.646 140.802 103.241 140.802 102.72V91.7246C140.802 91.2616 140.86 90.9144 140.974 90.625C141.089 90.3357 141.262 90.1042 141.549 89.9306C141.779 89.757 142.066 89.6412 142.353 89.6412C142.64 89.6412 142.813 89.6991 142.985 89.8148C143.157 89.8727 143.33 89.9885 143.445 90.1042C143.56 90.2778 143.732 90.4514 143.847 90.6829C143.962 90.9144 144.134 91.1459 144.249 91.3773ZM156.485 89.8727H159.932C160.851 89.8727 161.655 89.9885 162.287 90.1621C162.919 90.3357 163.551 90.6829 164.068 91.2037C165.447 92.4769 166.136 94.3866 166.136 96.9908C166.136 97.8588 166.079 98.6111 165.906 99.3056C165.791 100 165.562 100.637 165.274 101.215C164.987 101.794 164.643 102.315 164.183 102.72C163.838 103.067 163.436 103.357 162.977 103.588C162.574 103.762 162.115 103.935 161.655 103.993C161.138 104.109 160.621 104.109 159.989 104.109H156.543C156.026 104.109 155.681 104.051 155.394 103.877C155.164 103.762 154.991 103.53 154.934 103.241C154.877 102.951 154.819 102.546 154.819 102.083V91.6667C154.819 91.0301 154.934 90.5672 155.221 90.3357C155.451 90.0463 155.911 89.8727 156.485 89.8727ZM157.519 92.1875V101.852H159.53C159.989 101.852 160.334 101.852 160.564 101.794C160.851 101.794 161.081 101.736 161.368 101.62C161.655 101.505 161.885 101.389 162.057 101.157C162.977 100.347 163.379 98.9584 163.379 96.9908C163.379 95.544 163.206 94.5023 162.804 93.8079C162.402 93.1135 161.943 92.6505 161.368 92.4769C160.794 92.3033 160.104 92.1875 159.243 92.1875H157.519ZM174.294 89.6412C175.672 89.6412 176.821 89.9306 177.798 90.5672C178.774 91.1459 179.521 92.0139 180.038 93.1135C180.555 94.213 180.785 95.4861 180.785 96.9908C180.785 98.0903 180.67 99.0741 180.383 100C180.096 100.868 179.694 101.678 179.119 102.315C178.602 103.009 177.913 103.472 177.108 103.877C176.304 104.225 175.385 104.398 174.351 104.398C173.317 104.398 172.398 104.167 171.594 103.819C170.732 103.472 170.043 102.951 169.526 102.315C168.951 101.678 168.549 100.868 168.262 99.9422C167.974 99.0162 167.86 98.0324 167.86 96.9908C167.86 95.8912 168.032 94.9074 168.319 93.9815C168.606 93.0556 169.008 92.3033 169.583 91.6667C170.1 90.9723 170.789 90.5093 171.594 90.1621C172.398 89.8148 173.26 89.6412 174.294 89.6412ZM178.085 96.9908C178.085 95.9491 177.913 95.0232 177.626 94.2709C177.281 93.5185 176.879 92.9398 176.304 92.5348C175.73 92.1297 175.04 91.956 174.294 91.956C173.777 91.956 173.26 92.0718 172.8 92.2454C172.34 92.4769 171.938 92.8241 171.651 93.2292C171.306 93.6343 171.077 94.1551 170.847 94.7917C170.674 95.4283 170.56 96.1806 170.56 96.9908C170.56 97.801 170.674 98.4954 170.847 99.1898C171.077 99.8264 171.306 100.347 171.651 100.81C171.996 101.215 172.398 101.563 172.857 101.736C173.317 101.968 173.777 102.083 174.351 102.083C174.983 102.083 175.615 101.91 176.189 101.505C176.764 101.157 177.223 100.579 177.568 99.8264C177.913 99.0741 178.085 98.0903 178.085 96.9908ZM186.587 91.3773L191.757 99.7686V91.3195C191.757 90.7408 191.872 90.3357 192.045 90.0463C192.274 89.8148 192.562 89.6412 192.964 89.6412C193.308 89.6412 193.653 89.8148 193.883 90.0463C194.055 90.3357 194.17 90.7408 194.17 91.3195V102.488C194.17 103.762 193.711 104.398 192.734 104.398C192.504 104.398 192.274 104.34 192.102 104.282C191.93 104.167 191.757 104.051 191.585 103.935C191.413 103.762 191.24 103.53 191.068 103.357C190.953 103.125 190.781 102.894 190.666 102.662L185.668 94.3866V102.72C185.668 103.241 185.553 103.704 185.266 103.935C185.036 104.225 184.749 104.398 184.404 104.398C184.002 104.398 183.715 104.225 183.485 103.935C183.255 103.646 183.14 103.241 183.14 102.72V91.7246C183.14 91.2616 183.198 90.9144 183.255 90.625C183.37 90.3357 183.6 90.1042 183.83 89.9306C184.117 89.757 184.404 89.6412 184.691 89.6412C184.921 89.6412 185.151 89.6991 185.323 89.8148C185.496 89.8727 185.668 89.9885 185.783 90.1042C185.898 90.2778 186.013 90.4514 186.185 90.6829C186.3 90.9144 186.472 91.1459 186.587 91.3773ZM205.832 92.1297H199.8V95.6019H205.372C205.774 95.6019 206.062 95.7176 206.291 95.8912C206.464 96.1227 206.579 96.3542 206.579 96.7014C206.579 97.0486 206.464 97.2801 206.291 97.5116C206.062 97.6852 205.774 97.801 205.372 97.801H199.8V101.852H206.062C206.464 101.852 206.751 101.968 206.981 102.141C207.211 102.373 207.326 102.662 207.326 103.009C207.326 103.357 207.211 103.588 206.981 103.819C206.751 104.051 206.464 104.109 206.062 104.109H198.766C198.191 104.109 197.789 103.993 197.502 103.704C197.272 103.414 197.1 103.009 197.1 102.373V91.6667C197.1 91.2616 197.157 90.9144 197.272 90.625C197.387 90.3935 197.617 90.2199 197.847 90.1042C198.077 89.9306 198.364 89.8727 198.766 89.8727H205.832C206.234 89.8727 206.579 89.9885 206.808 90.2199C206.981 90.3935 207.096 90.6829 207.096 91.0301C207.096 91.3195 206.981 91.6088 206.808 91.8403C206.579 92.0139 206.234 92.1297 205.832 92.1297ZM219.504 99.8843C219.504 100.752 219.274 101.505 218.872 102.199C218.47 102.894 217.838 103.414 217.034 103.819C216.287 104.167 215.311 104.398 214.219 104.398C212.955 104.398 211.864 104.109 211.002 103.588C210.428 103.183 209.911 102.662 209.566 102.025C209.164 101.389 208.991 100.81 208.991 100.174C208.991 99.8264 209.106 99.5371 209.336 99.3056C209.566 99.0741 209.853 98.9005 210.198 98.9005C210.485 98.9005 210.715 99.0162 210.887 99.1898C211.117 99.4213 211.289 99.7107 211.404 100.058C211.577 100.521 211.749 100.926 211.921 101.215C212.151 101.505 212.438 101.794 212.783 101.968C213.128 102.141 213.587 102.257 214.162 102.257C214.966 102.257 215.598 102.083 216.115 101.678C216.574 101.273 216.862 100.752 216.862 100.174C216.862 99.7107 216.689 99.3056 216.46 99.0162C216.172 98.7269 215.828 98.4954 215.426 98.3797C214.966 98.2061 214.391 98.0324 213.702 97.8588C212.783 97.6273 211.979 97.338 211.347 96.9908C210.657 96.7014 210.198 96.2385 209.796 95.7176C209.451 95.1389 209.221 94.4445 209.221 93.6343C209.221 92.882 209.451 92.1875 209.853 91.551C210.255 90.9723 210.83 90.4514 211.577 90.1621C212.323 89.8148 213.185 89.6412 214.219 89.6412C215.023 89.6412 215.713 89.757 216.287 89.9885C216.919 90.2199 217.379 90.5093 217.781 90.8565C218.183 91.2037 218.47 91.6088 218.643 91.956C218.815 92.3611 218.93 92.7662 218.93 93.1135C218.93 93.4607 218.815 93.8079 218.585 94.0394C218.355 94.3287 218.068 94.5023 217.723 94.5023C217.436 94.5023 217.206 94.3866 217.034 94.213C216.862 94.0394 216.689 93.8079 216.517 93.4028C216.287 92.882 216 92.4769 215.655 92.1875C215.311 91.8403 214.794 91.7246 214.047 91.7246C213.357 91.7246 212.783 91.8982 212.323 92.1875C211.921 92.5348 211.691 92.9398 211.691 93.4028C211.691 93.6922 211.806 93.9236 211.921 94.0973C212.094 94.3287 212.266 94.5023 212.553 94.676C212.783 94.7917 213.013 94.9074 213.3 95.0232C213.53 95.081 213.989 95.1968 214.564 95.3704C215.311 95.544 216 95.7755 216.574 96.007C217.206 96.2385 217.723 96.4699 218.126 96.8172C218.585 97.1644 218.872 97.5695 219.102 98.0324C219.389 98.5533 219.504 99.132 219.504 99.8843ZM221.86 102.604V91.4352C221.86 90.7986 221.974 90.3935 222.262 90.1042C222.491 89.8148 222.779 89.6412 223.181 89.6412C223.583 89.6412 223.928 89.8148 224.157 90.1042C224.445 90.3935 224.56 90.7986 224.56 91.4352V102.604C224.56 103.183 224.445 103.646 224.157 103.935C223.928 104.225 223.583 104.398 223.181 104.398C222.836 104.398 222.491 104.225 222.262 103.935C221.974 103.646 221.86 103.183 221.86 102.604ZM235.991 102.546L235.36 100.752H230.017L229.385 102.546C229.098 103.241 228.926 103.762 228.753 103.993C228.581 104.225 228.294 104.398 227.891 104.398C227.547 104.398 227.26 104.225 226.972 103.993C226.743 103.704 226.57 103.414 226.57 103.067C226.57 102.894 226.628 102.662 226.685 102.488C226.743 102.257 226.857 101.968 226.972 101.62L230.362 92.3611C230.477 92.1297 230.591 91.7824 230.706 91.4352C230.821 91.0301 230.994 90.7408 231.166 90.5093C231.281 90.2199 231.511 90.0463 231.74 89.8727C231.97 89.757 232.315 89.6412 232.66 89.6412C233.062 89.6412 233.349 89.757 233.579 89.8727C233.866 90.0463 234.038 90.2199 234.211 90.4514C234.383 90.7408 234.498 90.9723 234.613 91.2616C234.728 91.551 234.843 91.8982 235.015 92.3611L238.462 101.505C238.749 102.257 238.864 102.72 238.864 103.067C238.864 103.357 238.749 103.704 238.462 103.935C238.232 104.225 237.887 104.398 237.543 104.398C237.313 104.398 237.14 104.34 237.026 104.225C236.853 104.167 236.738 104.051 236.623 103.935C236.508 103.762 236.394 103.588 236.279 103.299C236.164 103.009 236.106 102.72 235.991 102.546ZM230.706 98.5533H234.67L232.66 92.7084L230.706 98.5533Z" fill="white"/>
</g>
<defs>
<clipPath id="clip0_175_2608">
<rect width="270" height="125" fill="white"/>
</clipPath>
</defs>
</svg>
