<svg width="35" height="35" viewBox="0 0 35 35" fill="none" xmlns="http://www.w3.org/2000/svg">
<path opacity="0.2" d="M33.5901 26.2639C33.3182 28.2958 32.3177 30.1597 30.7745 31.5091C29.2313 32.8585 27.2505 33.6016 25.2006 33.6C18.8884 33.6 12.8347 31.0925 8.3713 26.6291C3.9079 22.1656 1.40039 16.112 1.40039 9.79975C1.39883 7.74979 2.14183 5.76902 3.49124 4.22583C4.84065 2.68263 6.7046 1.68205 8.73644 1.41017C9.0368 1.37449 9.34064 1.43704 9.60248 1.58846C9.86432 1.73989 10.0701 1.97204 10.189 2.25018L13.8867 10.5103C13.9776 10.7224 14.0146 10.9537 13.9944 11.1836C13.9743 11.4135 13.8976 11.6349 13.7712 11.828L10.0315 16.2748C9.8988 16.475 9.82035 16.7062 9.80379 16.9457C9.78722 17.1853 9.83311 17.4251 9.93695 17.6416C11.3842 20.6044 14.4467 23.6301 17.4183 25.0634C17.6359 25.1668 17.8768 25.2116 18.1171 25.1935C18.3574 25.1754 18.5888 25.095 18.7885 24.9601L23.1635 21.2326C23.3574 21.1036 23.5804 21.025 23.8124 21.0039C24.0443 20.9828 24.2778 21.0199 24.4918 21.1119L32.7449 24.8096C33.0243 24.9277 33.2578 25.1334 33.4102 25.3957C33.5627 25.658 33.6258 25.9627 33.5901 26.2639Z" fill="black"/>
<path d="M32.2879 25.5836L24.1603 21.9435L23.8719 21.8144L23.6314 22.0195L19.3773 25.6489C19.351 25.6713 19.3234 25.6922 19.2947 25.7115L32.2879 25.5836ZM32.2879 25.5836H32.7705L32.6959 26.1491C32.4562 27.9658 31.5629 29.633 30.1829 30.8387C28.8032 32.0442 27.0317 32.7059 25.1996 32.7C25.1993 32.7 25.1989 32.7 25.1985 32.7L25.2002 32.2L32.2879 25.5836ZM9.41141 2.73438L13.0339 10.8418L13.1612 11.1268L12.9611 11.3663L9.34378 15.6959L9.337 15.704L9.33691 15.7039C9.31765 15.726 9.30018 15.7496 9.28467 15.7745L9.27931 15.7831L9.27923 15.783C9.0629 16.115 8.936 16.4972 8.91082 16.8926C8.88565 17.2876 8.96287 17.6825 9.135 18.0389C10.6708 21.1794 13.855 24.3405 17.032 25.876C17.391 26.0464 17.7879 26.1209 18.1842 26.0922C18.5808 26.0635 18.9632 25.9324 19.2941 25.7119L9.41141 2.73438ZM9.41141 2.73438L9.4631 2.22021L8.83604 2.30409C7.02182 2.54676 5.35796 3.4415 4.15519 4.82122C2.95259 6.20076 2.29317 7.97081 2.30004 9.80091L9.41141 2.73438ZM33.1105 23.9867L33.1105 23.9867L33.1159 23.989C33.5709 24.1866 33.9499 24.5259 34.1963 24.9565C34.4423 25.3865 34.5429 25.8843 34.4832 26.3761C34.1866 28.626 33.0813 30.6912 31.3737 32.1861C29.6655 33.6816 27.4714 34.5041 25.2011 34.5H25.2002C11.5812 34.5 0.500016 23.4187 0.500017 9.79974L0.500015 9.79884C0.495945 7.52854 1.31844 5.33439 2.81387 3.62619C4.30877 1.9186 6.37395 0.813352 8.62391 0.516689C9.11575 0.45712 9.61371 0.557959 10.0436 0.804231C10.4742 1.05087 10.8135 1.43016 11.0108 1.88548L11.0108 1.88549L11.0134 1.89132L14.6744 10.052V10.0685L14.7147 10.1628C14.864 10.5114 14.9248 10.8914 14.8917 11.2691C14.8586 11.6461 14.7331 12.009 14.5262 12.3258C14.5068 12.3548 14.4847 12.3844 14.4568 12.4193L10.8244 16.7388L10.6144 16.9885L10.7585 17.2813C12.1188 20.0456 14.9863 22.8907 17.7839 24.2496L18.078 24.3925L18.3268 24.1804L22.584 20.551C22.5844 20.5507 22.5847 20.5504 22.5851 20.5502C22.6116 20.5279 22.6394 20.5071 22.6684 20.4881L22.6706 20.4866C22.9887 20.2744 23.3547 20.1449 23.7355 20.1097C24.114 20.0748 24.4953 20.1342 24.8451 20.2827L24.8611 20.29L24.8611 20.2901L24.8662 20.2924L33.1105 23.9867Z" fill="black" stroke="white"/>
</svg>
