<svg width="35" height="35" viewBox="0 0 35 35" fill="none" xmlns="http://www.w3.org/2000/svg">
<g clip-path="url(#clip0_106_765)">
<path d="M26.7969 0H8.20312C3.67266 0 0 3.67266 0 8.20312V26.7969C0 31.3273 3.67266 35 8.20312 35H26.7969C31.3273 35 35 31.3273 35 26.7969V8.20312C35 3.67266 31.3273 0 26.7969 0Z" fill="url(#paint0_radial_106_765)" fill-opacity="0.1"/>
<path d="M26.7969 0H8.20312C3.67266 0 0 3.67266 0 8.20312V26.7969C0 31.3273 3.67266 35 8.20312 35H26.7969C31.3273 35 35 31.3273 35 26.7969V8.20312C35 3.67266 31.3273 0 26.7969 0Z" fill="url(#paint1_radial_106_765)" fill-opacity="0.1"/>
<path d="M18.0008 9C15.5566 9 15.2498 9.01071 14.2898 9.05436C13.3317 9.09828 12.6777 9.24993 12.1055 9.4725C11.5134 9.70235 11.0113 10.0099 10.5111 10.5103C10.0104 11.0106 9.7029 11.5127 9.47232 12.1044C9.24912 12.6768 9.09729 13.3311 9.05418 14.2888C9.01125 15.2488 9 15.5557 9 18C9 20.4443 9.0108 20.7501 9.05436 21.71C9.09846 22.6682 9.25011 23.3222 9.4725 23.8944C9.70254 24.4864 10.0101 24.9885 10.5105 25.4887C11.0106 25.9894 11.5127 26.2976 12.1043 26.5275C12.6769 26.7501 13.3311 26.9017 14.289 26.9456C15.2491 26.9893 15.5556 27 17.9997 27C20.4442 27 20.75 26.9893 21.71 26.9456C22.6681 26.9017 23.3229 26.7501 23.8955 26.5275C24.4873 26.2976 24.9887 25.9894 25.4887 25.4887C25.9894 24.9885 26.2968 24.4864 26.5275 23.8947C26.7487 23.3222 26.9006 22.668 26.9456 21.7102C26.9888 20.7503 27 20.4443 27 18C27 15.5557 26.9888 15.249 26.9456 14.289C26.9006 13.3308 26.7487 12.6769 26.5275 12.1047C26.2968 11.5127 25.9894 11.0106 25.4887 10.5103C24.9881 10.0097 24.4875 9.70217 23.895 9.47259C23.3212 9.24993 22.6669 9.09819 21.7087 9.05436C20.7487 9.01071 20.443 9 17.998 9H18.0008ZM17.1934 10.6207C17.1934 10.6214 17.1939 10.6219 17.1945 10.6219C17.4339 10.6215 17.7009 10.6219 18.0008 10.6219C20.4039 10.6219 20.6887 10.6305 21.6376 10.6736C22.5151 10.7138 22.9914 10.8604 23.3087 10.9836C23.7287 11.1467 24.0281 11.3417 24.3429 11.6568C24.6579 11.9718 24.8529 12.2717 25.0164 12.6918C25.1396 13.0086 25.2864 13.4848 25.3264 14.3623C25.3695 15.3111 25.3788 15.596 25.3788 17.9979C25.3788 20.3998 25.3695 20.6849 25.3264 21.6335C25.2862 22.511 25.1396 22.9873 25.0164 23.3042C24.8533 23.7242 24.6579 24.0233 24.3429 24.3381C24.0279 24.6531 23.7289 24.848 23.3087 25.0112C22.9918 25.1349 22.5151 25.2812 21.6376 25.3213C20.6888 25.3644 20.4039 25.3738 18.0008 25.3738C15.5976 25.3738 15.3128 25.3644 14.3641 25.3213C13.4866 25.2808 13.0103 25.1342 12.6928 25.011C12.2728 24.8479 11.9728 24.6529 11.6578 24.3379C11.3428 24.0229 11.1479 23.7237 10.9843 23.3035C10.8611 22.9866 10.7143 22.5103 10.6744 21.6328C10.6313 20.684 10.6226 20.3991 10.6226 17.9957C10.6226 15.5923 10.6313 15.3088 10.6744 14.3601C10.7145 13.4826 10.8611 13.0063 10.9843 12.6891C11.1475 12.269 11.3428 11.9691 11.6579 11.6541C11.973 11.3391 12.2728 11.144 12.6929 10.9806C13.0101 10.8569 13.4866 10.7106 14.3641 10.6703C15.1941 10.6328 15.5159 10.6215 17.1923 10.6196C17.1929 10.6196 17.1934 10.6201 17.1934 10.6207ZM22.805 12.1162C22.2088 12.1162 21.725 12.5995 21.725 13.1958C21.725 13.7921 22.2088 14.2758 22.805 14.2758C23.4013 14.2758 23.885 13.7921 23.885 13.1958C23.885 12.5996 23.4013 12.1162 22.805 12.1162ZM18.0008 13.3781C15.4484 13.3781 13.3789 15.4475 13.3789 18C13.3789 20.5525 15.4484 22.6209 18.0008 22.6209C20.5533 22.6209 22.622 20.5525 22.622 18C22.622 15.4476 20.5533 13.3781 18.0008 13.3781ZM18.0008 15C19.6576 15 21.0009 16.343 21.0009 18C21.0009 19.6568 19.6576 21 18.0008 21C16.344 21 15.0008 19.6568 15.0008 18C15.0008 16.343 16.3439 15 18.0008 15Z" fill="white"/>
</g>
<rect x="0.5" y="0.5" width="34" height="34" rx="17" stroke="white"/>
<defs>
<radialGradient id="paint0_radial_106_765" cx="0" cy="0" r="1" gradientUnits="userSpaceOnUse" gradientTransform="translate(9.29687 37.6957) rotate(-90) scale(34.6876 32.2622)">
<stop stop-color="#FFDD55"/>
<stop offset="0.1" stop-color="#FFDD55"/>
<stop offset="0.5" stop-color="#FF543E"/>
<stop offset="1" stop-color="#C837AB"/>
</radialGradient>
<radialGradient id="paint1_radial_106_765" cx="0" cy="0" r="1" gradientUnits="userSpaceOnUse" gradientTransform="translate(-5.86264 2.52123) rotate(78.681) scale(15.5055 63.9144)">
<stop stop-color="#3771C8"/>
<stop offset="0.128" stop-color="#3771C8"/>
<stop offset="1" stop-color="#6600FF" stop-opacity="0"/>
</radialGradient>
<clipPath id="clip0_106_765">
<rect width="35" height="35" rx="17.5" fill="white"/>
</clipPath>
</defs>
</svg>
