<svg width="35" height="35" viewBox="0 0 35 35" fill="none" xmlns="http://www.w3.org/2000/svg">
<g style="mix-blend-mode:luminosity" clip-path="url(#clip0_106_767)">
<path d="M0.747266 17.2906C0.746445 20.2313 1.52082 23.1026 2.99328 25.6335L0.606445 34.2807L9.52488 31.9603C11.9916 33.2928 14.7554 33.9909 17.5639 33.9912H17.5713C26.8429 33.9912 34.3902 26.5051 34.3942 17.3038C34.3959 12.8451 32.6476 8.65238 29.4711 5.49803C26.2951 2.34397 22.0712 0.606039 17.5706 0.604004C8.29797 0.604004 0.751231 8.08966 0.747402 17.2906" fill="url(#paint0_linear_106_767)"/>
<path d="M3.01035 25.8575L2.9544 26.0602L0.71247 34.1823L9.11233 31.9969L9.30292 31.9473L9.47614 32.041C11.9482 33.3784 14.7323 34.0839 17.5658 34.085C17.5658 34.085 17.5659 34.085 17.5659 34.085H17.5733C26.9051 34.085 34.496 26.5498 34.5 17.2987C34.5016 12.8137 32.7439 8.59797 29.5481 5.42412C26.3518 2.25063 22.1036 0.501898 17.5733 0.5L3.01035 25.8575ZM3.01035 25.8575L2.90461 25.6757M3.01035 25.8575L2.90461 25.6757M2.90461 25.6757C1.42417 23.1308 0.64536 20.2435 0.646289 17.2853M2.90461 25.6757L0.646289 17.2853M0.646289 17.2853C0.650005 8.0342 8.23971 0.50011 17.5731 0.5L0.646289 17.2853ZM4.88073 25.2L4.88093 25.2003L5.10699 25.5564L3.70217 30.6443L3.4716 31.4794L4.31003 31.2612L9.59146 29.8873L9.94172 30.0934C9.94175 30.0934 9.94179 30.0934 9.94182 30.0934C12.2425 31.4479 14.8795 32.1641 17.5673 32.1655H17.5675H17.5733C25.829 32.1655 32.554 25.4995 32.5577 17.2981V17.298C32.5587 13.3248 31.0003 9.58731 28.1713 6.77815L28.1713 6.77812C25.3424 3.96946 21.5795 2.42106 17.579 2.41938H17.5787C9.3169 2.41938 2.59186 9.08437 2.58875 17.286C2.58762 20.0952 3.37976 22.8319 4.88073 25.2Z" fill="#383535" stroke="white"/>
<path d="M13.2182 10.0588C12.892 9.33943 12.5487 9.32491 12.2384 9.3123C11.9844 9.30145 11.694 9.30226 11.4039 9.30226C11.1135 9.30226 10.6417 9.41065 10.2429 9.84273C9.84367 10.2752 8.71875 11.3203 8.71875 13.446C8.71875 15.5716 10.2791 17.626 10.4966 17.9146C10.7144 18.2026 13.509 22.7043 17.9348 24.4361C21.6131 25.8753 22.3616 25.5891 23.1599 25.5169C23.9584 25.445 25.7363 24.472 26.099 23.4632C26.462 22.4544 26.462 21.5897 26.3531 21.409C26.2443 21.229 25.9539 21.1209 25.5185 20.9049C25.083 20.6889 22.9421 19.6435 22.5431 19.4993C22.1438 19.3553 21.8536 19.2834 21.5632 19.716C21.2728 20.1479 20.439 21.1209 20.1848 21.409C19.9309 21.6978 19.6768 21.7338 19.2414 21.5177C18.8057 21.3009 17.4034 20.8452 15.7397 19.3734C14.4452 18.2282 13.5713 16.814 13.3173 16.3813C13.0633 15.9494 13.2901 15.7153 13.5084 15.5C13.7041 15.3064 13.944 14.9955 14.1619 14.7433C14.379 14.4909 14.4515 14.3109 14.5967 14.0228C14.742 13.7344 14.6693 13.482 14.5606 13.2659C14.4515 13.0498 13.6054 10.9131 13.2182 10.0588Z" fill="white"/>
</g>
<defs>
<linearGradient id="paint0_linear_106_767" x1="1689.99" y1="3368.27" x2="1689.99" y2="0.604004" gradientUnits="userSpaceOnUse">
<stop stop-color="#1FAF38"/>
<stop offset="1" stop-color="#60D669"/>
</linearGradient>
<clipPath id="clip0_106_767">
<rect width="35" height="35" fill="white"/>
</clipPath>
</defs>
</svg>
