<svg width="80" height="79" viewBox="0 0 80 79" fill="none" xmlns="http://www.w3.org/2000/svg">
<path fill-rule="evenodd" clip-rule="evenodd" d="M0.750656 6.70684C1.04655 14.4723 2.06263 16.9795 6.94308 21.9907L10.0696 25.2003H7.6278C3.27861 25.2003 0.683407 27.7827 0.654673 32.1386C0.638166 34.6568 0.910831 35.3605 2.46918 36.8161C3.84106 38.0975 4.30324 39.0763 4.30324 40.6994C4.30324 49.8514 10.3538 60.9494 18.6732 67.0574L22.5754 69.9222L22.2251 72.8812C21.9152 75.496 22.0582 76.0242 23.454 77.4199L25.0337 78.9997H40.0676H55.1014L56.6812 77.4199C58.0769 76.0242 58.2199 75.496 57.91 72.8812L57.5597 69.9222L61.462 67.0574C69.7758 60.9537 75.8319 49.8508 75.8319 40.7129C75.8319 39.1319 76.3216 38.0669 77.6659 36.722C79.187 35.2009 79.5 34.3945 79.5 31.995C79.5 27.359 76.9323 25.2003 71.416 25.2003C69.4738 25.2003 67.8842 25.0267 67.8842 24.814C67.8842 24.6012 68.4357 23.535 69.11 22.4437C70.2477 20.6036 70.5253 20.4819 72.9591 20.7558C75.1624 21.0046 75.8961 20.7882 77.5412 19.4035C79.2169 17.9937 79.5 17.3536 79.5 14.973C79.5 12.2769 79.316 12.0036 73.5778 6.16273C67.7387 0.219744 67.6146 0.134766 64.7676 0.134766C62.2683 0.134766 61.6576 0.39826 60.2313 2.09355C58.8392 3.74788 58.6295 4.46622 58.8833 6.71601C59.1724 9.28065 59.0923 9.43654 56.7233 10.9319C55.3704 11.786 53.408 12.7764 52.3619 13.1328C49.1389 14.2308 44.5176 17.5132 40.6789 21.4313C36.5247 25.6711 34.2261 26.5569 37.5971 22.6186C39.941 19.8797 41.8093 14.7346 41.4847 11.9107C41.3007 10.312 41.1044 10.2124 37.8 10.0393L34.3098 9.85716L34.1319 5.14849L33.954 0.440443L31.0097 0.252757C27.4742 0.0265557 23.8391 1.60141 20.5726 4.77373L18.3516 6.93121L15.6408 4.70954C12.1903 1.88263 7.59723 0.134766 3.61791 0.134766H0.5L0.750656 6.70684ZM9.96562 5.02133C11.4482 5.71828 13.5378 7.19287 14.6089 8.2982C16.3512 10.0956 16.5071 10.5449 16.0853 12.5514L15.6133 14.7951L13.6435 12.9518C12.5596 11.9382 10.9517 9.87733 10.0702 8.37278C8.30946 5.36919 8.10771 5.26098 6.47661 6.45374C5.41836 7.22772 5.47277 7.44658 7.51775 10.6427C8.70439 12.4982 11.0795 15.2255 12.7968 16.7043C15.5186 19.0477 15.9184 19.6865 15.919 21.6851C15.919 22.9463 15.6824 23.9776 15.3932 23.9776C14.4909 23.9776 10.4101 20.9875 8.49103 18.9211C5.43181 15.6253 4.13696 12.4731 3.81477 7.53034L3.51887 3.00386L5.39451 3.37923C6.42587 3.58526 8.48308 4.32439 9.96562 5.02133ZM31.0446 8.84658C30.5695 16.785 28.4133 21.0468 23.638 23.4831L21.1706 24.7418L22.208 23.2899C25.8639 18.174 28.6933 11.9162 28.7373 8.84658C28.7526 7.81095 28.4084 7.47103 27.3446 7.47103C26.1531 7.47103 25.7655 8.02615 24.868 11.0236C24.283 12.9769 22.7864 16.159 21.5429 18.094L19.2815 21.6117L19.0962 17.7779C18.8297 12.2579 21.0941 7.93139 25.6909 5.17845C27.5158 4.08535 29.5431 3.19154 30.196 3.19154C31.3093 3.19154 31.3619 3.54002 31.0446 8.84658ZM71.2559 8.48527C74.1091 11.3972 76.4432 14.2699 76.4432 14.8697C76.4432 16.2623 74.1641 17.8812 72.8576 17.416C72.308 17.2203 69.7263 14.8868 67.12 12.2298C63.4421 8.48038 62.382 7.00885 62.382 5.65225C62.382 3.89521 62.994 3.3291 64.9895 3.23984C65.5825 3.21355 68.4027 5.574 71.2559 8.48527ZM64.9595 14.6312C68.0353 17.6611 68.3507 18.3758 67.1445 19.582C66.0441 20.6824 59.1143 13.7808 60.142 12.6089C61.2682 11.3238 61.8489 11.5677 64.9595 14.6312ZM37.8092 15.2658C36.9741 18.2981 35.2507 20.6384 32.2538 22.8093C28.6676 25.407 27.5659 25.0732 30.1789 22.1815C31.3753 20.8573 32.6763 18.5879 33.0706 17.1378C33.4655 15.6877 33.8855 14.158 34.0047 13.7374C34.124 13.3156 35.1663 12.9732 36.331 12.9732H38.4407L37.8092 15.2658ZM60.3786 19.2219C66.3552 25.1453 66.2886 25.2003 53.161 25.2003C47.0804 25.2003 42.1969 24.9833 42.3094 24.7186C43.2374 22.5238 53.3786 15.4578 55.6406 15.4297C56.1358 15.4235 58.2682 17.1305 60.3786 19.2219ZM75.0842 29.209C76.7807 30.3969 76.8431 32.7481 75.2205 34.3707C74.0271 35.5641 73.1829 35.5934 40.2039 35.5934C10.6069 35.5934 6.24063 35.4754 5.05093 34.6415C3.35442 33.4537 3.29206 31.1024 4.9146 29.4798C6.10797 28.2865 6.95225 28.2571 39.9312 28.2571C69.5282 28.2571 73.8945 28.3751 75.0842 29.209ZM72.7751 40.3559C72.7751 42.8734 71.0933 48.8996 69.376 52.5347C67.2717 56.9896 62.5208 62.4875 58.429 65.2038C54.2822 67.9561 53.2796 69.7107 54.3036 72.4239C55.5929 75.8396 55.1742 75.9429 40.0676 75.9429C24.8002 75.9429 24.2408 75.7986 25.7117 72.2478C26.8011 69.6178 25.8694 67.9671 21.7562 65.2368C17.4095 62.3518 13.4302 57.804 11.0862 53.0427C9.09688 49.0017 7.36002 43.088 7.36002 40.3559V38.6502H40.0676H72.7751V40.3559ZM9.19409 42.0126V43.541H24.7837H40.3732V42.0126V40.4842H24.7837H9.19409V42.0126ZM42.2073 42.0126C42.2073 43.2353 42.513 43.541 43.7357 43.541C44.9584 43.541 45.2641 43.2353 45.2641 42.0126C45.2641 40.7899 44.9584 40.4842 43.7357 40.4842C42.513 40.4842 42.2073 40.7899 42.2073 42.0126ZM66.623 45.5175C64.9186 51.8481 60.6073 57.7012 54.9987 61.3003C51.7017 63.4162 51.6118 63.577 52.8094 65.2154C53.5859 66.2773 53.8261 66.2046 57.2638 63.8698C59.2623 62.5126 61.8868 60.3075 63.0967 58.9686C65.7005 56.086 69.596 48.4612 70.1194 45.2223C70.4672 43.0672 70.3945 42.9297 68.9046 42.9297C67.5584 42.9297 67.2148 43.3191 66.623 45.5175Z" fill="white"/>
<path fill-rule="evenodd" clip-rule="evenodd" d="M0.751879 6.70684C1.05267 14.5603 2.37747 17.729 7.2726 22.3086L10.3642 25.2003H7.77575C3.27922 25.2003 0.683407 27.7271 0.654673 32.1331C0.638166 34.6684 0.897993 35.3232 2.46918 36.7018C3.89119 37.9496 4.30324 38.8232 4.30324 40.59C4.30324 49.7646 10.3447 60.9188 18.5808 66.9511L22.5803 69.8801L22.2276 72.8604C21.9146 75.499 22.0552 76.0211 23.454 77.4199L25.0337 78.9997H40.0676H55.1014L56.6812 77.4199C58.0818 76.0193 58.2205 75.5009 57.9057 72.8439C57.5517 69.8519 57.5554 69.844 60.257 67.9855C68.852 62.0718 74.7339 52.303 75.6576 42.4063C75.9713 39.05 76.335 38.0529 77.768 36.6199C79.1815 35.2064 79.5 34.356 79.5 31.995C79.5 27.359 76.9323 25.2003 71.416 25.2003C69.4738 25.2003 67.8842 25.0267 67.8842 24.814C67.8842 24.6012 68.4357 23.535 69.11 22.4437C70.2477 20.6036 70.5253 20.4819 72.9591 20.7558C75.1624 21.0046 75.8961 20.7882 77.5412 19.4035C79.2231 17.9882 79.5 17.3579 79.5 14.9394C79.5 12.1913 79.3551 11.9786 73.5057 6.12911C67.6562 0.279657 67.4435 0.134766 64.6954 0.134766C62.2769 0.134766 61.6466 0.41171 60.2313 2.09355C58.8392 3.74788 58.6295 4.46622 58.8833 6.71601C59.1681 9.24458 59.0709 9.44938 56.9618 10.7601C55.7397 11.5194 52.851 13.0166 50.5419 14.0871C47.5652 15.467 44.9731 17.3664 41.6332 20.6164C36.5541 25.5592 33.9919 26.8302 37.5971 22.6186C39.941 19.8797 41.8093 14.7346 41.4847 11.9107C41.3007 10.312 41.1044 10.2124 37.8 10.0393L34.3098 9.85716L34.1319 5.14849L33.954 0.440443L31.0097 0.252757C27.4742 0.0265557 23.8391 1.60141 20.5726 4.77373L18.3516 6.93121L15.6408 4.70954C12.1903 1.88263 7.59723 0.134766 3.61791 0.134766H0.5L0.751879 6.70684ZM9.96562 5.02133C11.4482 5.71828 13.5378 7.19287 14.6089 8.2982C16.3512 10.0956 16.5071 10.5449 16.0853 12.5514L15.6133 14.7951L13.6435 12.9518C12.5596 11.9382 10.9517 9.87733 10.0702 8.37278C8.30946 5.36919 8.10771 5.26098 6.47661 6.45374C5.41836 7.22772 5.47277 7.44658 7.51775 10.6427C8.70439 12.4982 11.0795 15.2255 12.7968 16.7043C15.5186 19.0477 15.9184 19.6865 15.919 21.6851C15.919 22.9463 15.6739 23.9776 15.3743 23.9776C13.9749 23.9776 8.68544 19.6223 6.91801 17.0143C4.54656 13.5155 3.69984 10.7069 3.69556 6.32474L3.69189 3.03871L5.48072 3.39635C6.465 3.5932 8.48308 4.32439 9.96562 5.02133ZM31.0336 8.84658C30.5292 17.018 28.5331 20.9857 23.6838 23.4598L21.1706 24.7418L22.205 23.2899C24.4309 20.1634 27.4596 14.3824 28.0887 12.0562C29.0968 8.33182 28.9568 7.47103 27.3446 7.47103C26.15 7.47103 25.7649 8.0292 24.8497 11.0854C24.2542 13.0729 22.7576 16.3057 21.5239 18.2688L19.2815 21.8379L19.0987 18.3458C18.9984 16.4249 19.2069 13.7735 19.5627 12.4536C20.6271 8.49933 26.6807 3.24779 30.2229 3.20561C31.3038 3.19277 31.3588 3.57548 31.0336 8.84658ZM71.2559 8.48527C74.1091 11.3972 76.4389 14.2167 76.4341 14.7517C76.4206 16.1596 75.7114 17.0302 74.1916 17.504C73.1126 17.8408 72.091 17.18 68.8532 14.0517C62.2628 7.6844 60.946 5.2402 63.2545 3.65923C64.8336 2.57774 66.3815 3.51128 71.2559 8.48527ZM64.9595 14.6312C68.0353 17.6611 68.3507 18.3758 67.1445 19.582C66.0691 20.6574 59.0569 13.7276 60.0314 12.5532C61.1037 11.2614 61.8636 11.5824 64.9595 14.6312ZM37.797 15.3856C37.0951 18.1496 33.7327 22.3637 31.1717 23.6879C28.2714 25.1881 27.8936 24.7113 30.0694 22.2964C31.8265 20.3468 32.6622 18.5298 34.0072 13.7374C34.1252 13.3168 35.162 12.9732 36.3151 12.9732H38.409L37.797 15.3856ZM60.4434 19.2268C66.3497 25.1881 66.3277 25.2052 52.7532 25.1741L41.2903 25.1472L44.6527 22.1295C48.1081 19.0281 53.9924 15.4639 55.7054 15.4352C56.2361 15.426 58.3679 17.1323 60.4434 19.2268ZM75.0842 29.209C76.9054 30.4843 76.9054 33.3662 75.0842 34.6415C73.8945 35.4748 69.5416 35.5934 40.0676 35.5934C2.96682 35.5934 3.69189 35.6668 3.69189 31.9253C3.69189 28.1838 2.96682 28.2571 40.0676 28.2571C69.5416 28.2571 73.8945 28.3757 75.0842 29.209ZM72.7751 40.3559C72.7751 42.8734 71.0933 48.8996 69.376 52.5347C67.2753 56.9811 62.6351 62.3488 58.3636 65.2729C54.2669 68.0778 53.1377 70.157 54.4142 72.5431C55.0763 73.7793 55.0831 74.2439 54.4515 75.0051C53.7949 75.7968 51.55 75.9429 40.0676 75.9429C24.8002 75.9429 24.2408 75.7986 25.7117 72.2478C26.8011 69.6178 25.8694 67.9671 21.7562 65.2368C17.4095 62.3518 13.4302 57.804 11.0862 53.0427C9.09688 49.0017 7.36002 43.088 7.36002 40.3559V38.6502H40.0676H72.7751V40.3559ZM9.19409 42.0126V43.541H24.7837H40.3732V42.0126V40.4842H24.7837H9.19409V42.0126ZM42.2073 42.0126C42.2073 43.2353 42.513 43.541 43.7357 43.541C44.9584 43.541 45.2641 43.2353 45.2641 42.0126C45.2641 40.7899 44.9584 40.4842 43.7357 40.4842C42.513 40.4842 42.2073 40.7899 42.2073 42.0126ZM66.6334 45.4796C64.9186 51.8487 60.6207 57.6927 54.9987 61.3003C51.7206 63.404 51.6167 63.5843 52.766 65.1561C53.485 66.1398 53.8182 66.0414 57.1984 63.8484C62.0226 60.7195 64.8073 57.5215 67.5608 51.9508C70.2899 46.4285 70.6806 43.3289 68.6821 43.0446C67.5633 42.885 67.2228 43.2898 66.6334 45.4796Z" fill="white"/>
<path fill-rule="evenodd" clip-rule="evenodd" d="M0.751879 6.70684C1.05267 14.5603 2.37747 17.729 7.2726 22.3086L10.3642 25.2003H7.77575C3.27922 25.2003 0.683407 27.7271 0.654673 32.1331C0.638166 34.6684 0.897993 35.3232 2.46918 36.7018C3.89119 37.9496 4.30324 38.8232 4.30324 40.59C4.30324 49.7646 10.3447 60.9188 18.5808 66.9511L22.5803 69.8801L22.2276 72.8604C21.9146 75.499 22.0552 76.0211 23.454 77.4199L25.0337 78.9997H40.0676H55.1014L56.6812 77.4199C58.0818 76.0193 58.2205 75.5009 57.9057 72.8439C57.5517 69.8519 57.5554 69.844 60.257 67.9855C68.852 62.0718 74.7339 52.303 75.6576 42.4063C75.9713 39.05 76.335 38.0529 77.768 36.6199C79.1815 35.2064 79.5 34.356 79.5 31.995C79.5 27.359 76.9323 25.2003 71.416 25.2003C69.4738 25.2003 67.8842 25.0267 67.8842 24.814C67.8842 24.6012 68.4357 23.535 69.11 22.4437C70.2477 20.6036 70.5253 20.4819 72.9591 20.7558C75.1624 21.0046 75.8961 20.7882 77.5412 19.4035C79.2231 17.9882 79.5 17.3579 79.5 14.9394C79.5 12.1913 79.3551 11.9786 73.5057 6.12911C67.6422 0.264985 67.4496 0.134766 64.6722 0.134766C62.1436 0.134766 61.6539 0.369526 60.194 2.28307C58.8423 4.056 58.613 4.86299 58.8857 6.89514C59.1963 9.21095 59.0819 9.44205 56.9783 10.7497C55.747 11.5152 52.851 13.0166 50.5419 14.0871C47.5652 15.467 44.9731 17.3664 41.6332 20.6164C36.5541 25.5592 33.9919 26.8302 37.5971 22.6186C39.941 19.8797 41.8093 14.7346 41.4847 11.9107C41.3007 10.312 41.1044 10.2124 37.8 10.0393L34.3098 9.85716L34.1319 5.14849L33.954 0.440443L31.0097 0.252757C27.4608 0.0259444 23.9785 1.54272 20.6729 4.75539L18.3968 6.96789L15.6635 4.72849C12.1922 1.88385 7.60579 0.134766 3.61791 0.134766H0.5L0.751879 6.70684ZM8.17496 4.16849C9.75165 4.70587 12.2924 6.28745 13.8202 7.68379C16.4656 10.1005 16.575 10.3316 16.1061 12.5086L15.6133 14.7951L13.6435 12.9518C12.5596 11.9382 10.9517 9.87733 10.0702 8.37278C8.30946 5.36919 8.10771 5.26098 6.47661 6.45374C5.41836 7.22772 5.47277 7.44658 7.51775 10.6427C8.70439 12.4982 11.0795 15.2255 12.7968 16.7043C15.5186 19.0477 15.9184 19.6865 15.919 21.6851C15.919 22.9463 15.6739 23.9776 15.3743 23.9776C13.9749 23.9776 8.68544 19.6223 6.91801 17.0143C4.55757 13.5314 3.69984 10.7076 3.69556 6.40116C3.69128 2.7636 3.838 2.69084 8.17496 4.16849ZM31.0336 8.84658C30.5292 17.018 28.5331 20.9857 23.6838 23.4598L21.1706 24.7418L22.205 23.2899C24.4309 20.1634 27.4596 14.3824 28.0887 12.0562C29.0968 8.33182 28.9568 7.47103 27.3446 7.47103C26.15 7.47103 25.7649 8.0292 24.8497 11.0854C24.2542 13.0729 22.7576 16.3057 21.5239 18.2688L19.2815 21.8379L19.0987 18.3458C18.9984 16.4249 19.2069 13.7735 19.5627 12.4536C20.6271 8.49933 26.6807 3.24779 30.2229 3.20561C31.3038 3.19277 31.3588 3.57548 31.0336 8.84658ZM71.232 8.42597C74.0981 11.3048 76.4389 14.125 76.4341 14.6924C76.4206 16.1584 75.7298 17.0241 74.1916 17.504C73.1126 17.8408 72.091 17.18 68.8532 14.0517C62.2628 7.6844 60.946 5.2402 63.2545 3.65923C64.8134 2.59242 66.3222 3.49355 71.232 8.42597ZM67.8842 18.1795C67.8842 18.5439 67.5511 19.1754 67.1445 19.582C66.5649 20.1616 65.6375 19.5637 62.8785 16.8333C59.5411 13.5308 59.4072 13.2844 60.3695 12.2219C61.3433 11.1453 61.5194 11.2309 64.6349 14.3078C66.4219 16.0728 67.8842 17.8152 67.8842 18.1795ZM37.797 15.3856C37.0951 18.1496 33.7327 22.3637 31.1717 23.6879C28.2714 25.1881 27.8936 24.7113 30.0694 22.2964C31.8265 20.3468 32.6622 18.5298 34.0072 13.7374C34.1252 13.3168 35.162 12.9732 36.3151 12.9732H38.409L37.797 15.3856ZM60.4434 19.2268C66.3497 25.1881 66.3277 25.2052 52.7532 25.1741L41.2903 25.1472L44.6527 22.1295C48.1081 19.0281 53.9924 15.4639 55.7054 15.4352C56.2361 15.426 58.3679 17.1323 60.4434 19.2268ZM75.0842 29.209C76.9054 30.4843 76.9054 33.3662 75.0842 34.6415C73.8945 35.4748 69.5416 35.5934 40.0676 35.5934C2.96682 35.5934 3.69189 35.6668 3.69189 31.9253C3.69189 28.1838 2.96682 28.2571 40.0676 28.2571C69.5416 28.2571 73.8945 28.3757 75.0842 29.209ZM72.7751 40.3559C72.7751 42.8734 71.0933 48.8996 69.376 52.5347C67.2753 56.9811 62.6351 62.3488 58.3636 65.2729C54.2669 68.0778 53.1377 70.157 54.4142 72.5431C55.0763 73.7793 55.0831 74.2439 54.4515 75.0051C53.7949 75.7968 51.55 75.9429 40.0676 75.9429C24.8002 75.9429 24.2408 75.7986 25.7117 72.2478C26.8011 69.6178 25.8694 67.9671 21.7562 65.2368C17.4095 62.3518 13.4302 57.804 11.0862 53.0427C9.09688 49.0017 7.36002 43.088 7.36002 40.3559V38.6502H40.0676H72.7751V40.3559ZM9.19409 42.0126V43.541H24.7837H40.3732V42.0126V40.4842H24.7837H9.19409V42.0126ZM42.2073 42.0126C42.2073 43.2353 42.513 43.541 43.7357 43.541C44.9584 43.541 45.2641 43.2353 45.2641 42.0126C45.2641 40.7899 44.9584 40.4842 43.7357 40.4842C42.513 40.4842 42.2073 40.7899 42.2073 42.0126ZM66.6334 45.4796C64.9186 51.8487 60.6207 57.6927 54.9987 61.3003C51.7206 63.404 51.6167 63.5843 52.766 65.1561C53.485 66.1398 53.8182 66.0414 57.1984 63.8484C62.0226 60.7195 64.8073 57.5215 67.5608 51.9508C70.2899 46.4285 70.6806 43.3289 68.6821 43.0446C67.5633 42.885 67.2228 43.2898 66.6334 45.4796Z" fill="white"/>
<path fill-rule="evenodd" clip-rule="evenodd" d="M0.751879 6.70684C1.05267 14.5603 2.37747 17.729 7.2726 22.3086L10.3642 25.2003H7.77575C3.27922 25.2003 0.683407 27.7271 0.654673 32.1331C0.638166 34.6684 0.897993 35.3232 2.46918 36.7018C3.89119 37.9496 4.30324 38.8232 4.30324 40.59C4.30324 49.7646 10.3447 60.9188 18.5808 66.9511L22.5803 69.8801L22.2276 72.8604C21.9146 75.499 22.0552 76.0211 23.454 77.4199L25.0337 78.9997H40.0676H55.1014L56.6017 77.4988C58.2059 75.8952 58.6601 72.4655 57.4319 71.2373C56.9453 70.7506 57.7272 69.8532 60.2814 67.9665C69.442 61.1988 74.5602 52.7126 75.5996 42.5677C75.9572 39.0769 76.3271 38.0608 77.7656 36.6229C79.1845 35.2034 79.4963 34.3682 79.4804 32.031C79.4486 27.3829 76.8724 25.2003 71.416 25.2003C69.4738 25.2003 67.8842 25.0267 67.8842 24.814C67.8842 24.6012 68.4357 23.535 69.11 22.4437C70.2477 20.6036 70.5253 20.4819 72.9591 20.7558C75.1624 21.0046 75.8961 20.7882 77.5412 19.4035C79.2231 17.9882 79.5 17.3579 79.5 14.9394C79.5 12.1913 79.3551 11.9786 73.5057 6.12911C67.6422 0.264985 67.4496 0.134766 64.6722 0.134766C62.1436 0.134766 61.6539 0.369526 60.194 2.28307C58.8423 4.056 58.613 4.86299 58.8857 6.89514C59.1963 9.21095 59.0819 9.44205 56.9783 10.7497C55.747 11.5152 52.851 13.0166 50.5419 14.0871C47.5652 15.467 44.9731 17.3664 41.6332 20.6164C36.5541 25.5592 33.9919 26.8302 37.5971 22.6186C39.941 19.8797 41.8093 14.7346 41.4847 11.9107C41.3007 10.312 41.1044 10.2124 37.8 10.0393L34.3098 9.85716L34.1319 5.14849L33.954 0.440443L31.0097 0.252757C27.4608 0.0259444 23.9785 1.54272 20.6729 4.75539L18.3968 6.96789L15.6635 4.72849C12.1922 1.88385 7.60579 0.134766 3.61791 0.134766H0.5L0.751879 6.70684ZM8.17496 4.16849C9.75165 4.70587 12.2924 6.28745 13.8202 7.68379C16.4656 10.1005 16.575 10.3316 16.1061 12.5086L15.6133 14.7951L13.6435 12.9518C12.5596 11.9382 10.9517 9.87733 10.0702 8.37278C8.30946 5.36919 8.10771 5.26098 6.47661 6.45374C5.41836 7.22772 5.47277 7.44658 7.51775 10.6427C8.70439 12.4982 11.0795 15.2255 12.7968 16.7043C15.5186 19.0477 15.9184 19.6865 15.919 21.6851C15.919 22.9463 15.6739 23.9776 15.3743 23.9776C13.9749 23.9776 8.68544 19.6223 6.91801 17.0143C4.55757 13.5314 3.69984 10.7076 3.69556 6.40116C3.69128 2.7636 3.838 2.69084 8.17496 4.16849ZM31.0336 8.84658C30.5292 17.018 28.5331 20.9857 23.6838 23.4598L21.1706 24.7418L22.205 23.2899C24.4309 20.1634 27.4596 14.3824 28.0887 12.0562C29.0968 8.33182 28.9568 7.47103 27.3446 7.47103C26.15 7.47103 25.7649 8.0292 24.8497 11.0854C24.2542 13.0729 22.7576 16.3057 21.5239 18.2688L19.2815 21.8379L19.0987 18.3458C18.8431 13.4556 19.8647 10.2503 22.5284 7.58658C24.9597 5.15522 28.3442 3.22823 30.2229 3.20561C31.3038 3.19277 31.3588 3.57548 31.0336 8.84658ZM71.232 8.42597C74.0981 11.3048 76.4389 14.125 76.4341 14.6924C76.4206 16.1584 75.7298 17.0241 74.1916 17.504C73.1126 17.8408 72.091 17.18 68.8532 14.0517C62.2628 7.6844 60.946 5.2402 63.2545 3.65923C64.8134 2.59242 66.3222 3.49355 71.232 8.42597ZM67.8842 18.1795C67.8842 18.5439 67.5511 19.1754 67.1445 19.582C66.5649 20.1616 65.6375 19.5637 62.8785 16.8333C59.5411 13.5308 59.4072 13.2844 60.3695 12.2219C61.3433 11.1453 61.5194 11.2309 64.6349 14.3078C66.4219 16.0728 67.8842 17.8152 67.8842 18.1795ZM37.797 15.3856C37.0951 18.1496 33.7327 22.3637 31.1717 23.6879C28.2714 25.1881 27.8936 24.7113 30.0694 22.2964C31.8265 20.3468 32.6622 18.5298 34.0072 13.7374C34.1252 13.3168 35.162 12.9732 36.3151 12.9732H38.409L37.797 15.3856ZM60.4434 19.2268C66.3497 25.1881 66.3277 25.2052 52.7532 25.1741L41.2903 25.1472L44.6527 22.1295C48.1081 19.0281 53.9924 15.4639 55.7054 15.4352C56.2361 15.426 58.3679 17.1323 60.4434 19.2268ZM75.0842 29.209C76.9054 30.4843 76.9054 33.3662 75.0842 34.6415C73.8945 35.4748 69.5416 35.5934 40.0676 35.5934C2.96682 35.5934 3.69189 35.6668 3.69189 31.9253C3.69189 28.1838 2.96682 28.2571 40.0676 28.2571C69.5416 28.2571 73.8945 28.3757 75.0842 29.209ZM72.7751 40.3559C72.7751 42.8734 71.0933 48.8996 69.376 52.5347C67.2753 56.9811 62.6351 62.3488 58.3636 65.2729C54.2669 68.0778 53.1377 70.157 54.4142 72.5431C55.0763 73.7793 55.0831 74.2439 54.4515 75.0051C53.7949 75.7968 51.55 75.9429 40.0676 75.9429C24.8002 75.9429 24.2408 75.7986 25.7117 72.2478C26.8011 69.6178 25.8694 67.9671 21.7562 65.2368C17.4095 62.3518 13.4302 57.804 11.0862 53.0427C9.09688 49.0017 7.36002 43.088 7.36002 40.3559V38.6502H40.0676H72.7751V40.3559ZM9.19409 42.0126V43.541H24.7837H40.3732V42.0126V40.4842H24.7837H9.19409V42.0126ZM42.2073 42.0126C42.2073 43.2353 42.513 43.541 43.7357 43.541C44.9584 43.541 45.2641 43.2353 45.2641 42.0126C45.2641 40.7899 44.9584 40.4842 43.7357 40.4842C42.513 40.4842 42.2073 40.7899 42.2073 42.0126ZM66.6334 45.4796C64.9186 51.8487 60.6207 57.6927 54.9987 61.3003C51.7206 63.404 51.6167 63.5843 52.766 65.1561C53.485 66.1398 53.8182 66.0414 57.1984 63.8484C62.0226 60.7195 64.8073 57.5215 67.5608 51.9508C70.2899 46.4285 70.6806 43.3289 68.6821 43.0446C67.5633 42.885 67.2228 43.2898 66.6334 45.4796Z" fill="white"/>
<path fill-rule="evenodd" clip-rule="evenodd" d="M0.751879 6.70684C1.05267 14.5603 2.37747 17.729 7.2726 22.3086L10.3642 25.2003H7.77575C3.27922 25.2003 0.683407 27.7271 0.654673 32.1331C0.638166 34.6684 0.897993 35.3232 2.46918 36.7018C3.89119 37.9496 4.30324 38.8232 4.30324 40.59C4.30324 49.9168 10.157 60.6113 18.8395 67.1461C22.142 69.6319 23.1948 70.7457 22.7057 71.2348C21.475 72.4655 21.928 75.894 23.5334 77.4988L25.0337 78.9997H40.0676H55.1014L56.6017 77.4988C58.2059 75.8952 58.6601 72.4655 57.4319 71.2373C56.9453 70.7506 57.7272 69.8532 60.2814 67.9665C69.442 61.1988 74.5602 52.7126 75.5996 42.5677C75.9572 39.0769 76.3271 38.0608 77.7656 36.6229C79.1845 35.2034 79.4963 34.3682 79.4804 32.031C79.4486 27.3829 76.8724 25.2003 71.416 25.2003C69.4738 25.2003 67.8842 25.0267 67.8842 24.814C67.8842 24.6012 68.4357 23.535 69.11 22.4437C70.2477 20.6036 70.5253 20.4819 72.9591 20.7558C75.1624 21.0046 75.8961 20.7882 77.5412 19.4035C79.2231 17.9882 79.5 17.3579 79.5 14.9394C79.5 12.1913 79.3551 11.9786 73.5057 6.12911C67.6422 0.264985 67.4496 0.134766 64.6722 0.134766C62.1436 0.134766 61.6539 0.369526 60.194 2.28307C58.8423 4.056 58.613 4.86299 58.8857 6.89514C59.1975 9.22012 59.0862 9.44082 56.9025 10.8188C55.6302 11.6221 52.7948 13.0931 50.6018 14.0877C47.8391 15.3404 45.1186 17.3249 41.7445 20.5479C36.485 25.5727 34.0109 26.8076 37.5971 22.6186C39.941 19.8797 41.8093 14.7346 41.4847 11.9107C41.3007 10.312 41.1044 10.2124 37.8 10.0393L34.3098 9.85716L34.1319 5.14849L33.954 0.440443L31.0329 0.253369C28.9727 0.121316 27.3342 0.454505 25.4757 1.38254C22.6372 2.80028 18.9758 5.92369 18.9758 6.92693C18.9758 7.26623 17.6363 6.414 15.9991 5.03356C12.3456 1.95355 7.74946 0.134766 3.61791 0.134766H0.5L0.751879 6.70684ZM8.17496 4.16849C9.75165 4.70587 12.2814 6.28745 13.7958 7.68379C16.3512 10.04 16.5212 10.3841 16.1599 12.478L15.7711 14.7346L14.1186 13.5131C13.2101 12.8412 11.5588 10.7944 10.4498 8.96396C9.34082 7.13418 8.24466 5.63697 8.01356 5.63697C7.78247 5.63697 7.09103 6.00439 6.47661 6.45374C5.41836 7.22772 5.47277 7.44658 7.51775 10.6427C8.70439 12.4982 11.0795 15.2255 12.7968 16.7043C15.5186 19.0477 15.9184 19.6865 15.919 21.6851C15.919 22.9463 15.6739 23.9776 15.3743 23.9776C13.9749 23.9776 8.68544 19.6223 6.91801 17.0143C4.55757 13.5314 3.69984 10.7076 3.69556 6.40116C3.69128 2.7636 3.838 2.69084 8.17496 4.16849ZM31.0427 8.88755C30.553 17.0919 28.066 21.737 23.0083 23.892C21.2329 24.6489 21.2323 24.6483 22.2355 23.2434C24.7072 19.7801 27.517 14.2699 28.096 11.7505C28.9928 7.84335 28.928 7.47103 27.3446 7.47103C26.15 7.47103 25.7649 8.0292 24.8497 11.0854C24.2542 13.0729 22.7576 16.3057 21.5239 18.2688L19.2815 21.8379L19.0987 18.3458C18.9984 16.4249 19.2191 13.7283 19.5896 12.3527C20.6851 8.28536 26.4948 3.29242 30.2229 3.21539C31.3038 3.19338 31.3594 3.57731 31.0427 8.88755ZM71.232 8.42597C74.0981 11.3048 76.4389 14.125 76.4341 14.6924C76.4206 16.1492 75.7316 17.0241 74.2277 17.493C73.2165 17.8078 72.1527 17.1843 69.4169 14.671C62.8363 8.62589 60.9423 5.24264 63.2545 3.65923C64.8134 2.59242 66.3222 3.49355 71.232 8.42597ZM67.8842 18.1795C67.8842 18.5439 67.5511 19.1754 67.1445 19.582C66.5649 20.1616 65.6375 19.5637 62.8785 16.8333C59.5411 13.5308 59.4072 13.2844 60.3695 12.2219C61.3433 11.1453 61.5194 11.2309 64.6349 14.3078C66.4219 16.0728 67.8842 17.8152 67.8842 18.1795ZM37.9113 15.1857C37.3269 17.7767 34.6785 21.2675 31.8198 23.2134C28.711 25.33 27.5384 24.9741 29.8047 22.6021C31.895 20.4147 33.6483 16.6848 33.6483 14.427C33.6483 13.145 33.9295 12.9732 36.0296 12.9732H38.4102L37.9113 15.1857ZM60.584 19.2396C66.2287 25.2413 66.2764 25.2052 52.7532 25.1741L41.2903 25.1472L44.6527 22.1295C48.2426 18.9071 54.0132 15.4621 55.8656 15.4352C56.4843 15.426 58.6075 17.1384 60.584 19.2396ZM75.0842 29.209C76.9054 30.4843 76.9054 33.3662 75.0842 34.6415C73.8945 35.4748 69.5416 35.5934 40.0676 35.5934C2.96682 35.5934 3.69189 35.6668 3.69189 31.9253C3.69189 28.1838 2.96682 28.2571 40.0676 28.2571C69.5416 28.2571 73.8945 28.3757 75.0842 29.209ZM72.7751 40.1486C72.7751 48.5969 66.343 59.8104 58.3636 65.2729C54.2669 68.0778 53.1377 70.157 54.4142 72.5431C55.0763 73.7793 55.0831 74.2439 54.4515 75.0051C53.7949 75.7968 51.55 75.9429 40.0676 75.9429C24.8002 75.9429 24.2408 75.7986 25.7117 72.2478C26.7981 69.6257 25.8707 67.9677 21.8106 65.2729C14.3062 60.2916 8.46841 50.829 7.55627 42.1655L7.18579 38.6502H39.9807H72.7751V40.1486ZM9.19409 42.0126V43.541H24.7837H40.3732V42.0126V40.4842H24.7837H9.19409V42.0126ZM42.2073 42.0126C42.2073 43.2353 42.513 43.541 43.7357 43.541C44.9584 43.541 45.2641 43.2353 45.2641 42.0126C45.2641 40.7899 44.9584 40.4842 43.7357 40.4842C42.513 40.4842 42.2073 40.7899 42.2073 42.0126ZM66.3711 46.3294C64.6068 52.3996 60.5223 57.7501 54.8929 61.3663C51.7206 63.404 51.6185 63.5874 52.7752 65.1683C53.5045 66.1661 53.8224 66.0683 57.2228 63.7977C62.0758 60.5575 64.9302 57.2733 67.6134 51.8451C70.2826 46.4444 70.6684 43.327 68.7022 43.047C67.5725 42.8863 67.2338 43.3637 66.3711 46.3294Z" fill="white"/>
<path fill-rule="evenodd" clip-rule="evenodd" d="M73.3864 10.7589C73.3864 10.8855 73.8676 11.3672 74.4563 11.8288C75.4259 12.5887 75.4473 12.5673 74.6874 11.5977C73.8884 10.5792 73.3864 10.2558 73.3864 10.7589ZM59.9366 18.7066C59.9366 18.8331 60.4177 19.3149 61.0065 19.7764C61.9761 20.5364 61.9975 20.515 61.2376 19.5454C60.4385 18.5268 59.9366 18.2034 59.9366 18.7066ZM45.7972 20.7681C45.0373 21.7377 45.0587 21.7591 46.0283 20.9992C47.0468 20.2001 47.3702 19.6982 46.867 19.6982C46.7405 19.6982 46.2587 20.1799 45.7972 20.7681ZM62.9934 21.7634C62.9934 21.8899 63.4745 22.3716 64.0633 22.8332C65.0329 23.5931 65.0543 23.5717 64.2943 22.6021C63.4953 21.5836 62.9934 21.2602 62.9934 21.7634Z" fill="white"/>
</svg>
