<svg width="56" height="81" viewBox="0 0 56 81" fill="none" xmlns="http://www.w3.org/2000/svg">
<path d="M23.9506 0.249792C23.4778 0.500986 23.0936 1.16591 23.0936 1.71263V2.08203H27.9845H32.8902L32.8015 1.52054C32.7424 1.15114 32.5356 0.811285 32.1809 0.48621L31.6638 0.0133743H28.0141C25.0589 0.0281506 24.2757 0.0724788 23.9506 0.249792Z" fill="#DF1111"/>
<path d="M16.1045 2.96902C14.2723 3.53051 13.4744 5.98335 14.6121 7.57917C15.2919 8.5544 16.075 8.87947 17.7299 8.87947H19.1041V24.616V40.3526L9.92812 56.2369C4.88946 64.9844 0.619162 72.5054 0.456625 72.9783C0.0133415 74.249 0.116774 76.0074 0.737371 77.3224C1.26931 78.4454 2.28886 79.6127 3.20498 80.1595C4.69737 81.0313 3.32319 80.9869 27.9845 80.9869C49.9271 80.9869 50.5772 80.9722 51.4786 80.7062C53.7245 79.9969 55.3056 78.1647 55.7341 75.7414C55.941 74.6036 55.7489 73.4216 55.1874 72.2099C54.951 71.7223 50.725 64.3342 45.7898 55.7936L36.8354 40.2935V24.6013V8.90902L38.3722 8.84991C39.8054 8.80559 39.9532 8.77604 40.559 8.3623C41.4604 7.72693 41.8593 6.95857 41.8593 5.85036C41.8593 4.74216 41.4604 3.9738 40.559 3.33842L39.9089 2.89514L28.221 2.86559C21.7786 2.85081 16.3262 2.89514 16.1045 2.96902ZM33.2892 25.0593V41.2244L42.7607 57.6407C51.8036 73.3033 52.2322 74.0865 52.2322 74.781C52.2322 75.7857 51.6854 76.7166 50.8284 77.1304L50.193 77.4407H27.9993C3.84036 77.4407 5.27364 77.485 4.44618 76.6132C3.54483 75.638 3.50051 74.5741 4.31319 73.0965C4.63827 72.5202 8.89379 65.1322 13.7699 56.6802L22.6504 41.313V25.0889V8.87947H27.9698H33.2892V25.0593Z" fill="#DF1111"/>
<path d="M23.0936 10.0619C23.0936 10.6972 23.463 11.3474 23.995 11.6134C24.3644 11.8202 24.9997 11.8498 28.1175 11.8055C31.7524 11.7611 31.7968 11.7611 32.1662 11.4065C32.5799 11.0075 32.9197 10.1653 32.7868 9.84023C32.7129 9.64814 31.9741 9.61859 27.8959 9.61859H23.0936V10.0619Z" fill="#DF1111"/>
<path d="M27.6595 34.9589C26.8173 35.4169 26.4627 36.5547 26.8912 37.3822C27.2606 38.0914 27.8368 38.4756 28.5165 38.4756C30.0533 38.4756 30.9694 36.9389 30.1862 35.6681C29.6691 34.8111 28.5165 34.486 27.6595 34.9589Z" fill="#DF1111"/>
<path d="M29.2257 40.6781C28.7529 40.9293 28.5608 41.2544 28.5608 41.8307C28.5608 42.7616 29.5065 43.3674 30.3191 42.9389C31.1909 42.4956 31.3239 41.6238 30.6442 40.9293C30.1862 40.486 29.7281 40.3974 29.2257 40.6781Z" fill="#DF1111"/>
<path d="M25.5021 44.0463C24.852 44.3123 24.6747 45.125 25.1623 45.6422C25.5465 46.0559 26.2409 46.0707 26.6399 45.6717C27.3935 44.9181 26.5069 43.6474 25.5021 44.0463Z" fill="#DF1111"/>
<path d="M28.1766 46.411C27.7628 46.5735 27.2752 47.2089 27.157 47.7408C27.0388 48.3171 27.4526 49.1741 27.9845 49.4401C28.7085 49.8243 29.4178 49.7208 29.9793 49.1593C30.3634 48.7752 30.4817 48.5387 30.4817 48.125C30.4817 46.8099 29.3143 45.9529 28.1766 46.411Z" fill="#DF1111"/>
<path d="M22.2071 56.6059C13.9768 56.8867 12.4253 57.6255 19.1041 58.0688C20.4635 58.1722 24.1576 58.2461 27.3049 58.2461C34.7225 58.2461 39.5986 57.921 39.6873 57.4186C39.8055 56.8128 29.7429 56.34 22.2071 56.6059Z" fill="#DF1111"/>
<path d="M11.0658 64.5412C6.91375 71.0574 6.83987 71.2495 7.38659 73.2148C7.59345 73.9536 7.78554 74.2639 8.46524 74.9436C9.15972 75.6528 9.42569 75.8154 10.1054 75.9483C10.6964 76.0813 15.2623 76.1109 27.7481 76.0813C44.0609 76.037 44.6076 76.0222 45.1691 75.7563C46.9127 74.8845 47.8584 72.6385 47.2821 70.7471C47.1491 70.3482 45.509 67.6146 43.529 64.5116L40.0123 58.9706H34.3973H28.7676L28.8267 59.5468C28.8711 59.9901 28.812 60.197 28.5755 60.4334C27.822 61.187 26.5217 60.5073 26.6842 59.4582L26.7729 58.9706H20.6851H14.5973L11.0658 64.5412ZM33.7767 62.4725C34.4121 63.0488 33.8506 64.29 32.9641 64.29C31.9593 64.29 31.5751 63.0931 32.3582 62.3986C32.772 62.0145 33.2891 62.044 33.7767 62.4725ZM29.3439 63.9945C30.1123 64.8515 29.7872 66.2109 28.7085 66.6542C27.7185 67.0679 26.4921 66.2257 26.4921 65.1322C26.4921 63.5955 28.3243 62.8567 29.3439 63.9945ZM26.6399 67.7624C27.1423 68.0136 27.5264 68.6785 27.5264 69.24C27.5264 70.097 26.7138 70.9392 25.9011 70.9392C25.4726 70.9392 24.7781 70.5551 24.5121 70.1709C24.2461 69.7867 24.2018 68.841 24.4382 68.4125C24.6451 68.0283 25.443 67.5407 25.8715 67.5407C26.0636 67.5407 26.4035 67.6442 26.6399 67.7624ZM28.6642 72.8897C29.2996 73.4807 28.9745 74.5003 28.0879 74.7219C27.7629 74.7958 27.6003 74.7219 27.2309 74.3673C26.699 73.8206 26.6694 73.4068 27.157 72.934C27.6003 72.476 28.2061 72.4612 28.6642 72.8897Z" fill="#DF1111"/>
</svg>
