<svg width="85" height="78" viewBox="0 0 85 78" fill="none" xmlns="http://www.w3.org/2000/svg">
<path d="M13.6738 71.2178C17.311 71.2178 20.9482 71.2178 24.6956 71.2178C24.6956 71.9587 24.6956 72.6997 24.6956 73.4631C23.7425 73.8878 22.7722 73.745 21.731 73.7098C21.5012 73.7031 21.2715 73.6965 21.0347 73.6897C20.2999 73.6682 19.5652 73.6446 18.8304 73.621C18.3327 73.606 17.8349 73.5912 17.3371 73.5766C16.1159 73.5403 14.8949 73.5022 13.6738 73.4631C13.6738 72.7221 13.6738 71.9812 13.6738 71.2178Z" fill="#DF1111"/>
<path d="M7.73901 71.2178C8.57836 71.2178 9.41771 71.2178 10.2825 71.2178C10.2825 72.0571 10.2825 72.8965 10.2825 73.7613C9.44314 73.7613 8.6038 73.7613 7.73901 73.7613C7.73901 72.9219 7.73901 72.0826 7.73901 71.2178Z" fill="#DF1111"/>
<path d="M7.73901 66.1309C13.3347 66.1309 18.9303 66.1309 24.6955 66.1309C24.6955 66.6904 24.6955 67.25 24.6955 67.8265C19.0999 67.8265 13.5042 67.8265 7.73901 67.8265C7.73901 67.2669 7.73901 66.7074 7.73901 66.1309Z" fill="#DF1111"/>
<path d="M7.73901 48.3262C13.3347 48.3262 18.9303 48.3262 24.6955 48.3262C24.6955 50.8442 24.6955 53.3623 24.6955 55.9566C19.0999 55.9566 13.5042 55.9566 7.73901 55.9566C7.73901 53.4386 7.73901 50.9205 7.73901 48.3262ZM10.6184 50.9675C10.6184 51.7423 10.6184 52.517 10.6184 53.3153C14.3137 53.3153 18.0089 53.3153 21.8161 53.3153C21.8161 52.5405 21.8161 51.7657 21.8161 50.9675C20.4746 50.7346 19.2065 50.6363 17.8419 50.635C17.4613 50.6346 17.0806 50.6343 16.6884 50.6339C16.0989 50.6356 16.0989 50.6356 15.4974 50.6373C15.0994 50.6362 14.7015 50.635 14.2914 50.6339C13.9124 50.6343 13.5334 50.6346 13.1429 50.635C12.7966 50.6354 12.4503 50.6357 12.0934 50.636C11.2639 50.6222 11.2639 50.6222 10.6184 50.9675Z" fill="#DF1111"/>
<path d="M5.42881 0C31.6101 0 57.7914 0 84.766 0C84.766 0.851691 84.766 1.70338 84.766 2.58088C80.6591 2.58088 76.5523 2.58088 72.321 2.58088C72.3221 5.84489 72.3221 5.84489 72.3404 9.1087C72.3517 10.441 72.361 11.7731 72.3583 13.1054C72.3563 14.1803 72.3633 15.2548 72.3765 16.3295C72.38 16.7385 72.3802 17.1474 72.3771 17.5564C72.2889 20.1926 72.2889 20.1926 73.5556 22.4477C73.8679 22.7099 74.182 22.9704 74.4988 23.2279C75.0376 24.1502 75.1211 24.6564 75.1211 25.7192C75.2875 27.2911 76.5705 28.0623 77.7608 29.0842C79.8987 31.1036 80.7476 33.7987 80.7603 36.5625C80.7474 36.9883 80.7346 37.4142 80.7214 37.8529C79.7973 37.7583 78.8733 37.6637 77.9212 37.5662C77.8755 37.2024 77.8755 37.2024 77.8289 36.8313C77.4478 34.1668 76.8421 32.1041 74.81 30.1103C74.502 30.0157 74.1939 29.921 73.8766 29.8235C73.8188 29.9832 73.7611 30.1429 73.7016 30.3074C72.8902 31.5104 71.5832 32.2487 70.1431 32.6912C70.0404 35.1516 69.9377 37.6121 69.8319 40.1471C71.7958 40.1132 71.7958 40.1132 73.7595 40.0696C75.7578 40.0522 77.0678 40.2791 78.5822 41.5714C79.4283 42.8326 79.3533 43.9476 79.3553 45.404C79.3605 45.6884 79.3656 45.9728 79.3709 46.2659C79.386 47.1716 79.3926 48.0772 79.3991 48.983C79.4078 49.5982 79.4172 50.2133 79.427 50.8285C79.45 52.3342 79.4661 53.8398 79.4769 55.3456C79.6886 55.4337 79.9003 55.5218 80.1185 55.6126C82.8921 56.8176 82.8921 56.8176 83.6965 58.1057C83.8381 58.3223 83.9797 58.5389 84.1255 58.7621C84.8775 60.1278 84.8447 61.3593 84.8632 62.8552C84.8723 63.092 84.8813 63.3288 84.8906 63.5727C84.9132 65.6061 84.3711 67.0696 82.9102 68.6062C82.7076 68.7607 82.5051 68.9153 82.2964 69.0744C82.0947 69.2334 81.893 69.3924 81.6851 69.5561C81.0325 69.9706 81.0325 69.9706 79.4769 70.5441C79.3742 73.0046 79.2715 75.465 79.1657 78C53.9085 78 28.6513 78 2.62867 78C2.62867 66.3602 2.62867 54.7204 2.62867 42.7279C4.47676 42.7279 6.32485 42.7279 8.22895 42.7279C8.13677 39.8654 7.53071 37.7435 6.26496 35.1432C6.09822 34.7901 5.932 34.4368 5.76629 34.0832C5.33391 33.1643 4.89438 32.2485 4.45316 31.3332C4.00331 30.3966 3.56065 29.4572 3.11724 28.518C1.68645 25.418 1.68645 25.418 0.139664 22.3676C0.113245 21.8267 0.106313 21.2849 0.10928 20.7434C0.110283 20.4218 0.111286 20.1002 0.112319 19.7688C0.114926 19.4317 0.117533 19.0946 0.120218 18.7472C0.121622 18.4079 0.123026 18.0686 0.124472 17.7189C0.128148 16.8788 0.133728 16.0387 0.139664 15.1985C1.88508 15.1985 3.6305 15.1985 5.42881 15.1985C5.42881 10.183 5.42881 5.1675 5.42881 0ZM8.22895 2.58088C8.22895 3.43257 8.22895 4.28426 8.22895 5.16176C9.15299 5.16176 10.077 5.16176 11.0291 5.16176C11.0291 5.91882 11.0291 6.67588 11.0291 7.45588C10.105 7.45588 9.18099 7.45588 8.22895 7.45588C8.22895 8.30757 8.22895 9.15926 8.22895 10.0368C11.8225 10.0368 15.416 10.0368 19.1184 10.0368C19.1184 10.8885 19.1184 11.7401 19.1184 12.6176C15.5249 12.6176 11.9313 12.6176 8.22895 12.6176C8.22895 13.4693 8.22895 14.321 8.22895 15.1985C10.5273 15.2058 12.8257 15.2108 15.1241 15.2143C15.9067 15.2157 16.6892 15.2177 17.4718 15.2202C18.5939 15.2236 19.716 15.2253 20.8381 15.2265C21.1903 15.228 21.5426 15.2295 21.9056 15.231C22.2295 15.231 22.5534 15.2311 22.8871 15.2311C23.1738 15.2317 23.4605 15.2324 23.7559 15.233C24.4038 15.2656 24.4038 15.2656 24.7186 14.9118C24.7409 14.5239 24.7448 14.1351 24.7381 13.7468C24.7317 13.3742 24.7253 13.0016 24.7186 12.6176C23.7946 12.6176 22.8706 12.6176 21.9185 12.6176C21.9185 11.766 21.9185 10.9143 21.9185 10.0368C22.8425 10.0368 23.7666 10.0368 24.7186 10.0368C24.7251 9.66415 24.7315 9.29154 24.7381 8.90763C24.7417 8.69803 24.7453 8.48844 24.749 8.27249C24.7826 7.73768 24.7826 7.73768 24.4075 7.45588C23.6232 7.43051 22.8474 7.42283 22.0631 7.42788C21.8288 7.42828 21.5944 7.42869 21.353 7.42911C20.6016 7.43072 19.8503 7.43432 19.0989 7.43796C18.5907 7.4394 18.0825 7.44071 17.5743 7.44188C16.3259 7.44505 15.0776 7.45 13.8292 7.45588C13.8292 6.69882 13.8292 5.94176 13.8292 5.16176C14.148 5.16327 14.4669 5.16477 14.7953 5.16632C15.9741 5.17149 17.1529 5.17479 18.3317 5.17752C18.8426 5.17896 19.3536 5.18092 19.8645 5.1834C20.5974 5.18686 21.3302 5.1885 22.0631 5.18977C22.2929 5.19125 22.5227 5.19273 22.7594 5.19425C23.3089 5.19431 23.8584 5.17953 24.4075 5.16176C25.012 4.67223 25.012 4.67223 24.7186 2.58088C19.277 2.58088 13.8354 2.58088 8.22895 2.58088ZM27.2076 2.58088C25.7495 9.5058 25.7495 9.5058 27.5188 15.1985C28.4094 15.2195 29.2924 15.225 30.1828 15.2165C30.5591 15.2145 30.5591 15.2145 30.943 15.2125C31.5646 15.2091 32.1863 15.204 32.8079 15.1985C33.2435 19.8114 32.1927 23.2912 30.1633 27.4398C30.051 27.6695 29.9387 27.8992 29.8229 28.1358C29.0711 29.6614 28.2976 31.1772 27.5188 32.6912C25.0166 37.4893 25.0166 37.4893 24.7186 42.7279C26.4641 42.7279 28.2095 42.7279 30.0078 42.7279C30.0078 46.8918 30.0078 51.0556 30.0078 55.3456C31.0345 55.3456 32.0612 55.3456 33.119 55.3456C33.1142 54.9796 33.1093 54.6135 33.1042 54.2364C33.0873 52.8763 33.0766 51.5162 33.0678 50.156C33.0631 49.5677 33.0567 48.9795 33.0486 48.3912C33.0373 47.5448 33.032 46.6985 33.0279 45.8521C33.0231 45.5898 33.0183 45.3275 33.0133 45.0572C33.0129 43.6586 33.0597 42.7147 34.0524 41.5809C35.2009 40.6547 36.1662 40.3991 37.6726 40.3876C37.9645 40.3849 38.2564 40.3821 38.5571 40.3793C38.8721 40.378 39.1872 40.3768 39.5117 40.3756C39.8367 40.3739 40.1617 40.3723 40.4965 40.3706C41.1849 40.3679 41.8732 40.366 42.5616 40.3649C43.6111 40.3622 44.6605 40.3533 45.7099 40.3442C46.3792 40.3423 47.0484 40.3408 47.7177 40.3397C48.1864 40.3344 48.1864 40.3344 48.6646 40.329C50.459 40.3342 51.7862 40.436 53.3423 41.2941C54.5841 42.5288 54.423 44.0347 54.4348 45.6281C54.4404 45.9061 54.446 46.1841 54.4518 46.4706C54.4686 47.3558 54.4791 48.2411 54.4895 49.1264C54.4999 49.7277 54.5106 50.3291 54.5217 50.9304C54.5481 52.4021 54.5689 53.8738 54.5868 55.3456C55.6135 55.3456 56.6402 55.3456 57.698 55.3456C57.6882 54.7988 57.6882 54.7988 57.6783 54.241C57.6557 52.8846 57.6414 51.5283 57.6297 50.1718C57.6234 49.5854 57.6149 48.9991 57.6041 48.4128C57.589 47.5686 57.582 46.7245 57.5765 45.8801C57.5701 45.6193 57.5636 45.3584 57.557 45.0897C57.5564 43.4873 57.7655 42.5575 58.9425 41.2941C60.5332 40.2616 62.1597 40.2802 64.0372 40.2367C65.5195 40.1923 65.5195 40.1923 67.0318 40.1471C67.0318 37.6866 67.0318 35.2262 67.0318 32.6912C66.1078 32.218 65.1837 31.7449 64.2317 31.2574C63.2788 30.4508 63.2788 30.4508 62.676 29.8235C60.9044 30.5163 59.9609 31.9444 59.137 33.4977C58.8486 34.8533 58.8947 36.1896 58.9425 37.5662C57.5565 37.7081 57.5565 37.7081 56.1424 37.8529C56.2715 34.1104 57.0254 31.1646 59.8759 28.3897C60.1583 28.2182 60.4406 28.0467 60.7315 27.8699C61.7596 26.9487 61.8365 25.9065 62.1316 24.6394C62.5029 23.3059 63.1781 22.4784 64.2317 21.5074C64.3231 20.6831 64.3231 20.6831 64.3023 19.7049C64.3024 19.4233 64.3024 19.4233 64.3025 19.1361C64.3021 18.5278 64.2973 17.9195 64.2924 17.3112C64.2918 16.9397 64.2912 16.5682 64.2905 16.1855C64.2873 14.7931 64.2786 13.4007 64.2706 12.0083C64.2577 8.89723 64.2449 5.78619 64.2317 2.58088C52.0137 2.58088 39.7958 2.58088 27.2076 2.58088ZM67.0318 2.58088C67.0318 3.43257 67.0318 4.28426 67.0318 5.16176C68.2771 5.18809 68.2771 5.18809 69.5208 5.16176C69.8959 4.87997 69.8959 4.87997 69.8623 4.34516C69.8587 4.13556 69.8551 3.92597 69.8514 3.71002C69.845 3.3374 69.8386 2.96479 69.8319 2.58088C68.9079 2.58088 67.9839 2.58088 67.0318 2.58088ZM67.0318 7.45588C67.0318 8.30757 67.0318 9.15926 67.0318 10.0368C67.9559 10.0368 68.8799 10.0368 69.8319 10.0368C69.8384 9.66415 69.8448 9.29154 69.8514 8.90763C69.855 8.69803 69.8586 8.48844 69.8623 8.27249C69.8959 7.73768 69.8959 7.73768 69.5208 7.45588C68.6899 7.41541 67.8643 7.4437 67.0318 7.45588ZM67.0318 12.6176C67.0318 13.4693 67.0318 14.321 67.0318 15.1985C68.2771 15.2249 68.2771 15.2249 69.5208 15.1985C69.8959 14.9167 69.8959 14.9167 69.8623 14.3819C69.8587 14.1723 69.8551 13.9627 69.8514 13.7468C69.845 13.3742 69.8386 13.0016 69.8319 12.6176C68.9079 12.6176 67.9839 12.6176 67.0318 12.6176ZM2.62867 17.7794C2.62867 18.5365 2.62867 19.2935 2.62867 20.0735C11.6638 20.0735 20.6989 20.0735 30.0078 20.0735C30.0078 19.2218 30.0078 18.3701 30.0078 17.4926C26.4839 17.486 22.9601 17.4809 19.4362 17.4778C17.8001 17.4763 16.164 17.4743 14.528 17.471C12.9504 17.4679 11.3729 17.4662 9.79538 17.4654C9.19211 17.4649 8.58884 17.4639 7.98558 17.4623C7.14367 17.4603 6.30179 17.46 5.45988 17.4601C5.20789 17.4591 4.9559 17.458 4.69628 17.457C3.56981 17.3608 3.56981 17.3608 2.62867 17.7794ZM67.0318 17.4926C67.0318 18.3443 67.0318 19.196 67.0318 20.0735C67.9559 20.0735 68.8799 20.0735 69.8319 20.0735C69.8384 19.7009 69.8448 19.3283 69.8514 18.9444C69.855 18.7348 69.8586 18.5252 69.8623 18.3093C69.8959 17.7744 69.8959 17.7744 69.5208 17.4926C68.6899 17.4522 67.8643 17.4805 67.0318 17.4926ZM3.56205 22.6544C4.27825 24.6687 4.27825 24.6687 5.10561 26.6248C5.21565 26.8639 5.32569 27.103 5.43907 27.3493C5.5548 27.5976 5.67053 27.846 5.78977 28.1018C5.91127 28.3641 6.03278 28.6265 6.15797 28.8967C6.41287 29.4461 6.66834 29.9953 6.92436 30.5443C7.31681 31.3867 7.70643 32.2301 8.09587 33.0737C8.34464 33.609 8.59357 34.1443 8.84269 34.6795C8.95905 34.9319 9.07541 35.1843 9.1953 35.4443C9.35889 35.7935 9.35889 35.7935 9.52579 36.1496C9.62108 36.3545 9.71637 36.5595 9.81455 36.7706C10.0892 37.3326 10.0892 37.3326 10.718 37.8529C11.5881 37.9032 12.4271 37.9193 13.2969 37.909C13.5515 37.9081 13.8062 37.9073 14.0685 37.9065C14.8833 37.9033 15.6979 37.8961 16.5127 37.8888C17.0644 37.8859 17.6162 37.8833 18.168 37.8809C19.5219 37.8746 20.8757 37.8647 22.2296 37.8529C23.8277 35.0591 25.1661 32.1752 26.497 29.2672C26.8621 28.4695 27.2292 27.6726 27.5966 26.8758C27.8292 26.3697 28.0617 25.8636 28.2942 25.3574C28.404 25.1188 28.5138 24.8801 28.627 24.6343C29.1504 23.6744 29.1504 23.6744 29.3855 22.6544C20.8638 22.6544 12.342 22.6544 3.56205 22.6544ZM65.1651 23.8015C64.3402 24.823 64.1639 25.5891 64.2511 26.8304C64.4491 28.0084 64.8292 28.7042 65.7873 29.5368C67.1063 30.2514 68.3342 30.3841 69.8319 30.1103C70.8823 29.5247 71.7678 28.8359 72.321 27.8162C72.4799 26.6524 72.6062 25.4659 72.0171 24.3974C70.963 23.1934 70.1238 22.7173 68.4902 22.5469C67.1126 22.676 66.2293 22.9899 65.1651 23.8015ZM11.0291 40.1471C11.0291 40.9988 11.0291 41.8504 11.0291 42.7279C14.6226 42.7279 18.2161 42.7279 21.9185 42.7279C21.9185 41.8763 21.9185 41.0246 21.9185 40.1471C18.325 40.1471 14.7315 40.1471 11.0291 40.1471ZM35.6081 43.3015C35.5174 44.1696 35.4849 44.9781 35.495 45.8465C35.4949 46.0989 35.4947 46.3514 35.4946 46.6114C35.4953 47.1456 35.4983 47.6798 35.5035 48.214C35.5108 49.0335 35.5099 49.8527 35.5078 50.6722C35.5095 51.1905 35.5117 51.7088 35.5145 52.227C35.5142 52.4732 35.5139 52.7193 35.5136 52.9729C35.4653 54.2967 35.4653 54.2967 36.2303 55.3456C36.8898 55.4372 36.8898 55.4372 37.657 55.4289C37.953 55.4326 38.2489 55.4362 38.5538 55.44C38.8743 55.4406 39.1949 55.4413 39.5251 55.4419C39.8535 55.4438 40.1819 55.4457 40.5202 55.4477C41.2156 55.4506 41.9111 55.452 42.6065 55.4519C43.6725 55.4531 44.7382 55.4635 45.8041 55.4744C46.4788 55.4761 47.1536 55.4772 47.8283 55.4778C48.1482 55.4819 48.4681 55.486 48.7976 55.4903C49.0946 55.4885 49.3915 55.4867 49.6974 55.4849C49.9587 55.4857 50.2201 55.4865 50.4894 55.4874C51.2115 55.3947 51.2115 55.3947 51.7152 54.8277C52.2816 53.8961 52.2311 52.9813 52.2217 51.9414C52.2231 51.6147 52.2231 51.6147 52.2244 51.2815C52.2251 50.8219 52.2233 50.3622 52.2194 49.9026C52.2144 49.2014 52.2194 48.5007 52.2254 47.7995C52.2247 47.352 52.2235 46.9045 52.2217 46.457C52.2236 46.2485 52.2255 46.0399 52.2274 45.8251C52.2087 44.572 52.1062 43.6663 51.1644 42.7279C50.5483 42.7279 49.9323 42.7279 49.2976 42.7279C49.2976 44.4313 49.2976 46.1347 49.2976 47.8897C45.7041 47.8897 42.1106 47.8897 38.4082 47.8897C38.4082 46.281 38.4082 44.6722 38.4082 43.0147C38.0828 42.6527 38.0828 42.6527 37.3581 42.6742C36.4685 42.6704 36.4685 42.6704 35.6081 43.3015ZM40.8972 43.0147C40.8972 43.7718 40.8972 44.5288 40.8972 45.3088C42.7453 45.3088 44.5934 45.3088 46.4975 45.3088C46.4975 44.4571 46.4975 43.6054 46.4975 42.7279C45.6224 42.7202 44.7474 42.7145 43.8723 42.71C43.6227 42.7076 43.373 42.7052 43.1158 42.7027C41.9101 42.5854 41.9101 42.5854 40.8972 43.0147ZM60.5443 43.0884C59.9033 43.9852 60.0615 45.0592 60.074 46.0985C60.0738 46.3442 60.0737 46.5899 60.0735 46.843C60.0743 47.3619 60.0773 47.8809 60.0824 48.3999C60.0898 49.1961 60.0888 49.992 60.0868 50.7882C60.0885 51.2921 60.0907 51.7959 60.0934 52.2998C60.0932 52.5388 60.0929 52.7778 60.0926 53.024C60.0497 54.321 60.0497 54.321 60.8093 55.3456C61.4687 55.4372 61.4687 55.4372 62.236 55.4289C62.5319 55.4326 62.8279 55.4362 63.1328 55.44C63.4533 55.4406 63.7738 55.4413 64.1041 55.4419C64.4324 55.4438 64.7608 55.4457 65.0992 55.4477C65.7946 55.4506 66.49 55.452 67.1855 55.4519C68.2515 55.4531 69.3171 55.4635 70.3831 55.4744C71.0578 55.4761 71.7325 55.4772 72.4072 55.4778C72.7271 55.4819 73.047 55.486 73.3766 55.4903C73.6735 55.4885 73.9704 55.4867 74.2764 55.4849C74.5377 55.4857 74.7991 55.4865 75.0683 55.4874C75.79 55.3946 75.79 55.3946 76.2942 54.8296C76.8708 53.8784 76.81 52.9299 76.8007 51.8686C76.802 51.5314 76.802 51.5314 76.8034 51.1874C76.804 50.713 76.8023 50.2387 76.7984 49.7643C76.7934 49.0392 76.7984 48.3146 76.8043 47.5895C76.8037 47.128 76.8025 46.6665 76.8007 46.205C76.8026 45.9887 76.8045 45.7724 76.8064 45.5495C76.7936 44.6628 76.7222 43.9664 76.319 43.1558C75.6244 42.5479 75.6244 42.5479 73.8766 42.7279C73.8766 44.4313 73.8766 46.1347 73.8766 47.8897C70.2831 47.8897 66.6896 47.8897 62.9872 47.8897C62.9872 46.1863 62.9872 44.4829 62.9872 42.7279C61.2618 42.5669 61.2618 42.5669 60.5443 43.0884ZM65.7873 42.7279C65.3701 44.1186 65.3701 44.1186 65.7873 45.3088C67.5327 45.3088 69.2781 45.3088 71.0764 45.3088C71.0764 44.4571 71.0764 43.6054 71.0764 42.7279C69.331 42.7279 67.5856 42.7279 65.7873 42.7279ZM5.42881 45.3088C5.42881 55.2452 5.42881 65.1816 5.42881 75.4191C12.7185 75.4191 20.0082 75.4191 27.5188 75.4191C27.4161 65.4827 27.3134 55.5463 27.2076 45.3088C20.0206 45.3088 12.8336 45.3088 5.42881 45.3088ZM30.0078 57.9265C30.0078 61.2386 30.0078 64.5507 30.0078 67.9632C32.6772 67.9632 35.3467 67.9632 38.0971 67.9632C37.481 67.1115 36.865 66.2599 36.2303 65.3824C35.6054 63.6544 35.6021 61.744 36.4831 60.0951C36.9627 59.3109 37.5034 58.656 38.0971 57.9265C35.4276 57.9265 32.7581 57.9265 30.0078 57.9265ZM46.8086 57.9265C47.1038 58.376 47.399 58.8255 47.7031 59.2886C48.2744 60.1586 48.819 61.0246 49.2976 61.9412C49.3991 61.7475 49.5005 61.5538 49.6051 61.3542C49.7411 61.0984 49.877 60.8426 50.0171 60.579C50.1506 60.3262 50.2842 60.0734 50.4218 59.8128C50.8532 59.0735 50.8532 59.0735 51.7866 57.9265C50.1439 57.9265 48.5011 57.9265 46.8086 57.9265ZM60.4982 57.9265C60.7933 58.376 61.0885 58.8255 61.3926 59.2886C61.964 60.1586 62.5085 61.0246 62.9872 61.9412C63.0886 61.7475 63.1901 61.5538 63.2946 61.3542C63.4306 61.0984 63.5666 60.8426 63.7066 60.579C63.8402 60.3262 63.9738 60.0734 64.1114 59.8128C64.5428 59.0735 64.5428 59.0735 65.4762 57.9265C63.8334 57.9265 62.1907 57.9265 60.4982 57.9265ZM74.1877 57.9265C74.3189 58.1002 74.45 58.2739 74.5851 58.453C75.7999 60.1653 76.5302 61.5876 76.3656 63.6618C76.0431 64.9953 75.4847 66.1784 74.81 67.3897C74.6046 67.3897 74.3993 67.3897 74.1877 67.3897C74.1877 67.579 74.1877 67.7682 74.1877 67.9632C74.9269 67.9866 75.6651 68.0036 76.4045 68.017C76.6114 68.0242 76.8184 68.0314 77.0316 68.0388C78.5105 68.0589 79.4941 67.8672 80.7214 67.1029C82.0151 65.7515 82.1608 64.6662 82.1214 62.9449C82.1262 62.7345 82.1311 62.5242 82.136 62.3075C82.1245 60.8229 81.8018 59.9463 80.7214 58.7868C79.4336 57.7952 78.1883 57.821 76.5795 57.8727C76.2339 57.8785 76.2339 57.8785 75.8813 57.8845C75.3167 57.8945 74.7522 57.91 74.1877 57.9265ZM39.6527 59.9338C38.6918 60.9127 38.326 61.665 38.2721 62.9628C38.3331 64.0777 38.5373 64.8 39.3416 65.6691C40.5299 66.6317 41.7237 66.6923 43.2489 66.6504C44.7061 66.4183 45.4415 65.6407 46.303 64.5579C46.6877 63.3523 46.6798 62.3216 46.128 61.1705C45.1705 60.0445 44.3312 59.3447 42.7834 59.0915C41.5043 59.0026 40.7167 59.2429 39.6527 59.9338ZM53.3423 59.9338C52.1874 61.1103 51.8972 62.0668 51.9762 63.6091C52.1683 64.5986 52.6314 65.2097 53.3423 65.9559C54.7197 66.7392 56.1262 66.7533 57.698 66.5294C58.7685 66.0421 59.405 65.3567 59.9926 64.3966C60.349 63.0497 60.3798 62.2648 59.6426 61.0271C58.6151 59.8433 58.1217 59.4485 56.4924 59.1094C55.199 59.0052 54.4209 59.2334 53.3423 59.9338ZM66.2929 60.5253C65.5522 61.7593 65.5478 62.8557 65.7873 64.2353C66.4303 65.4206 66.9531 66.0385 68.2763 66.5294C69.5372 66.7116 70.8171 66.7891 71.9831 66.2583C72.9859 65.5344 73.6167 64.806 73.8766 63.6618C73.8537 62.3325 73.7562 61.4591 72.8654 60.3998C71.8221 59.4819 71.1101 59.151 69.6958 58.9839C68.2974 59.1411 67.3448 59.6833 66.2929 60.5253ZM48.9865 63.9485C48.8581 64.2916 48.7298 64.6346 48.5976 64.9881C48.1536 66.1747 47.6217 66.8391 46.8086 67.9632C48.4513 67.9632 50.0941 67.9632 51.7866 67.9632C51.3438 67.3688 51.3438 67.3688 50.8921 66.7624C50.2134 65.8512 49.71 64.9874 49.2976 63.9485C49.1949 63.9485 49.0923 63.9485 48.9865 63.9485ZM62.676 63.9485C62.5477 64.2916 62.4194 64.6346 62.2871 64.9881C61.8432 66.1747 61.3112 66.8391 60.4982 67.9632C62.1409 67.9632 63.7836 67.9632 65.4762 67.9632C65.0334 67.3688 65.0334 67.3688 64.5817 66.7624C63.903 65.8512 63.3996 64.9874 62.9872 63.9485C62.8845 63.9485 62.7818 63.9485 62.676 63.9485ZM30.0078 70.5441C30.0078 72.1529 30.0078 73.7616 30.0078 75.4191C45.4085 75.4191 60.8093 75.4191 76.6767 75.4191C76.6767 73.8104 76.6767 72.2016 76.6767 70.5441C61.276 70.5441 45.8752 70.5441 30.0078 70.5441Z" fill="#DF1111"/>
</svg>
