<svg width="93" height="89" viewBox="0 0 93 89" fill="none" xmlns="http://www.w3.org/2000/svg">
<path d="M46.4675 5.62948C45.3091 5.99761 43.9774 7.08033 43.4577 8.07644L43.1979 8.55284H42.2668C41.7579 8.55284 41.0975 8.62863 40.8052 8.71525C40.5128 8.80186 40.2638 8.87765 40.253 8.87765C40.253 8.87765 40.1122 8.66111 39.9607 8.40125C39.625 7.81658 39.1487 7.40515 38.4341 7.08033C38.0119 6.87461 37.7087 6.82048 37.0266 6.82048C35.3268 6.8313 34.1684 7.71914 33.7678 9.34323L33.5946 10.0362L32.7068 10.0903C30.8987 10.2094 29.8052 11.1297 29.3938 12.8729C29.0257 14.4537 29.8702 16.1427 31.4184 16.9115C32.3603 17.3662 33.4538 17.4095 34.3524 17.0089C34.9696 16.7274 35.9548 15.7638 36.0631 15.309C36.128 15.0708 36.1821 15.0492 36.8101 15.0492H37.4922L37.568 15.3957C37.7087 16.0778 38.2934 17.0955 38.8997 17.7127C40.7185 19.575 43.5551 19.5966 45.5581 17.756C45.9046 17.442 46.2835 16.9981 46.3918 16.7707L46.5975 16.3701L47.0955 16.5109C48.4488 16.9223 49.8238 16.7707 51.1663 16.0669C53.4724 14.8543 54.5118 12.4398 53.9055 9.71135C53.4724 7.77327 51.9567 6.13836 50.0837 5.58617C49.2392 5.33714 47.2904 5.3588 46.4675 5.62948Z" fill="#DF1111"/>
<path d="M68.6623 11.4769C68.1643 11.6068 67.4173 11.9749 67.1249 12.2456C66.9084 12.4405 66.8868 12.4405 66.432 12.1265C65.0246 11.1953 63.0324 11.3361 62.0797 12.4297C61.2677 13.35 61.0403 14.7683 61.5167 15.8294C61.7874 16.4141 62.6319 17.2911 63.1407 17.5076C63.6171 17.7025 64.8189 17.6917 65.3169 17.4751C65.685 17.3236 65.7283 17.3236 65.8257 17.4968C66.6811 18.9477 68.0344 19.6947 69.5826 19.5648C70.3513 19.4998 71.2283 19.1642 71.7263 18.7636L71.9861 18.5362L72.4625 18.9585C73.1013 19.5107 73.8267 19.7489 74.747 19.6839C75.6023 19.6189 76.1653 19.3483 76.7716 18.7095C77.3887 18.0706 77.5944 17.6159 77.6485 16.7822C77.7135 15.8619 77.3887 14.9524 76.804 14.3786C76.0245 13.6315 74.6062 13.3283 73.5669 13.6964C73.307 13.7831 73.0905 13.848 73.0796 13.8372C73.0688 13.8155 72.9389 13.5773 72.7765 13.3067C72.3976 12.6354 71.5206 11.8558 70.9035 11.6501C70.2539 11.4335 69.182 11.3469 68.6623 11.4769Z" fill="#DF1111"/>
<path d="M20.2993 19.272V21.4375H25.2255H30.1516V20.1599C30.1516 19.4669 30.1192 18.4925 30.0759 17.9944L30.0109 17.1066H25.1605H20.2993V19.272Z" fill="#DF1111"/>
<path d="M51.6103 20.6468L50.6034 20.6901L50.6359 22.39L50.6684 24.0898H53.9705H57.2727V22.3575V20.6251L54.9449 20.6143C53.6674 20.6143 52.1624 20.6251 51.6103 20.6468Z" fill="#DF1111"/>
<path d="M74.0757 22.6504C74.0324 23.1485 73.9999 24.0688 73.9999 24.7076V25.877H76.0028H78.0058V25.1407C78.0058 24.7293 77.9733 23.7981 77.93 23.0835L77.865 21.7626H76.0028H74.1406L74.0757 22.6504Z" fill="#DF1111"/>
<path d="M67.807 22.2391C66.9626 22.5423 66.5403 22.997 66.313 23.8199L66.2155 24.1988L64.9596 24.1663C64.0069 24.1447 63.7037 24.1663 63.6712 24.2746C63.6388 24.3504 63.5954 25.3249 63.5521 26.4401L63.4872 28.4756H65.3386H67.1899L67.1574 27.4145L67.125 26.3534L67.4498 26.5159C67.8828 26.7324 68.9005 26.7974 69.3986 26.635C70.2647 26.3534 70.9685 25.4006 70.9685 24.5236C70.9685 24.0364 70.6437 23.246 70.2864 22.8671C69.7126 22.2391 68.5541 21.9576 67.807 22.2391Z" fill="#DF1111"/>
<path d="M38.6614 24.3825C38.6289 25.292 38.5856 26.5154 38.564 27.0893L38.5315 28.1503H40.502C41.5846 28.1503 42.6132 28.1828 42.7972 28.2153L43.1329 28.2803L43.0787 26.8402C43.0571 26.039 43.0029 24.7939 42.9705 24.0576L42.9055 22.7367H40.8159H38.7264L38.6614 24.3825Z" fill="#DF1111"/>
<path d="M20.2993 24.9559V26.959L25.2038 26.9373L30.0975 26.9048L30.13 24.9235L30.1516 22.9529H25.2255H20.2993V24.9559Z" fill="#DF1111"/>
<path d="M50.6142 25.7358C50.6142 26.2122 50.1053 34.6899 49.8563 38.4686C49.6722 41.143 49.5315 43.6116 49.5315 43.9472V44.5644L52.3681 46.2426C53.9271 47.1629 55.2697 47.9316 55.3454 47.9425C55.5078 47.9858 58.2037 46.4267 58.3986 46.1885C58.4852 46.091 58.3336 43.0269 57.9114 35.9892C57.5866 30.4565 57.2943 25.8657 57.2726 25.7899C57.2401 25.6925 56.4714 25.66 53.9163 25.66C52.0974 25.66 50.6142 25.6925 50.6142 25.7358Z" fill="#DF1111"/>
<path d="M73.8376 27.4137C73.8159 27.4895 73.7726 28.1175 73.7401 28.7996C73.6968 29.4818 73.5344 32.6217 73.3504 35.7832C73.1771 38.9339 73.0039 42.2038 72.9714 43.0375L72.8956 44.5533L74.4005 45.4411C75.2234 45.9283 76.3602 46.5672 76.9232 46.8595C77.4862 47.1627 78.1682 47.5199 78.4389 47.6824C78.7096 47.8339 78.9694 47.9639 79.0236 47.9639C79.121 47.9639 79.0885 46.6863 78.8179 40.1141C78.6121 35.2418 78.2224 27.5978 78.1682 27.4137C78.1358 27.3163 77.6053 27.2838 76.0029 27.2838C74.4005 27.2838 73.87 27.3163 73.8376 27.4137Z" fill="#DF1111"/>
<path d="M20.1478 28.7137C20.0828 28.9411 19.3033 43.3305 19.3574 43.3738C19.3791 43.4063 20.1803 42.9624 21.1222 42.3885C22.0749 41.8147 22.9194 41.3708 23.0169 41.3924C23.1576 41.4358 30.2708 45.4635 31.0395 45.9507C31.1369 46.0049 31.2452 46.0373 31.2777 46.0157C31.2993 45.9832 31.1044 42.2586 30.8446 37.7328C30.5847 33.207 30.3682 29.2984 30.3682 29.0385V28.5838H25.2797C21.2954 28.5838 20.1803 28.6163 20.1478 28.7137Z" fill="#DF1111"/>
<path d="M38.38 29.8072C38.38 29.8289 38.2393 32.6006 38.066 35.9571C37.6113 44.7163 37.5897 45.1494 37.6763 45.1494C37.7196 45.1494 38.445 44.7163 39.2895 44.1858C40.1231 43.6553 41.4765 42.8324 42.2776 42.356L43.7392 41.5006L43.7068 40.1581C43.6743 38.6855 43.4036 32.6548 43.2953 30.8791L43.2196 29.7747H40.8052C39.4735 29.7747 38.38 29.7855 38.38 29.8072Z" fill="#DF1111"/>
<path d="M63.3464 30.446C63.2489 31.3555 62.6102 43.6445 62.6535 43.6986C62.6751 43.7203 63.6387 43.1681 64.7755 42.486L66.8651 41.23L67.2981 41.5223C67.5472 41.6739 67.7637 41.7822 67.7853 41.7605C67.8178 41.728 67.7204 39.162 67.5688 36.0437C67.4064 32.9255 67.2873 30.262 67.2873 30.1212C67.2873 29.883 67.2873 29.883 65.3493 29.883H63.4005L63.3464 30.446Z" fill="#DF1111"/>
<path d="M65.5551 43.8825C64.8081 44.3264 62.8917 45.4741 61.2785 46.4485C59.6762 47.423 57.7165 48.5923 56.937 49.0687L55.5295 49.9133L49.9213 46.6109C46.8465 44.792 44.2373 43.3086 44.1398 43.3086C43.9666 43.3086 37.9145 46.86 35.067 48.614C34.4066 49.0362 33.8328 49.3719 33.8003 49.3719C33.7137 49.3719 23.6232 43.5252 23.4932 43.4061C23.1793 43.1029 22.6812 43.3519 17.6035 46.4161C14.7669 48.1268 12.0494 49.7725 11.5514 50.0973L10.6636 50.6712V64.6383V78.6055H22.3456H34.0277L34.1034 72.6505L34.1792 66.6955L41.8337 66.7171L49.4774 66.7496L49.5099 72.6721L49.5315 78.6055H65.7175H81.9035V65.1472C81.9035 54.5365 81.871 51.6564 81.7735 51.5157C81.6328 51.3425 67.1575 43.0921 66.9951 43.0921C66.9409 43.0921 66.2913 43.4494 65.5551 43.8825ZM20.0179 54.0276C20.2344 54.2442 20.2452 54.3741 20.2452 56.9077V59.5712L19.9854 59.7769C19.758 59.9609 19.5307 59.9826 17.2679 59.9826C15.0051 59.9826 14.7777 59.9609 14.5504 59.7769C14.2905 59.5712 14.2905 59.5495 14.258 56.9834C14.2256 54.4932 14.2364 54.3849 14.4529 54.1034L14.6803 53.8111L16.8673 53.7786C19.5631 53.7353 19.7472 53.7461 20.0179 54.0276ZM29.5995 53.8652C29.7728 53.9518 29.9352 54.1034 29.9785 54.19C30.0109 54.2875 30.0434 55.5109 30.0434 56.9077V59.4521L29.7728 59.7119L29.5129 59.9826H27.0661H24.6192L24.3594 59.7119L24.0887 59.4521L24.0995 56.9293C24.0995 55.5434 24.1429 54.3199 24.1862 54.2008C24.3594 53.7678 24.6842 53.7136 27.0444 53.7028C28.82 53.7028 29.3613 53.7353 29.5995 53.8652ZM39.4085 54.0384C39.6143 54.2333 39.6251 54.4174 39.6576 56.7777L39.69 59.3113L39.4194 59.6145L39.1595 59.9285L36.8426 59.9609C34.6231 59.9934 34.5149 59.9826 34.2334 59.7661L33.941 59.5387V56.8535C33.941 54.4066 33.9627 54.1575 34.1359 53.9951C34.2983 53.8435 34.6773 53.8111 36.442 53.7786C38.9538 53.7353 39.127 53.7569 39.4085 54.0384ZM78.5363 53.9843L78.872 54.2658V56.8535V59.4521L78.6013 59.7119L78.3415 59.9826H75.8621C73.4153 59.9826 73.3828 59.9826 73.1555 59.7336C72.9281 59.4954 72.9173 59.3546 72.8523 56.9943C72.7874 54.3091 72.8198 54.1142 73.3503 53.8435C73.5452 53.7461 74.2923 53.7028 75.9163 53.7028H78.2007L78.5363 53.9843ZM49.1309 54.006C49.2825 54.1684 49.315 54.5581 49.315 56.7886C49.3258 58.2178 49.2933 59.4629 49.2609 59.5603C49.1201 59.9176 48.6979 59.9826 46.3377 59.9826C44.194 59.9826 43.9883 59.9609 43.8042 59.7769C43.631 59.6036 43.5877 59.333 43.5227 58.1311C43.4794 57.3299 43.4686 56.1389 43.4794 55.4785C43.5444 53.7028 43.3495 53.8111 46.4459 53.8111C48.7195 53.8111 48.9685 53.8327 49.1309 54.006ZM58.9508 54.0276C59.1565 54.2333 59.1673 54.3849 59.1673 56.7019C59.1673 58.0662 59.1348 59.2788 59.1024 59.4196C58.9616 59.9068 58.5935 59.9826 56.19 59.9826C53.7864 59.9826 53.4183 59.9068 53.2776 59.4196C53.2451 59.2788 53.2126 58.0878 53.2126 56.7777C53.2126 54.5148 53.2234 54.3633 53.44 54.0926L53.6565 53.8111H56.2008C58.5935 53.8111 58.7451 53.8219 58.9508 54.0276ZM68.8681 54.0384C69.0521 54.2442 69.0738 54.4824 69.1063 56.6586C69.1279 57.9796 69.1063 59.1706 69.0738 59.3005C69.0413 59.4412 68.9222 59.647 68.8031 59.7661C68.5974 59.9718 68.435 59.9826 66.1181 59.9826C63.7795 59.9826 63.6388 59.9718 63.4114 59.7661C63.184 59.5495 63.1732 59.4737 63.1732 56.8427C63.1732 54.1792 63.1732 54.1467 63.4114 53.9843C63.6171 53.8435 64.0718 53.8111 66.1614 53.8111C68.5649 53.8111 68.6732 53.8219 68.8681 54.0384ZM20.0395 64.6925L20.3102 64.9631L20.2777 67.5075C20.2452 69.9653 20.2344 70.0519 20.007 70.2901C19.7689 70.5175 19.7255 70.5283 17.2462 70.4959C15.1242 70.4742 14.6911 70.4417 14.5395 70.301C14.3663 70.1386 14.3447 69.8679 14.3447 67.4859C14.3447 64.9956 14.3555 64.844 14.5612 64.6383C14.7669 64.4326 14.9185 64.4218 17.2679 64.4218H19.7689L20.0395 64.6925ZM29.7944 64.66C30.0434 64.8873 30.0434 64.9198 30.0434 67.4751C30.0434 69.9112 30.0326 70.0628 29.8269 70.2685C29.6212 70.4742 29.4696 70.485 27.0661 70.485C24.5976 70.485 24.5218 70.4742 24.3053 70.2468C24.0995 70.0195 24.0887 69.8787 24.0887 67.4967C24.0887 65.1255 24.0995 64.974 24.3161 64.7033L24.5326 64.4218H27.0444C29.4588 64.4218 29.5454 64.4326 29.7944 64.66ZM58.9508 64.6383C59.1565 64.844 59.1673 64.9956 59.1673 67.4967V70.1494L58.8858 70.3659C58.6152 70.5825 58.4636 70.5933 56.19 70.5933C53.9813 70.5933 53.754 70.5716 53.5266 70.3876C53.2668 70.1819 53.2668 70.1602 53.2343 67.5942C53.2018 65.0931 53.2126 64.9956 53.4292 64.7141L53.6565 64.4218H56.2008C58.5935 64.4218 58.7451 64.4326 58.9508 64.6383ZM68.8681 64.6491C69.0521 64.8549 69.0738 65.0931 69.1063 67.3993L69.1387 69.922L68.8681 70.2252L68.6082 70.5392H66.0964C63.5846 70.5392 63.5846 70.5392 63.3789 70.2793C63.184 70.0519 63.1732 69.8246 63.1732 67.4426C63.1732 64.9956 63.184 64.844 63.3898 64.6383C63.5955 64.4326 63.747 64.4218 66.1289 64.4218C68.5649 64.4218 68.6732 64.4326 68.8681 64.6491ZM78.6554 64.6383C78.8611 64.844 78.872 64.9956 78.872 67.4426C78.872 69.8246 78.8611 70.0519 78.6663 70.2793C78.4606 70.5392 78.4606 70.5392 75.8946 70.5392C73.3287 70.5392 73.3287 70.5392 73.123 70.2793C72.9389 70.0519 72.9173 69.8246 72.9173 67.4751C72.9173 65.0064 72.9281 64.9198 73.1555 64.6708C73.3828 64.4218 73.4153 64.4218 75.9163 64.4218C78.2982 64.4218 78.4497 64.4326 78.6554 64.6383Z" fill="#DF1111"/>
<path d="M5.89978 82.016V83.5859H46.5H87.1003V82.016V80.446H46.5H5.89978V82.016Z" fill="#DF1111"/>
</svg>
