<svg width="31" height="31" viewBox="0 0 31 31" fill="none" xmlns="http://www.w3.org/2000/svg">
<path d="M18.5996 0.310059H12.3996C6.35457 1.55006 1.54957 6.30339 0.30957 12.4001V18.6C1.54957 24.6967 6.35457 29.45 12.3996 30.69H18.5996C24.6962 29.45 29.4496 24.645 30.6896 18.6V12.4001C29.4496 6.30339 24.6446 1.55006 18.5996 0.310059Z" fill="white"/>
<path d="M30.5758 19.1167C30.8588 17.932 31.0012 16.718 31 15.5C31 14.2548 30.8533 13.0438 30.5758 11.8833H19.1167V0.424191C17.932 0.141183 16.718 -0.00119329 15.5 7.5326e-06C14.2548 7.5326e-06 13.0438 0.146741 11.8833 0.424191V11.8833H0.424191C0.141183 13.068 -0.00119329 14.282 7.5326e-06 15.5C7.5326e-06 16.7452 0.146741 17.9562 0.424191 19.1167H11.8833V30.5758C13.068 30.8588 14.282 31.0012 15.5 31C16.7452 31 17.9562 30.8533 19.1167 30.5758V19.1167H30.5758Z" fill="#7B454B"/>
</svg>
