<svg width="45" height="45" viewBox="0 0 45 45" fill="none" xmlns="http://www.w3.org/2000/svg">
<path d="M0 22.5C0 10.0736 10.0736 0 22.5 0C34.9264 0 45 10.0736 45 22.5C45 34.9264 34.9264 45 22.5 45C10.0736 45 0 34.9264 0 22.5Z" fill="white"/>
<path d="M10.7727 32.7546H14.9091V22.7092L9 18.2773V30.9819C9 31.9613 9.7933 32.7546 10.7727 32.7546Z" fill="#4285F4"/>
<path d="M29.0909 32.7546H33.2273C34.2067 32.7546 35 31.9613 35 30.9819V18.2773L29.0909 22.7092V32.7546Z" fill="#34A853"/>
<path d="M29.0909 15.0275V22.7093L35 18.2775V15.9139C35 13.7231 32.499 12.4718 30.7455 13.7866L29.0909 15.0275Z" fill="#FBBC04"/>
<path fill-rule="evenodd" clip-rule="evenodd" d="M14.9091 22.7092V15.0273L22 20.3455L29.0909 15.0273V22.7092L22 28.0273L14.9091 22.7092Z" fill="#EA4335"/>
<path d="M9 15.9139V18.2775L14.9091 22.7093V15.0275L13.2545 13.7866C11.501 12.4718 9 13.7231 9 15.9139Z" fill="#C5221F"/>
</svg>
