<svg width="45" height="45" viewBox="0 0 45 45" fill="none" xmlns="http://www.w3.org/2000/svg">
<rect width="45" height="45" rx="22.5" fill="url(#paint0_linear_1105_7966)"/>
<path d="M18.7552 22.5569C18.7552 20.484 20.4346 18.8032 22.5069 18.8032C24.5791 18.8032 26.2594 20.484 26.2594 22.5569C26.2594 24.6297 24.5791 26.3105 22.5069 26.3105C20.4346 26.3105 18.7552 24.6297 18.7552 22.5569ZM16.7267 22.5569C16.7267 25.7502 19.3145 28.3388 22.5069 28.3388C25.6993 28.3388 28.2871 25.7502 28.2871 22.5569C28.2871 19.3635 25.6993 16.775 22.5069 16.775C19.3145 16.775 16.7267 19.3635 16.7267 22.5569ZM27.1651 16.5457C27.165 16.813 27.2441 17.0743 27.3924 17.2965C27.5408 17.5188 27.7517 17.6921 27.9985 17.7944C28.2453 17.8968 28.5169 17.9237 28.7789 17.8716C29.041 17.8196 29.2817 17.691 29.4707 17.5021C29.6597 17.3132 29.7884 17.0725 29.8407 16.8104C29.8929 16.5483 29.8662 16.2766 29.7641 16.0297C29.662 15.7828 29.4889 15.5717 29.2668 15.4231C29.0447 15.2745 28.7836 15.1952 28.5164 15.1951H28.5159C28.1578 15.1953 27.8144 15.3376 27.5611 15.5908C27.3078 15.8441 27.1654 16.1875 27.1651 16.5457ZM17.9591 31.7222C16.8617 31.6723 16.2651 31.4894 15.8687 31.3349C15.3432 31.1302 14.9682 30.8865 14.5739 30.4927C14.1797 30.0988 13.9356 29.7241 13.7319 29.1984C13.5774 28.802 13.3946 28.2052 13.3447 27.1074C13.2901 25.9205 13.2792 25.5639 13.2792 22.557C13.2792 19.55 13.291 19.1945 13.3447 18.0066C13.3947 16.9088 13.5788 16.3131 13.7319 15.9155C13.9365 15.3898 14.1802 15.0147 14.5739 14.6204C14.9676 14.226 15.3423 13.9819 15.8687 13.7781C16.265 13.6236 16.8617 13.4407 17.9591 13.3908C19.1457 13.3362 19.5021 13.3253 22.5069 13.3253C25.5116 13.3253 25.8684 13.3371 27.056 13.3908C28.1534 13.4408 28.749 13.625 29.1464 13.7781C29.6719 13.9819 30.0469 14.2265 30.4412 14.6204C30.8354 15.0142 31.0786 15.3898 31.2832 15.9155C31.4377 16.3119 31.6205 16.9088 31.6704 18.0066C31.725 19.1945 31.7359 19.55 31.7359 22.557C31.7359 25.5639 31.725 25.9195 31.6704 27.1074C31.6204 28.2052 31.4367 28.8019 31.2832 29.1984C31.0786 29.7241 30.8349 30.0992 30.4412 30.4927C30.0475 30.8861 29.6719 31.1302 29.1464 31.3349C28.7501 31.4895 28.1534 31.6723 27.056 31.7222C25.8694 31.7768 25.513 31.7877 22.5069 31.7877C19.5008 31.7877 19.1453 31.7768 17.9591 31.7222ZM17.8659 11.3651C16.6676 11.4197 15.8487 11.6097 15.1336 11.8881C14.393 12.1755 13.7661 12.5611 13.1395 13.1868C12.513 13.8125 12.1285 14.4407 11.8411 15.1815C11.5629 15.8973 11.3729 16.7159 11.3183 17.9146C11.2628 19.1152 11.2501 19.499 11.2501 22.5569C11.2501 25.6147 11.2628 25.9986 11.3183 27.1991C11.3729 28.3979 11.5629 29.2165 11.8411 29.9323C12.1285 30.6726 12.5131 31.3015 13.1395 31.9269C13.766 32.5523 14.393 32.9374 15.1336 33.2257C15.8501 33.504 16.6676 33.6941 17.8659 33.7487C19.0668 33.8033 19.4499 33.8169 22.5069 33.8169C25.5638 33.8169 25.9476 33.8042 27.1478 33.7487C28.3462 33.6941 29.1646 33.504 29.8801 33.2257C30.6203 32.9374 31.2477 32.5526 31.8742 31.9269C32.5007 31.3012 32.8844 30.6726 33.1726 29.9323C33.4509 29.2165 33.6418 28.3978 33.6955 27.1991C33.75 25.9977 33.7627 25.6147 33.7627 22.5569C33.7627 19.499 33.75 19.1152 33.6955 17.9146C33.6409 16.7158 33.4509 15.8968 33.1726 15.1815C32.8844 14.4411 32.4997 13.8135 31.8742 13.1868C31.2487 12.5602 30.6203 12.1755 29.881 11.8881C29.1646 11.6097 28.3462 11.4188 27.1487 11.3651C25.9485 11.3105 25.5647 11.2969 22.5078 11.2969C19.4508 11.2969 19.0668 11.3096 17.8659 11.3651Z" fill="white"/>
<defs>
<linearGradient id="paint0_linear_1105_7966" x1="44.1351" y1="45" x2="-0.864899" y2="-1.21127e-06" gradientUnits="userSpaceOnUse">
<stop stop-color="#FBE18A"/>
<stop offset="0.21" stop-color="#FCBB45"/>
<stop offset="0.38" stop-color="#F75274"/>
<stop offset="0.52" stop-color="#D53692"/>
<stop offset="0.74" stop-color="#8F39CE"/>
<stop offset="1" stop-color="#5B4FE9"/>
</linearGradient>
</defs>
</svg>
