<svg width="45" height="45" viewBox="0 0 45 45" fill="none" xmlns="http://www.w3.org/2000/svg">
<path d="M0 22.5C0 10.0736 10.0736 0 22.5 0C34.9264 0 45 10.0736 45 22.5C45 34.9264 34.9264 45 22.5 45C10.0736 45 0 34.9264 0 22.5Z" fill="#54AED4"/>
<path d="M15.9107 11.2959C16.1839 11.273 16.4181 11.3395 16.5697 11.5898C16.9095 12.1408 17.2516 12.6919 17.5753 13.2567C17.9495 13.9087 18.2939 14.5791 18.6613 15.2381C18.7554 15.4149 18.8863 15.5756 18.9965 15.7455C19.0975 15.9062 19.1939 16.0715 19.2881 16.2322C19.4809 16.5973 19.4717 16.9646 19.1848 17.2562C18.7761 17.6741 18.3261 18.0621 17.8921 18.4593C17.5294 18.7922 17.1528 19.1114 16.7993 19.4512C16.5237 19.7175 16.4526 20.0504 16.6385 20.4017C16.9255 20.9389 17.2102 21.4762 17.5248 22.002C18.6911 23.9466 20.1812 25.5997 22.0639 26.874C22.7894 27.3676 23.5448 27.8199 24.307 28.2516C25.0257 28.6579 25.3058 28.5891 25.8637 27.9669C26.3826 27.3906 26.8831 26.8051 27.3997 26.2242C27.5237 26.0842 27.6729 25.9602 27.8176 25.8408C28.1114 25.5928 28.4329 25.5653 28.7704 25.7352C28.8645 25.7811 28.9655 25.8224 29.0482 25.8821C29.9436 26.5227 30.9446 26.975 31.8906 27.5192C32.398 27.8107 32.8916 28.123 33.3898 28.4215C33.6585 28.5799 33.7664 28.8118 33.748 29.1309C33.6975 30.0286 33.5483 30.9103 33.0271 31.6679C32.809 31.9825 32.499 32.258 32.1868 32.4807C31.3212 33.0868 30.3546 33.4611 29.326 33.6907C28.3915 33.8996 27.4594 33.8239 26.564 33.5437C24.8351 33.0111 23.1315 32.4004 21.5634 31.4751C20.1399 30.6325 18.845 29.6154 17.6465 28.4789C16.1288 27.0347 14.7742 25.4597 13.679 23.6665C12.965 22.5025 12.4553 21.2489 11.9938 19.97C11.7137 19.1986 11.4382 18.434 11.3142 17.6167C11.1719 16.6914 11.2706 15.8006 11.5668 14.9235C11.8331 14.1314 12.166 13.3738 12.6688 12.6965C13.0637 12.1707 13.5574 11.785 14.1956 11.6128C14.7076 11.4773 15.2242 11.3694 15.7385 11.25C15.8051 11.3028 15.8579 11.3028 15.9107 11.2959Z" fill="white"/>
</svg>
