<svg width="45" height="45" viewBox="0 0 45 45" fill="none" xmlns="http://www.w3.org/2000/svg">
<path d="M0 22.5C0 34.9264 10.0736 45 22.5 45C34.9264 45 45 34.9264 45 22.5C45 10.0736 34.9264 0 22.5 0C10.0736 0 0 10.0736 0 22.5Z" fill="#198F2B"/>
<path fill-rule="evenodd" clip-rule="evenodd" d="M30.375 14.4844C28.2656 12.375 25.4531 11.25 22.5 11.25C16.3125 11.25 11.25 16.3125 11.25 22.5C11.25 24.4688 11.8125 26.4375 12.7969 28.125L11.25 33.75L17.1563 32.2031C18.8438 33.0469 20.6719 33.6094 22.5 33.6094C28.6875 33.6094 33.75 28.5469 33.75 22.3594C33.75 19.4062 32.4844 16.5938 30.375 14.4844ZM22.5 31.7812C20.8125 31.7812 19.125 31.3594 17.7188 30.5156L17.4375 30.375L13.9219 31.3594L14.9063 27.9844L14.625 27.5625C13.6406 26.0156 13.2187 24.3281 13.2187 22.6406C13.2187 17.5781 17.4375 13.3594 22.5 13.3594C25.0312 13.3594 27.2813 14.3437 29.1094 16.0312C30.9375 17.8594 31.7813 20.1094 31.7813 22.6406C31.7813 27.5625 27.7031 31.7812 22.5 31.7812ZM27.5625 24.75C27.2813 24.6094 25.875 23.9062 25.5938 23.9062C25.3125 23.7656 25.1719 23.7656 25.0312 24.0469C24.8906 24.3281 24.3281 24.8906 24.1875 25.1719C24.0469 25.3125 23.9062 25.3125 23.625 25.3125C23.3437 25.1719 22.5 24.8906 21.375 23.9062C20.5313 23.2031 19.9688 22.2188 19.8281 21.9375C19.6875 21.6563 19.8281 21.5156 19.9688 21.375C20.1094 21.2344 20.25 21.0937 20.3906 20.9531C20.5312 20.8125 20.5313 20.6719 20.6719 20.5313C20.8125 20.3906 20.6719 20.25 20.6719 20.1094C20.6719 19.9688 20.1094 18.5625 19.8281 18C19.6875 17.5781 19.4063 17.5781 19.2656 17.5781C19.125 17.5781 18.9844 17.5781 18.7031 17.5781C18.5625 17.5781 18.2812 17.5781 18 17.8594C17.7187 18.1406 17.0156 18.8437 17.0156 20.25C17.0156 21.6562 18 22.9219 18.1406 23.2031C18.2812 23.3438 20.1094 26.2969 22.9219 27.4219C25.3125 28.4062 25.7344 28.125 26.2969 28.125C26.8594 28.125 27.9844 27.4219 28.125 26.8594C28.4062 26.1563 28.4063 25.5938 28.2656 25.5938C28.125 24.8906 27.8438 24.8906 27.5625 24.75Z" fill="white"/>
</svg>
